<svg width="93" height="93" viewBox="0 0 93 93" fill="none" xmlns="http://www.w3.org/2000/svg">
<g clip-path="url(#clip0_87_441)">
<path d="M46.4986 92.9973C72.1791 92.9973 92.9973 72.1791 92.9973 46.4986C92.9973 20.8182 72.1791 0 46.4986 0C20.8182 0 0 20.8182 0 46.4986C0 72.1791 20.8182 92.9973 46.4986 92.9973Z" fill="#FFD217"/>
<path d="M17.5815 67.5818L8.99023 73.9825C8.99023 73.9825 11.9626 78.0461 15.5782 81.2274L22.6847 73.2116C22.6847 73.2116 18.9306 69.4575 17.5815 67.5791V67.5818Z" fill="#FFFF1A"/>
<path d="M14.0718 61.4064L3.98755 65.3641C3.98755 65.3641 5.22263 68.1899 6.76444 70.6247L15.904 65.0384L14.0718 61.4064Z" fill="#FFFF1A"/>
<path d="M73.6783 23.3335L81.8814 16.3329C81.8814 16.3329 78.8602 12.4811 74.7696 9.58475L68.2114 18.0539C68.2114 18.0539 72.2071 21.5501 73.6783 23.3335Z" fill="#FFFF1A"/>
<path d="M77.6959 29.1967L87.4924 24.5767C87.4924 24.5767 86.0727 21.8405 84.3734 19.5115L75.6248 25.6923L77.6959 29.194V29.1967Z" fill="#FFFF1A"/>
<path d="M71.6556 71.7279C85.8711 57.5124 85.8711 34.4647 71.6556 20.2493C57.4402 6.03385 34.3925 6.03385 20.177 20.2493C5.96162 34.4647 5.96162 57.5125 20.177 71.7279C34.3925 85.9433 57.4402 85.9433 71.6556 71.7279Z" fill="#F48F16"/>
<path d="M46.4986 82.2861C66.2634 82.2861 82.286 66.2635 82.286 46.4986C82.286 26.7338 66.2634 10.7112 46.4986 10.7112C26.7337 10.7112 10.7112 26.7338 10.7112 46.4986C10.7112 66.2635 26.7337 82.2861 46.4986 82.2861Z" fill="#F7B114"/>
<path d="M38.8492 48.168C38.8492 48.1355 38.8492 48.1056 38.8492 48.073C38.8492 48.1056 38.8465 48.1355 38.8438 48.1653C38.8438 48.1653 38.8437 48.1653 38.8465 48.1653L38.8492 48.168Z" fill="#FEFEFE"/>
<path d="M33.0377 37.5952C33.0377 37.5518 33.0377 37.5111 33.0404 37.4676C33.0404 37.5111 33.0349 37.5518 33.0322 37.5925H33.0377V37.5952Z" fill="#FEFEFE"/>
<path d="M10.2415 74.8403C10.2415 74.7969 10.2415 74.7561 10.2442 74.7127C10.2442 74.7561 10.2388 74.7969 10.2361 74.8376C10.2361 74.8376 10.2388 74.8376 10.2415 74.8376V74.8403Z" fill="#FEFEFE"/>
</g>
<defs>
<clipPath id="clip0_87_441">
<rect width="93" height="93" fill="white"/>
</clipPath>
</defs>
</svg>
