<svg width="394" height="351" viewBox="0 0 394 351" fill="none" xmlns="http://www.w3.org/2000/svg">
<g clip-path="url(#clip0_394_449)">
<path d="M97.8095 235.94C97.8095 235.94 81.6442 226.641 61.2273 236.473C40.8063 246.309 35.4556 265.182 35.4556 265.182C35.4556 265.182 44.3279 260.712 50.988 261.527C50.988 261.527 27.9518 279.536 30.3062 321.6C30.3062 321.6 37.6121 317.831 56.2323 315.81C73.9955 313.886 82.6165 303.712 82.6165 303.712C82.6165 303.712 79.4258 315.939 73.7599 319.291C73.7599 319.291 95.4754 321.856 108.761 306.058C122.043 290.256 123.033 271.843 121.021 262.788C119.014 253.731 97.8128 235.944 97.8128 235.944L97.8095 235.94Z" fill="url(#paint0_radial_394_449)"/>
<path d="M99.7161 240.954C99.7161 240.954 76.6981 236.11 59.7502 253.267C59.7502 253.267 65.652 257.668 74.9435 258.523C74.9435 258.523 55.4461 270.831 51.4016 298.007C51.4016 298.007 62.2952 299.681 70.6837 297.416C85.7697 293.35 90.5124 285.836 90.5124 285.836C90.5124 285.836 91.2931 294.238 88.3492 299.014C88.3492 299.014 112.446 297.114 117.784 265.359C123.648 230.426 99.7203 240.95 99.7203 240.95L99.7161 240.954Z" fill="url(#paint1_radial_394_449)"/>
<path d="M105.474 243.73C97.366 244.269 92.1543 250.378 89.7168 255.296C86.3268 262.128 85.6573 266.993 81.54 273.458C93.6947 273.555 111.805 273.318 116.911 257.571C117.734 244.764 114.677 240.625 109.942 239.372C106.577 239.173 109.137 243.484 105.474 243.73Z" fill="url(#paint2_radial_394_449)"/>
</g>
<g clip-path="url(#clip1_394_449)">
<path d="M210.226 234.147C210.226 234.147 229.293 293.701 153.823 317.712C153.823 317.712 167.417 302.512 165.123 281.773C163.763 269.494 157.421 265.523 157.421 265.523C154.769 247.883 193.772 216.853 210.224 234.158L210.226 234.147Z" fill="url(#paint3_linear_394_449)"/>
<g style="mix-blend-mode:multiply">
<path d="M210.226 234.147C210.226 234.147 211.478 238.081 212.073 244.322C201.253 249.674 183.868 258.932 177.621 270.232C171.423 281.454 173.919 295.708 165.282 307.45C162.276 311.428 158.937 314.442 155.411 317.187C154.876 317.364 154.363 317.542 153.823 317.712C153.823 317.712 167.417 302.512 165.123 281.773C163.763 269.494 157.421 265.523 157.421 265.523C154.769 247.883 193.772 216.853 210.224 234.158L210.226 234.147Z" fill="#FFFF1A"/>
</g>
<path d="M195.281 287.277C203.219 282.57 211.44 263.208 208.781 255.531C208.291 254.111 206.509 253.657 205.257 254.604C199.161 259.212 204.019 273.058 195.281 287.277Z" fill="#FFFF39"/>
<path d="M112.1 219.163C112.1 219.163 102.183 219.836 85.9691 224.62C82.0133 225.785 81.0084 229.281 82.2041 233.073C85.4609 243.43 93.4902 262.488 116.365 279.381C119.466 281.669 123.562 282.65 126.021 279.478C131.635 272.213 140.427 259.017 139.341 248.72C137.766 233.722 112.105 219.169 112.105 219.169L112.1 219.163Z" fill="url(#paint4_linear_394_449)"/>
<path opacity="0.2" d="M139.348 248.714C139.007 245.482 139.466 245.501 137.384 242.456C133.4 257.778 125.49 273.56 116.189 278.607C116.586 278.91 116.952 279.216 117.356 279.514C120.457 281.802 123.569 282.645 126.016 279.472C131.63 272.206 140.422 259.011 139.336 248.713L139.348 248.714Z" fill="white"/>
<path d="M117.518 222.597C103.958 224.307 83.6452 227.812 84.32 237.311C85.6853 240.775 87.5449 244.808 90.0576 249.154C97.7516 238.689 110.169 233.354 122.823 226.46C120.922 224.982 119.097 223.673 117.518 222.597Z" fill="#689296"/>
<path d="M119.116 207.33C119.116 207.33 108.257 209.351 106.96 216.93C105.664 224.509 130.802 260.334 140.647 262.85C150.494 265.353 155.647 246.201 155.647 246.201C155.647 246.201 143.285 202.406 119.114 207.341L119.116 207.33Z" fill="url(#paint5_linear_394_449)"/>
<path opacity="0.2" d="M133.574 258.13C136.301 260.634 138.756 262.367 140.649 262.838C150.496 265.342 155.649 246.189 155.649 246.189C155.649 246.189 154.711 242.871 152.85 238.177C148.73 247.979 144.587 257.892 133.574 258.13Z" fill="white"/>
<path d="M148.21 153.896C148.21 153.896 95.3889 120.426 53.1207 187.401C53.1207 187.401 71.258 178.08 90.7482 185.53C102.287 189.943 104.53 197.082 104.53 197.082C120.931 204.097 160.795 174.18 148.198 153.895L148.21 153.896Z" fill="url(#paint6_linear_394_449)"/>
<g style="mix-blend-mode:multiply">
<path d="M148.21 153.896C148.21 153.896 144.718 151.693 138.83 149.542C130.921 158.663 117.579 173.152 105.068 176.346C92.6455 179.514 79.4815 173.504 65.9414 178.9C61.3339 180.806 57.5746 183.277 54.0291 185.996C53.7234 186.47 53.4213 186.921 53.1207 187.401C53.1207 187.401 71.258 178.08 90.7482 185.53C102.287 189.943 104.53 197.082 104.53 197.082C120.931 204.097 160.795 174.18 148.198 153.895L148.21 153.896Z" fill="#FFFF1A"/>
</g>
<path d="M338.596 70.759C338.596 70.759 272.555 50.3795 186.175 117.132C133.848 157.57 112.102 184.747 104.864 195.128C103.147 197.592 103.734 200.862 106.184 202.391C106.271 202.448 106.37 202.506 106.457 202.562C128.415 216.389 144.67 237.425 152.513 262.159C152.551 262.265 152.577 262.369 152.61 262.467C153.472 265.224 156.488 266.616 159.305 265.577C171.171 261.184 202.959 247.001 255.286 206.564C341.666 139.811 338.596 70.759 338.596 70.759Z" fill="url(#paint7_linear_394_449)"/>
<path d="M310.352 149.305C340.124 105.388 338.595 70.759 338.595 70.759C338.595 70.759 305.163 60.4429 254.756 78.5395C254.756 78.5395 292.817 106.136 310.345 149.31L310.352 149.305Z" fill="url(#paint8_linear_394_449)"/>
<path d="M282.617 112.798C281.236 113.017 279.976 114.135 280.228 115.906C280.429 117.343 281.93 118.417 283.395 118.153C284.856 117.883 285.995 116.299 285.72 114.878C285.4 113.201 283.949 112.586 282.624 112.793L282.617 112.798Z" fill="#A7DBD3"/>
<path d="M258.279 85.4547C238.411 90.6016 179.418 123.451 113.627 200.703C112.679 201.819 112.847 203.467 114 204.272C117.282 206.555 120.383 208.646 124.339 212.279C125.326 213.192 126.925 213.073 127.879 212.036C177.949 157.666 219.909 128.891 273.178 99.5034C270.819 96.1145 263.25 89.1103 258.279 85.4547Z" fill="#A7DBD3"/>
<path d="M336.256 70.9851C335.525 70.8671 294.896 66.9191 264.79 83.039C268.49 85.2466 277.139 94.0538 279.037 96.8887C296.925 87.1603 317.126 78.447 336.256 70.9851Z" fill="#FFFF39"/>
<path d="M269.26 98.5291C269.142 98.6001 269.028 98.6775 268.913 98.7667C268.187 99.3278 267.66 100.666 268.132 101.501C268.785 102.64 270.716 102.854 271.86 102.342C272.939 101.859 273.7 100.558 273.306 99.4871C273.025 98.7017 272.22 98.207 271.379 98.1015C270.622 98.0045 269.901 98.1376 269.248 98.5279L269.26 98.5291Z" fill="#A7DBD3"/>
<path d="M254.856 86.1452C254.313 86.8444 254.278 87.8229 254.94 88.4277C255.566 88.999 256.502 89.1026 257.369 88.9908C257.81 88.9296 258.271 88.811 258.624 88.5383C259.633 87.7687 259.346 86.0363 258.279 85.4547C257.31 84.9311 255.849 85.1297 255.036 85.9438C254.974 86.0027 254.909 86.0733 254.856 86.1452Z" fill="#A7DBD3"/>
<path d="M295.832 133.194C295.734 133.291 295.63 133.382 295.515 133.471C294.789 134.032 293.361 134.204 292.672 133.537C291.734 132.618 292.015 130.695 292.798 129.717C293.538 128.794 294.989 128.386 295.926 129.038C296.615 129.508 296.89 130.412 296.781 131.252C296.683 132.009 296.373 132.674 295.831 133.206L295.832 133.194Z" fill="#A7DBD3"/>
<path d="M304.069 149.828C303.255 150.177 302.299 149.964 301.881 149.171C301.486 148.421 301.622 147.489 301.949 146.678C302.119 146.267 302.35 145.851 302.703 145.578C303.703 144.795 305.306 145.51 305.6 146.69C305.863 147.759 305.302 149.123 304.309 149.704C304.236 149.75 304.152 149.795 304.069 149.828Z" fill="#A7DBD3"/>
<path d="M119.913 213.074C119.913 213.074 109.453 215.893 110.079 220.797C110.249 222.154 113.94 229.147 113.94 229.147C113.94 229.147 116.629 221.475 124.771 218.378L119.918 213.08L119.913 213.074Z" fill="#689296"/>
<path d="M93.0328 154.966C99.5899 148.471 120.399 145.399 127.157 149.908C128.408 150.74 128.397 152.579 127.166 153.551C121.169 158.289 108.996 150.096 93.0328 154.966Z" fill="#FFFF39"/>
<path opacity="0.24" d="M338.584 73.1149C326.585 122.624 303.448 159.263 251.141 199.685C190.032 246.908 153.598 263.41 149.914 253.537C151.023 256.248 152.038 259.021 152.934 261.834C152.972 261.939 152.998 262.043 153.031 262.142C153.893 264.899 156.488 266.616 159.298 265.582C171.164 261.189 202.952 247.007 255.279 206.569C332.288 147.058 338.21 85.7305 338.584 73.1149Z" fill="white"/>
<path d="M238.522 170.001C253.471 171.561 267.423 160.78 269.683 145.92C271.944 131.061 261.658 117.75 246.708 116.19C231.759 114.63 217.808 125.411 215.547 140.271C213.286 155.13 223.573 168.441 238.522 170.001Z" fill="#A7DBD3"/>
<g style="mix-blend-mode:multiply">
<path d="M234.903 174.483C249.852 176.043 263.804 165.262 266.064 150.402C268.325 135.543 258.038 122.232 243.089 120.672C228.14 119.112 214.188 129.894 211.928 144.753C209.667 159.613 219.953 172.923 234.903 174.483Z" fill="#D5D9DB"/>
</g>
<path d="M219.179 162.897C228.151 174.508 245.29 176.296 257.459 166.892C269.628 157.488 272.22 140.452 263.247 128.842C254.275 117.231 237.137 115.443 224.967 124.847C212.798 134.251 210.206 151.287 219.179 162.897Z" fill="url(#paint9_radial_394_449)"/>
<path d="M225.694 157.863C232.013 166.041 244.085 167.3 252.656 160.677C261.227 154.053 263.053 142.054 256.733 133.876C250.414 125.698 238.342 124.439 229.771 131.063C221.199 137.686 219.374 149.685 225.694 157.863Z" fill="url(#paint10_radial_394_449)"/>
<path d="M256.733 133.876C250.414 125.699 238.342 124.439 229.771 131.063C221.2 137.686 219.374 149.686 225.694 157.863C220.275 150.851 221.845 140.569 229.188 134.895C236.53 129.22 246.881 130.301 252.295 137.306C257.709 144.311 256.143 154.6 248.801 160.274C241.458 165.948 231.107 164.868 225.694 157.863C232.013 166.04 244.085 167.3 252.656 160.677C261.227 154.053 263.052 142.053 256.733 133.876Z" fill="#4AADD8"/>
<path d="M224.587 158.718C217.828 149.971 219.787 137.092 228.955 130.007C238.123 122.922 251.08 124.274 257.839 133.021C264.599 141.768 262.639 154.647 253.471 161.732C244.303 168.817 231.347 167.465 224.587 158.718ZM255.627 134.731C249.768 127.149 238.538 125.983 230.598 132.119C222.658 138.255 220.959 149.423 226.813 156.998C232.667 164.573 243.902 165.745 251.842 159.61C259.782 153.474 261.481 142.306 255.627 134.731Z" fill="#395154"/>
<path d="M233.358 122.872C233.358 122.872 233.461 122.823 233.643 122.735C233.835 122.648 234.125 122.517 234.487 122.382C235.212 122.101 236.267 121.741 237.569 121.448C237.892 121.374 238.238 121.303 238.586 121.221C238.942 121.163 239.303 121.111 239.683 121.055C240.434 120.919 241.242 120.885 242.071 120.823C242.901 120.802 243.761 120.779 244.637 120.846C245.504 120.931 246.399 120.953 247.261 121.156L248.558 121.404C248.977 121.525 249.402 121.641 249.821 121.762C250.662 121.981 251.441 122.33 252.201 122.653C252.977 122.943 253.641 123.381 254.292 123.747C254.611 123.935 254.931 124.111 255.224 124.308C255.497 124.521 255.77 124.734 256.022 124.933C256.529 125.337 257.008 125.691 257.378 126.057C257.739 126.44 258.048 126.769 258.3 127.04C258.796 127.597 259.078 127.907 259.078 127.907C259.227 128.071 259.205 128.337 259.031 128.491C258.885 128.625 258.668 128.638 258.51 128.532L258.467 128.504C258.467 128.504 258.125 128.271 257.528 127.864C257.236 127.655 256.884 127.41 256.486 127.118C256.08 126.832 255.571 126.594 255.056 126.279C254.798 126.127 254.523 125.967 254.248 125.807C253.951 125.675 253.643 125.53 253.329 125.39C252.703 125.099 252.057 124.781 251.33 124.557C250.972 124.43 250.614 124.303 250.251 124.17C249.895 124.032 249.496 123.978 249.118 123.867C248.737 123.768 248.352 123.662 247.96 123.562L246.764 123.36C245.968 123.199 245.162 123.139 244.367 123.05C243.569 122.985 242.77 122.961 242.008 122.929C241.233 122.949 240.495 122.92 239.781 122.964C239.072 122.986 238.399 123.04 237.768 123.094C237.144 123.142 236.573 123.231 236.064 123.273C235.561 123.351 235.11 123.4 234.747 123.463C234.384 123.526 234.103 123.568 233.907 123.595C233.709 123.634 233.605 123.653 233.605 123.653L233.591 123.664C233.351 123.704 233.123 123.549 233.093 123.314C233.063 123.12 233.176 122.93 233.35 122.847L233.358 122.872Z" fill="#86B5B7"/>
<g opacity="0.8">
<path d="M252.997 167.569C252.997 167.569 252.903 167.631 252.725 167.737C252.541 167.849 252.278 168 251.935 168.173C251.241 168.523 250.249 169.02 248.998 169.449C248.682 169.559 248.359 169.674 248.017 169.794C247.673 169.894 247.316 169.994 246.953 170.099C246.229 170.327 245.436 170.465 244.625 170.636C243.803 170.765 242.956 170.902 242.091 170.961C241.224 170.989 240.34 171.094 239.459 171.02L238.145 170.96C237.71 170.903 237.276 170.845 236.853 170.789C235.993 170.699 235.17 170.477 234.381 170.269C233.574 170.108 232.857 169.783 232.154 169.519C231.81 169.382 231.468 169.263 231.149 169.117C230.846 168.948 230.547 168.786 230.265 168.632C229.708 168.317 229.174 168.047 228.752 167.753C228.338 167.442 227.971 167.178 227.676 166.951C227.08 166.502 226.76 166.242 226.76 166.242C226.633 166.133 226.619 165.948 226.723 165.816C226.819 165.7 226.979 165.67 227.102 165.73L227.135 165.745C227.135 165.745 227.508 165.933 228.144 166.279C228.459 166.449 228.84 166.661 229.276 166.903C229.714 167.134 230.263 167.31 230.824 167.559C231.104 167.683 231.398 167.797 231.7 167.936C232.015 168.034 232.341 168.134 232.679 168.235C233.348 168.441 234.049 168.675 234.808 168.802C235.185 168.883 235.562 168.964 235.946 169.04C236.328 169.127 236.734 169.134 237.133 169.188C237.534 169.229 237.933 169.283 238.339 169.331L239.572 169.371C240.391 169.42 241.221 169.358 242.039 169.336C242.855 169.285 243.66 169.19 244.432 169.11C245.207 168.977 245.963 168.889 246.664 168.73C247.373 168.595 248.039 168.433 248.66 168.283C249.275 168.139 249.829 167.959 250.339 167.834C250.831 167.671 251.269 167.55 251.617 167.425C251.965 167.301 252.243 167.211 252.427 167.141C252.611 167.071 252.713 167.034 252.713 167.034C252.885 166.962 253.07 167.047 253.129 167.208C253.179 167.356 253.113 167.51 252.981 167.591L252.997 167.569Z" fill="#689296"/>
</g>
<g style="mix-blend-mode:multiply">
<path d="M242.973 158.511C241.405 161.336 237.311 162.194 233.831 160.426C230.346 158.652 228.792 154.93 230.355 152.099C231.922 149.275 236.017 148.417 239.497 150.184C242.982 151.959 244.535 155.68 242.973 158.511Z" fill="#B8E6F4"/>
</g>
<path d="M245.545 135.107C245.044 136.942 242.785 138.016 240.499 137.497C238.21 136.991 236.758 135.083 237.259 133.249C237.759 131.414 240.019 130.34 242.305 130.859C244.593 131.365 246.046 133.273 245.545 135.107Z" fill="white"/>
<path d="M251.295 138.565C250.654 139.474 249.232 139.611 248.117 138.87C247.002 138.128 246.619 136.791 247.26 135.882C247.901 134.972 249.323 134.835 250.438 135.576C251.553 136.318 251.936 137.655 251.295 138.565Z" fill="white"/>
<path d="M85.9691 224.62C82.0133 225.785 79.7486 229.965 80.9443 233.757C84.2011 244.114 93.101 264.102 115.963 280.994C119.065 283.282 123.562 282.65 126.016 279.472C126.232 279.191 114.82 276.625 99.3456 255.647C82.2779 232.509 86.2513 224.537 85.9623 224.626L85.9691 224.62Z" fill="#40595D"/>
<path d="M109.734 211.922C108.38 213.227 107.31 214.871 106.96 216.93C105.664 224.509 130.802 260.334 140.647 262.85C142.965 263.437 145.016 262.824 146.804 261.546C135.093 261.961 107.755 221.156 109.734 211.922Z" fill="#40595D"/>
<path d="M281.797 111.736C280.416 111.955 279.156 113.074 279.408 114.844C279.608 116.281 281.109 117.355 282.575 117.091C284.035 116.821 285.174 115.237 284.899 113.816C284.58 112.14 283.128 111.524 281.803 111.731L281.797 111.736Z" fill="#507077"/>
<path d="M268.214 97.4557C268.095 97.5266 267.982 97.6041 267.867 97.6932C267.14 98.2543 266.614 99.5922 267.085 100.427C267.738 101.567 269.67 101.78 270.814 101.269C271.893 100.786 272.654 99.4845 272.26 98.4136C271.978 97.6283 271.173 97.1335 270.333 97.028C269.575 96.9311 268.855 97.0642 268.202 97.4544L268.214 97.4557Z" fill="#507077"/>
<path d="M254.196 85.2906C253.652 85.9898 253.617 86.9683 254.28 87.5731C254.905 88.1443 255.842 88.248 256.709 88.1361C257.15 88.075 257.611 87.9564 257.964 87.6837C258.973 86.9141 258.686 85.1817 257.618 84.6001C256.65 84.0764 255.189 84.2751 254.376 85.0891C254.313 85.1481 254.249 85.2187 254.196 85.2906Z" fill="#507077"/>
<path d="M295.017 132.139C294.918 132.236 294.815 132.326 294.699 132.416C293.973 132.977 292.546 133.149 291.857 132.482C290.919 131.563 291.199 129.64 291.983 128.662C292.722 127.739 294.173 127.331 295.11 127.982C295.799 128.453 296.075 129.357 295.965 130.196C295.868 130.954 295.557 131.618 295.015 132.151L295.017 132.139Z" fill="#507077"/>
<path d="M303.253 148.772C302.44 149.122 301.484 148.909 301.066 148.115C300.671 147.366 300.807 146.434 301.134 145.623C301.304 145.212 301.535 144.795 301.888 144.523C302.887 143.74 304.491 144.455 304.785 145.634C305.047 146.704 304.486 148.068 303.494 148.649C303.421 148.695 303.336 148.739 303.253 148.772Z" fill="#507077"/>
<g clip-path="url(#clip2_394_449)">
<path d="M196.611 97.3782C195.376 97.654 194.213 98.3899 193.798 99.1592C192.927 100.771 192.394 104.856 192.579 108.51C192.685 110.495 192.732 110.958 192.985 112.437C194.11 118.919 196.323 123.126 200.768 127.25C201.281 127.727 201.881 128.248 202.107 128.411C202.331 128.567 202.52 128.734 202.525 128.776C202.53 128.813 202.417 129.087 202.268 129.377C201.116 131.691 198.982 139.709 198.211 144.646C197.988 146.094 197.902 146.333 197.454 146.755C196.923 147.249 196.382 147.861 195.413 149.041C193.17 151.785 193.007 152.059 193.123 152.957C193.227 153.765 193.54 154.366 194.303 155.243C194.768 155.782 197.311 157.731 198.268 158.287C199.112 158.777 199.988 159.189 201.137 159.639C201.6 159.82 202.051 160.003 202.136 160.041C202.418 160.166 202.969 160.884 203.809 162.214C204.711 163.635 205.48 164.615 206.465 165.575C206.608 165.717 206.943 166.062 207.208 166.337C209.124 168.379 212.853 171.219 216.046 173.073C218.69 174.609 221.719 175.959 224.583 176.887C227.078 177.695 231.415 178.525 234.509 178.794C234.923 178.827 235.556 178.887 235.919 178.921C237.625 179.084 238.839 179.131 240.931 179.116C241.475 179.107 242.077 179.116 242.264 179.129C242.714 179.158 249.838 178.248 250.552 178.069C250.834 177.996 251.47 177.84 251.964 177.728C252.462 177.608 253.147 177.44 253.494 177.346C253.841 177.252 254.278 177.134 254.471 177.091C255.426 176.857 259.172 175.591 260.366 175.098C261.459 174.643 263.675 173.519 265.012 172.742C265.772 172.299 266.644 171.798 266.945 171.636C267.245 171.468 267.852 171.081 268.288 170.766C268.726 170.457 269.47 169.935 269.936 169.61C270.676 169.102 272.927 167.245 274.053 166.218C274.88 165.47 276.081 164.174 277.149 162.889C277.46 162.516 277.876 162.042 278.073 161.838C278.647 161.24 280.739 158.392 281.399 157.307C281.541 157.067 281.78 156.703 281.914 156.495C282.054 156.285 282.165 156.086 282.161 156.056C282.158 156.031 282.221 155.9 282.298 155.773C282.694 155.142 283.554 153.353 283.905 152.419C284.007 152.153 284.156 151.77 284.23 151.575C284.304 151.381 284.479 150.815 284.614 150.329C284.932 149.19 285.05 148.996 285.656 148.554C286.585 147.879 287.915 146.659 289.002 145.477C289.658 144.756 291.122 142.89 291.109 142.787C291.104 142.75 291.177 142.599 291.269 142.446C291.449 142.157 291.811 141.123 291.893 140.699C291.984 140.2 291.586 139.375 290.97 138.775C290.779 138.59 289.755 137.803 288.702 137.031C286.466 135.394 285.727 134.804 285.514 134.492C285.239 134.089 284.678 133.051 283.191 130.206C281.416 126.806 278.809 122.619 277.223 120.596C276.891 120.182 276.59 119.77 276.554 119.682C276.447 119.431 276.565 119.144 277.053 118.507C277.895 117.394 278.124 117.006 279.473 114.346C279.977 113.356 280.386 112.155 281.014 109.81C281.384 108.449 281.722 106.499 281.783 105.43C281.787 105.275 281.809 104.914 281.827 104.622C281.905 103.255 281.872 102.173 281.684 100.476C281.536 99.1309 281.451 98.6115 281.297 97.9955C281.186 97.5655 281.027 96.9071 280.947 96.5286C280.582 94.8912 280.152 93.4227 279.559 91.8019C278.882 89.9579 278.415 89.0675 277.704 88.2644C277.292 87.8051 277.196 87.7373 276.771 87.5574C275.875 87.1914 275.732 87.1853 273.374 87.4945C271.51 87.7343 271.237 87.7818 270.619 87.9844C270.245 88.1066 269.774 88.2536 269.577 88.3096C268.484 88.6291 266.473 89.5106 264.94 90.3497C263.458 91.1572 261.165 92.6922 260.445 93.3526C260.295 93.489 259.784 93.9435 259.305 94.3632C258.826 94.7765 258.267 95.2987 258.054 95.5177C257.846 95.7354 257.559 96.007 257.426 96.1292C256.92 96.5769 255.841 97.8693 254.927 99.1406C254.406 99.8555 253.754 100.76 253.48 101.135C253.207 101.515 252.9 101.974 252.806 102.153C252.712 102.338 252.557 102.531 252.466 102.591C252.311 102.691 252.261 102.686 251.613 102.46C250.206 101.975 248.621 101.642 246.328 101.345C244.036 101.053 243.636 101.03 241.518 101.081C240.172 101.112 236.826 101.437 235.223 101.693C232.796 102.085 232.488 102.149 231.624 102.415C231.362 102.498 231.05 102.575 230.934 102.59C230.697 102.62 229.618 102.95 228.819 103.238C228.316 103.42 227.66 103.671 226.281 104.212C225.473 104.532 223.521 105.585 222.667 106.164C222.28 106.43 221.93 106.648 221.887 106.653C221.851 106.658 221.691 106.524 221.533 106.353C221.381 106.181 221.125 105.924 220.971 105.79C220.538 105.407 220.087 104.984 219.702 104.589C219.203 104.08 218.088 103.211 217.223 102.656C216.819 102.399 216.216 102.002 215.896 101.771C215.221 101.297 214.554 100.926 213.187 100.263C209.8 98.6376 206.624 97.6393 203.602 97.2565C201.694 97.0146 200.468 96.9687 199.102 97.0888C198.63 97.131 198 97.1876 197.693 97.2145C197.393 97.2406 196.901 97.3163 196.612 97.3781L196.611 97.3782Z" fill="#A0A0A0"/>
<path d="M203.01 126.645C203.01 126.645 217.881 111.099 222.713 109.027C227.545 106.955 195.794 92.2483 193.559 98.5629C191.323 104.877 192.242 124.258 203.01 126.645L203.01 126.645Z" fill="#7B7C7C"/>
<path d="M275.931 117.267C275.931 117.267 257.611 105.989 252.412 105.207C247.213 104.425 274.21 82.1632 277.97 87.7067C281.73 93.2502 285.745 112.233 275.932 117.266L275.931 117.267Z" fill="#7B7C7C"/>
<path d="M201.607 139.95C201.607 139.95 209.779 123.993 222.841 122.479C235.902 120.964 236.747 133.843 241.248 133.185C245.75 132.526 251.85 117.565 258.055 117.948C264.26 118.332 282.089 124.452 284.524 135.451C286.958 146.451 277.639 167.955 245.752 172.055C213.866 176.156 199.717 154.48 199.717 154.48L198.903 148.156L201.607 139.95L201.607 139.95Z" fill="white"/>
<path d="M195.451 96.5211C194.188 96.8033 192.998 97.5562 192.573 98.3432C191.682 99.9915 191.135 104.171 191.324 107.908C191.433 109.939 191.481 110.413 191.74 111.926C192.891 118.557 195.156 122.861 199.704 127.079C200.23 127.566 200.844 128.1 201.074 128.266C201.304 128.426 201.497 128.596 201.503 128.64C201.507 128.677 201.391 128.957 201.239 129.255C200.06 131.622 197.876 139.824 197.086 144.874C196.858 146.355 196.77 146.6 196.312 147.032C195.768 147.537 195.215 148.163 194.222 149.37C191.927 152.177 191.76 152.457 191.879 153.376C191.985 154.202 192.305 154.817 193.086 155.714C193.562 156.265 196.165 158.259 197.144 158.827C198.007 159.329 198.904 159.75 200.079 160.211C200.553 160.396 201.015 160.583 201.102 160.622C201.391 160.749 201.955 161.484 202.814 162.845C203.737 164.298 204.525 165.301 205.532 166.282C205.678 166.428 206.021 166.781 206.292 167.062C208.253 169.151 212.069 172.056 215.337 173.953C218.043 175.523 221.143 176.904 224.073 177.853C226.627 178.68 231.065 179.529 234.232 179.803C234.655 179.838 235.303 179.899 235.675 179.934C237.421 180.1 238.664 180.149 240.804 180.132C241.361 180.124 241.977 180.133 242.169 180.146C242.629 180.175 249.92 179.244 250.65 179.062C250.939 178.987 251.59 178.827 252.095 178.712C252.605 178.589 253.306 178.417 253.662 178.321C254.017 178.225 254.464 178.104 254.661 178.06C255.638 177.821 259.472 176.526 260.694 176.022C261.813 175.556 264.08 174.406 265.449 173.611C266.227 173.158 267.119 172.645 267.427 172.48C267.734 172.308 268.356 171.912 268.802 171.589C269.25 171.273 270.012 170.739 270.489 170.407C271.246 169.887 273.55 167.987 274.702 166.936C275.548 166.171 276.778 164.845 277.871 163.531C278.189 163.149 278.615 162.665 278.817 162.456C279.404 161.844 281.545 158.93 282.22 157.821C282.366 157.575 282.61 157.203 282.747 156.99C282.891 156.775 283.004 156.571 283 156.541C282.997 156.515 283.062 156.381 283.141 156.251C283.546 155.606 284.426 153.775 284.785 152.82C284.889 152.548 285.042 152.156 285.118 151.957C285.193 151.758 285.373 151.18 285.511 150.682C285.837 149.517 285.957 149.318 286.578 148.866C287.528 148.176 288.889 146.928 290.002 145.718C290.674 144.981 292.172 143.072 292.158 142.966C292.153 142.929 292.228 142.774 292.322 142.617C292.506 142.322 292.877 141.264 292.961 140.831C293.054 140.32 292.647 139.476 292.017 138.863C291.821 138.673 290.773 137.868 289.695 137.078C287.407 135.403 286.652 134.8 286.433 134.481C286.151 134.069 285.577 133.007 284.056 130.097C282.239 126.619 279.571 122.336 277.948 120.266C277.609 119.843 277.301 119.422 277.264 119.332C277.155 119.075 277.276 118.781 277.775 118.13C278.637 116.991 278.871 116.594 280.252 113.873C280.768 112.86 281.187 111.632 281.829 109.233C282.208 107.84 282.554 105.845 282.616 104.752C282.621 104.593 282.643 104.224 282.662 103.925C282.742 102.527 282.707 101.42 282.516 99.6838C282.364 98.3083 282.277 97.777 282.12 97.1468C282.006 96.7069 281.843 96.0334 281.762 95.6463C281.388 93.9712 280.947 92.469 280.341 90.8111C279.649 88.9247 279.17 88.0139 278.443 87.1924C278.021 86.7226 277.924 86.6533 277.488 86.4692C276.571 86.0948 276.425 86.0886 274.012 86.405C272.104 86.6505 271.825 86.6991 271.193 86.9064C270.809 87.0314 270.327 87.1819 270.126 87.2391C269.008 87.5661 266.949 88.4679 265.38 89.3263C263.863 90.1524 261.517 91.7229 260.78 92.3985C260.626 92.538 260.103 93.0029 259.613 93.4323C259.122 93.8552 258.551 94.3893 258.332 94.6134C258.12 94.8362 257.826 95.114 257.69 95.239C257.172 95.697 256.068 97.0192 255.132 98.3197C254.599 99.051 253.932 99.9761 253.651 100.36C253.372 100.749 253.058 101.218 252.961 101.401C252.865 101.59 252.707 101.788 252.613 101.85C252.455 101.952 252.404 101.946 251.74 101.716C250.3 101.219 248.678 100.879 246.332 100.575C243.986 100.277 243.577 100.254 241.41 100.305C240.032 100.337 236.607 100.67 234.967 100.931C232.483 101.333 232.168 101.399 231.284 101.67C231.016 101.755 230.696 101.834 230.578 101.85C230.335 101.881 229.231 102.218 228.413 102.513C227.898 102.699 227.227 102.956 225.815 103.51C224.989 103.837 222.991 104.914 222.117 105.506C221.72 105.778 221.362 106.001 221.319 106.007C221.281 106.011 221.118 105.875 220.956 105.7C220.8 105.524 220.538 105.261 220.381 105.124C219.938 104.732 219.477 104.299 219.082 103.896C218.572 103.374 217.431 102.486 216.546 101.918C216.132 101.655 215.515 101.249 215.187 101.013C214.497 100.528 213.815 100.148 212.415 99.47C208.949 97.8077 205.699 96.7867 202.606 96.3953C200.653 96.148 199.398 96.1011 198.001 96.224C197.518 96.2672 196.873 96.3251 196.559 96.3526C196.252 96.3793 195.749 96.4569 195.452 96.52L195.451 96.5211ZM275.738 89.5284C276.138 89.8747 277.236 92.0563 277.697 93.4233C278.403 95.5101 279.053 98.7402 279.196 100.843C279.336 102.964 279.138 105.565 278.67 107.689C278.378 109.02 277.657 111.203 277.087 112.488C276.316 114.228 275.313 116.093 275.108 116.17C274.914 116.245 274.893 116.229 274.563 115.728C274.202 115.188 273.294 114.143 273.023 113.957C272.752 113.778 272.519 113.492 272.497 113.318C272.485 113.225 272.561 113.133 272.778 112.992C273.215 112.695 273.525 112.29 273.912 111.508C274.593 110.151 275.044 108.427 275.329 106.061C275.616 103.708 275.591 102.727 275.195 99.6468C274.925 97.5925 274.848 97.1479 274.733 96.8976C274.655 96.7311 274.582 96.5067 274.567 96.3949C274.554 96.2892 274.523 96.1984 274.498 96.2016C274.467 96.2057 274.25 96.1896 274 96.1711C272.904 96.0786 271.127 96.5088 269.242 97.3259C266.667 98.4463 264.502 100.296 262.068 103.456C261.639 104.009 261.481 104.264 260.938 105.267C260.432 106.21 260.069 107.38 260.132 107.871C260.172 108.181 260.465 108.396 261.441 108.832C263.754 109.86 265.37 111.041 268.128 113.703C269.678 115.208 272.639 118.709 274.118 120.804C274.83 121.804 276.312 124.107 276.867 125.071C277.39 125.982 277.834 126.625 278.265 127.113C278.903 127.838 279.368 128.593 280.506 130.788C281.401 132.522 282.133 134.031 282.153 134.186C282.161 134.242 282.141 134.289 282.117 134.293C282.092 134.296 281.777 134.115 281.418 133.89C281.059 133.664 280.382 133.278 279.913 133.029C277.587 131.801 277.13 131.551 275.89 130.833C272.836 129.067 272.204 128.738 270.109 127.777C267.361 126.52 265.371 125.836 263.211 125.407C260.699 124.903 258.679 124.866 255.521 125.253C254.049 125.443 253.783 125.49 253.076 125.713C250.656 126.466 249.593 127.07 246.271 129.58C244.178 131.156 243.434 131.624 242.732 131.79C242.48 131.848 241.998 131.992 241.664 132.111C240.797 132.412 239.704 132.59 239.033 132.55C238.63 132.526 238.48 132.539 238.418 132.597C238.246 132.79 236.703 132.275 234.655 131.339C231.073 129.711 229.793 129.263 228.184 129.079C226.298 128.861 223.854 129.124 221.043 129.846C217.433 130.764 215.236 131.968 210.897 135.392C209.095 136.81 208.296 137.544 206.474 139.445C205.563 140.395 203.49 142.417 202.588 143.239C202.094 143.688 201.442 144.289 200.894 144.814L200.73 144.968L200.737 144.676C200.761 143.777 201.092 141.968 201.606 139.951C202.079 138.104 202.343 137.249 202.552 136.901C202.745 136.579 202.843 136.257 203.049 135.246C203.266 134.177 203.473 133.469 204.047 131.817C204.305 131.064 204.549 130.351 204.579 130.234C204.762 129.585 205.619 127.973 206.421 126.765C207.006 125.894 207.51 124.883 208.039 123.527C208.55 122.218 208.856 121.598 209.516 120.516C210.49 118.92 212.736 116.321 214.624 114.589C214.998 114.244 215.336 113.916 215.366 113.856C215.477 113.677 215.399 113.372 215.084 112.794C214.584 111.861 214.102 111.273 212.992 110.235C211.977 109.287 211.075 108.639 209.625 107.815C207.06 106.352 204.661 105.544 202.408 105.373C201.684 105.315 201.42 105.33 200.384 105.457C199.049 105.622 199.067 105.613 198.895 106.109C198.78 106.439 198.734 106.925 198.757 107.647L198.774 108.119L198.68 107.733C198.594 107.359 198.475 107.173 198.393 107.278C198.365 107.306 198.369 107.584 198.396 107.896L198.45 108.463L198.609 108.411C198.797 108.349 198.781 108.269 198.921 110.056C199.05 111.599 199.382 113.487 199.72 114.593C200.308 116.499 201.571 118.829 202.766 120.185C203.249 120.741 204.537 121.831 204.757 121.866C204.938 121.899 204.923 121.977 204.669 122.37C204.141 123.189 203.39 124.945 203.344 125.469C203.339 125.583 203.309 125.694 203.286 125.71C203.24 125.747 202.159 124.788 201.603 124.209C201.405 124.001 200.812 123.332 200.284 122.725C198.105 120.222 196.747 117.651 195.779 114.216C195.135 111.919 194.744 108.132 194.886 105.494C194.947 104.293 195.331 101.606 195.611 100.44L195.746 99.8603L196.77 99.7348C199.192 99.4423 201.911 99.591 204.303 100.148C206.937 100.763 210.034 101.924 211.888 102.985C213.258 103.775 215.175 105.175 216.785 106.559C218.033 107.635 218.153 107.778 218.217 108.274C218.301 108.932 218.869 109.945 219.541 110.635C219.731 110.832 219.877 110.927 219.964 110.916C220.039 110.906 220.361 110.7 220.679 110.464C222.323 109.243 223.037 108.784 224.432 108.05C227.269 106.549 229.617 105.679 233.146 104.821C235.027 104.365 239.65 103.89 242.292 103.878C245.138 103.872 248.53 104.414 251.63 105.36C253.959 106.07 255.016 106.345 255.296 106.309C255.502 106.282 255.701 106.01 255.861 105.523C256.008 105.093 256.019 104.978 255.966 104.373C255.907 103.617 255.896 103.675 256.387 102.665C256.837 101.73 257.128 101.276 258.076 100.024C259.647 97.9478 261.777 95.875 264.05 94.2255C265.163 93.4136 265.984 92.9036 267.369 92.1831C268.924 91.3643 270.145 90.8476 271.53 90.4299C271.981 90.29 274.968 89.5584 275.518 89.4498C275.573 89.4365 275.667 89.4746 275.737 89.529L275.738 89.5284ZM221.963 134.927C222.65 134.946 223.044 135.002 223.443 135.147C223.807 135.27 224.233 135.569 224.348 135.775C224.445 135.939 224.464 135.943 225.152 135.918C226.288 135.879 227.207 136.177 228.15 136.902C229.831 138.188 230.433 139.865 229.859 141.612C229.593 142.403 229.212 142.844 228.298 143.422C227.112 144.161 225.863 144.354 224.767 143.964C224.03 143.706 223.165 142.996 222.741 142.306C222.066 141.2 221.908 139.529 222.364 138.239C222.457 137.975 222.573 137.695 222.621 137.626C222.7 137.502 222.699 137.495 222.587 137.554C222.521 137.588 222.183 137.72 221.832 137.847C220.045 138.493 218.725 139.37 217.86 140.485C216.849 141.789 216.384 143.105 216.351 144.719C216.322 145.972 216.485 146.753 217.014 147.903C217.593 149.154 218.377 150.12 219.536 150.999C221.501 152.482 223.963 152.892 226.105 152.099C227.611 151.539 229.101 150.451 229.981 149.265C230.743 148.233 231.155 147.006 231.429 144.944C231.603 143.634 231.623 143.594 232.057 143.917C232.5 144.251 232.686 144.612 232.763 145.309C232.846 146.056 232.812 146.874 232.664 147.449C232.327 148.774 231.766 149.982 231.133 150.732C229.569 152.612 226.973 154.562 225.434 155.019C224.347 155.342 222.609 155.382 221.199 155.115C220.602 155.003 219.354 154.564 218.636 154.208C217.938 153.862 216.948 153.163 216.364 152.613C215.18 151.497 214.064 149.664 213.561 148.025C213.123 146.585 213.029 144.527 213.328 142.86C213.456 142.124 213.986 140.579 214.372 139.785C215.099 138.29 216.362 136.973 218.022 135.976C219.21 135.262 220.602 134.894 221.963 134.927ZM261.225 129.878C262.086 129.918 262.695 130.017 263.388 130.237C265.57 130.934 267.528 132.456 268.916 134.525C270.64 137.086 271.136 140.052 270.335 142.939C270.096 143.796 269.744 144.707 269.391 145.358C268.889 146.293 267.844 147.526 266.996 148.184C266.195 148.805 264.339 149.7 263.163 150.022C261.584 150.464 259.651 150.322 257.59 149.627C256.112 149.123 255.005 148.451 254.116 147.499C252.624 145.905 251.653 144.224 251.391 142.775C251.259 142.047 251.279 141.811 251.521 141.571C251.863 141.224 252.335 141.442 252.546 142.045C252.859 142.952 253.759 144.427 254.53 145.3C255.784 146.722 256.714 147.297 258.305 147.642C259.497 147.892 260.4 147.909 261.347 147.686C263.163 147.263 264.632 146.311 265.658 144.878C266.664 143.48 267.013 142.4 267.108 140.476C267.142 139.802 267.126 139.634 267.005 139.132C266.633 137.621 265.91 136.287 264.859 135.167C263.611 133.837 261.831 133.012 259.684 132.784C259.311 132.743 258.892 132.689 258.755 132.657C258.612 132.625 258.496 132.614 258.497 132.62C258.499 132.633 258.635 132.704 258.802 132.777C259.17 132.925 259.469 133.228 259.819 133.782C260.24 134.441 260.393 134.844 260.467 135.466C260.66 137.019 259.981 138.735 258.879 139.483C258.04 140.058 256.947 140.286 256.002 140.086C255.006 139.88 253.994 139.354 253.522 138.789C252.766 137.896 252.532 136.367 252.967 135.212C253.5 133.793 254.391 132.833 256.528 131.359C257.39 130.768 257.988 130.439 258.632 130.217C259.172 130.028 260.53 129.847 261.225 129.878ZM243.855 147.518C245.329 147.544 247.717 147.924 248.884 148.323C249.726 148.607 250.093 148.85 251.431 149.99C252.563 150.956 254.156 152.101 255.134 152.657C256.234 153.28 258.729 154.385 260.209 154.902C262.358 155.648 264.477 156.051 266.654 156.124C268.303 156.177 268.851 156.151 270.31 155.963C271.77 155.776 272.41 155.63 274.308 155.052C274.886 154.87 275.481 154.711 275.631 154.692C275.88 154.66 277.899 154.091 278.569 153.733C278.901 153.552 279.594 153.122 280.114 152.784C280.629 152.446 281.068 152.162 281.08 152.161C281.167 152.149 280.432 153.822 279.932 154.77C279.346 155.881 278.343 157.594 277.917 158.223C276.629 160.093 274.832 162.186 273.107 163.809C272.327 164.547 270.647 166.025 269.993 166.557C266.973 168.997 262.78 171.499 259.25 172.976C256.301 174.207 255.432 174.496 252.317 175.262C248.538 176.196 244.032 176.7 239.224 176.725C236.678 176.737 234.161 176.493 230.815 175.907C227.891 175.399 225.047 174.585 222.181 173.444C219.622 172.423 217.895 171.515 215.363 169.865C214.443 169.27 211.741 167.188 210.883 166.427C209.291 164.997 207.447 162.779 207.648 162.52C207.663 162.492 207.94 162.526 208.259 162.586C208.917 162.723 212.792 162.691 212.809 162.67C212.819 162.65 212.908 162.658 213 162.677C213.543 162.809 215.54 162.811 217.165 162.684C218.81 162.561 221.099 162.021 222.674 161.402C225.267 160.368 228.626 158.294 230.925 156.307C232.026 155.352 232.47 154.859 234.142 152.731C235.799 150.631 236.123 150.292 237.136 149.639C238.103 149.022 239.837 148.218 240.936 147.887C241.589 147.69 243.061 147.501 243.855 147.518L243.855 147.518Z" fill="black"/>
<path d="M235.839 108.01C235.653 108.09 235.582 108.175 235.506 108.38C235.423 108.618 235.429 108.763 235.579 109.886C235.715 110.891 235.786 111.242 235.954 111.718C236.314 112.739 236.488 112.861 237.429 112.734C238.04 112.65 238.421 112.512 238.594 112.326C238.793 112.098 238.798 111.397 238.602 109.876C238.406 108.355 238.263 107.786 238.066 107.729C237.856 107.674 236.097 107.894 235.839 108.01Z" fill="black"/>
<path d="M241.895 108.026C241.625 108.098 241.62 108.105 241.578 108.42C241.546 108.614 241.583 109.247 241.664 110.025C241.846 111.788 241.998 112.128 242.728 112.387C243.1 112.516 243.778 112.518 244.192 112.382C244.46 112.297 244.507 112.172 244.623 111.342C244.791 110.141 244.741 108.519 244.52 108.13C244.323 107.777 243.017 107.731 241.895 108.026L241.895 108.026Z" fill="black"/>
<path d="M231.01 109.646C229.926 110.089 229.847 110.219 230.039 111.318C230.217 112.355 230.628 113.23 231.09 113.575C231.448 113.844 231.796 113.888 232.749 113.803C233.437 113.733 233.61 113.698 233.664 113.622C233.911 113.231 233.408 110.209 232.996 109.612C232.747 109.253 231.943 109.261 231.01 109.646Z" fill="black"/>
<path d="M253.833 115.826C253.636 115.914 253.381 116.054 253.27 116.132C252.979 116.333 252.423 117.086 252.303 117.436C252.084 118.095 252.209 118.919 252.648 119.67C253.081 120.423 253.374 120.536 254.279 120.325C254.586 120.254 255.162 120.149 255.562 120.097C256.453 119.983 257.031 120.041 258.208 120.363C259.299 120.664 259.48 120.648 259.786 120.217C260.185 119.667 260.45 118.724 260.375 118.14C260.34 117.867 259.828 117.093 259.436 116.708C258.836 116.129 257.835 115.689 256.765 115.55C255.913 115.432 254.397 115.576 253.833 115.826Z" fill="black"/>
<path d="M221.778 120.03C221.142 120.163 220.409 120.427 219.962 120.699C219.009 121.276 218.155 122.516 218.041 123.503C217.997 123.9 218.004 123.962 218.155 124.391C218.373 125.006 218.835 125.685 219.146 125.841C219.445 125.992 219.56 125.952 220.387 125.435C220.739 125.213 221.175 124.955 221.359 124.862C222.23 124.434 223.246 124.196 224.333 124.176C225.263 124.158 225.327 124.118 225.597 123.459C226.047 122.372 226.032 121.667 225.56 120.996C225.112 120.372 224.457 120.014 223.609 119.921C222.959 119.847 222.562 119.872 221.778 120.03Z" fill="black"/>
<path d="M242.241 151.135C240.269 151.527 238.6 152.297 237.975 153.11C237.431 153.811 237.221 154.785 237.403 155.759C237.566 156.634 237.999 157.436 238.716 158.184C239.521 159.021 240.389 159.458 242.108 159.913C242.81 160.094 242.873 160.388 242.427 161.355C241.75 162.843 240.58 163.606 239.24 163.437C238.132 163.302 237.227 162.674 236.364 161.434C236.117 161.087 235.847 160.762 235.759 160.723C235.563 160.628 234.988 160.74 234.552 160.954C233.891 161.285 233.5 162.042 233.669 162.664C233.898 163.506 235.314 165.003 236.525 165.692C237.967 166.504 239.867 166.733 241.335 166.273C242.23 165.988 242.873 165.564 243.854 164.611C244.153 164.327 244.453 164.048 244.522 163.995C244.673 163.887 244.654 163.883 245.471 164.422C247.258 165.6 249.231 165.908 250.737 165.247C252.49 164.479 253.989 162.98 254.832 161.148C255.143 160.464 255.183 160.137 254.992 159.783C254.775 159.376 254.282 158.997 253.737 158.802C252.855 158.499 252.662 158.625 251.74 160.126C251.095 161.18 250.859 161.463 250.411 161.723C249.303 162.377 248.063 162.397 247.146 161.77C246.451 161.298 245.624 160.085 245.735 159.717C245.762 159.632 246.113 159.309 246.586 158.945C247.71 158.069 248.299 157.38 248.804 156.331C249.121 155.691 249.263 155.111 249.298 154.349C249.318 153.765 249.308 153.685 249.155 153.237C248.588 151.594 247.227 150.815 245.028 150.871C244.295 150.889 242.73 151.04 242.241 151.135ZM245.053 152.793C245.483 152.927 245.621 153.067 245.613 153.352C245.601 153.65 245.408 153.972 245.065 154.262C244.395 154.822 243.106 155.297 242.365 155.253C242.014 155.235 241.6 155.118 241.26 154.941C241.021 154.813 240.589 154.308 240.446 153.985C240.338 153.74 240.335 153.715 240.453 153.599C240.693 153.347 242.04 153.023 243.633 152.837C244.625 152.715 244.79 152.713 245.053 152.793Z" fill="black"/>
</g>
<g clip-path="url(#clip3_394_449)">
<path d="M198 140.438L198.818 146.41L201.6 146.029L202.009 149.014L204.794 148.633L205.203 151.62L207.985 151.239L208.394 154.224L211.179 153.842L211.588 156.829L228.287 154.542L227.878 151.555L230.662 151.174L230.253 148.188L233.036 147.807L232.627 144.82L235.411 144.439L235.002 141.454L237.785 141.072L237.376 138.085L242.942 137.323L243.352 140.31L246.134 139.929L246.543 142.914L249.328 142.533L249.737 145.52L252.519 145.138L252.928 148.124L255.713 147.742L256.122 150.729L272.821 148.442L272.412 145.455L275.196 145.073L274.787 142.088L277.57 141.707L277.16 138.72L279.943 138.339L279.534 135.354L282.319 134.972L281.5 129L198 140.438Z" fill="#1D1D1B"/>
<path d="M213.143 147.489L210.361 147.87L210.77 150.855L213.552 150.474L213.143 147.489Z" fill="white"/>
<path d="M216.335 150.095L213.552 150.476L213.961 153.461L216.744 153.08L216.335 150.095Z" fill="white"/>
<path d="M215.517 144.123L212.734 144.504L213.143 147.489L215.926 147.108L215.517 144.123Z" fill="white"/>
<path d="M218.71 146.727L215.927 147.108L216.336 150.093L219.119 149.712L218.71 146.727Z" fill="white"/>
<path d="M221.902 149.332L219.119 149.714L219.528 152.699L222.311 152.318L221.902 149.332Z" fill="white"/>
<path d="M212.325 141.517L209.542 141.898L209.951 144.883L212.734 144.502L212.325 141.517Z" fill="white"/>
<path d="M257.677 141.389L254.895 141.77L255.303 144.755L258.086 144.374L257.677 141.389Z" fill="white"/>
<path d="M260.869 143.995L258.086 144.376L258.495 147.361L261.278 146.98L260.869 143.995Z" fill="white"/>
<path d="M260.051 138.022L257.268 138.404L257.677 141.389L260.46 141.008L260.051 138.022Z" fill="white"/>
<path d="M263.242 140.626L260.46 141.008L260.869 143.993L263.651 143.612L263.242 140.626Z" fill="white"/>
<path d="M266.436 143.232L263.653 143.613L264.062 146.598L266.845 146.217L266.436 143.232Z" fill="white"/>
<path d="M256.859 135.417L254.076 135.798L254.485 138.783L257.268 138.402L256.859 135.417Z" fill="white"/>
</g>
</g>
<defs>
<radialGradient id="paint0_radial_394_449" cx="0" cy="0" r="1" gradientUnits="userSpaceOnUse" gradientTransform="translate(104.657 251.401) rotate(3.78819) scale(93.8596)">
<stop stop-color="#FAD31F"/>
<stop offset="1" stop-color="#F79A34"/>
</radialGradient>
<radialGradient id="paint1_radial_394_449" cx="0" cy="0" r="1" gradientUnits="userSpaceOnUse" gradientTransform="translate(106.309 252.084) rotate(3.78819) scale(65.7785 65.7785)">
<stop stop-color="#FFF154"/>
<stop offset="1" stop-color="#FAD31F"/>
</radialGradient>
<radialGradient id="paint2_radial_394_449" cx="0" cy="0" r="1" gradientUnits="userSpaceOnUse" gradientTransform="translate(112.748 247.809) rotate(52.1382) scale(46.6096 46.6096)">
<stop stop-color="white"/>
<stop offset="1" stop-color="#FFF154"/>
</radialGradient>
<linearGradient id="paint3_linear_394_449" x1="207.078" y1="260.663" x2="145.048" y2="282.333" gradientUnits="userSpaceOnUse">
<stop stop-color="#FFFF1A"/>
<stop offset="1" stop-color="#8EB326"/>
</linearGradient>
<linearGradient id="paint4_linear_394_449" x1="92.3564" y1="219.085" x2="134.274" y2="273.327" gradientUnits="userSpaceOnUse">
<stop stop-color="#567880"/>
<stop offset="0.42" stop-color="#4E6D74"/>
<stop offset="1" stop-color="#40595D"/>
</linearGradient>
<linearGradient id="paint5_linear_394_449" x1="114.058" y1="208.457" x2="151.993" y2="257.546" gradientUnits="userSpaceOnUse">
<stop stop-color="#567880"/>
<stop offset="0.42" stop-color="#4E6D74"/>
<stop offset="1" stop-color="#40595D"/>
</linearGradient>
<linearGradient id="paint6_linear_394_449" x1="117.889" y1="151.899" x2="90.8284" y2="199.179" gradientUnits="userSpaceOnUse">
<stop stop-color="#FFFF1A"/>
<stop offset="1" stop-color="#7A9920"/>
</linearGradient>
<linearGradient id="paint7_linear_394_449" x1="199.32" y1="106.974" x2="268.431" y2="196.406" gradientUnits="userSpaceOnUse">
<stop stop-color="#8EBBB6"/>
<stop offset="1" stop-color="#7BA4A3"/>
</linearGradient>
<linearGradient id="paint8_linear_394_449" x1="286.156" y1="61.0368" x2="334.398" y2="123.463" gradientUnits="userSpaceOnUse">
<stop stop-color="#FFFF1A"/>
<stop offset="1" stop-color="#8EB326"/>
</linearGradient>
<radialGradient id="paint9_radial_394_449" cx="0" cy="0" r="1" gradientUnits="userSpaceOnUse" gradientTransform="translate(250.478 126.301) rotate(52.3038) scale(43.8248 45.9344)">
<stop stop-color="#507077"/>
<stop offset="1" stop-color="#40595D"/>
</radialGradient>
<radialGradient id="paint10_radial_394_449" cx="0" cy="0" r="1" gradientUnits="userSpaceOnUse" gradientTransform="translate(242.3 136.757) rotate(52.3038) scale(25.75 26.9895)">
<stop stop-color="#68E7F7"/>
<stop offset="1" stop-color="#55BDED"/>
</radialGradient>
<clipPath id="clip0_394_449">
<rect width="86.027" height="115.357" fill="white" transform="translate(91.0737 211.815) rotate(52.1382)"/>
</clipPath>
<clipPath id="clip1_394_449">
<rect width="179.014" height="308.745" fill="white" transform="translate(283.914) rotate(52.3038)"/>
</clipPath>
<clipPath id="clip2_394_449">
<rect width="102" height="89" fill="white" transform="translate(184.74 97.8688) rotate(-7.32829)"/>
</clipPath>
<clipPath id="clip3_394_449">
<rect width="84.2804" height="18.0839" fill="white" transform="translate(198 140.438) rotate(-7.79991)"/>
</clipPath>
</defs>
</svg>
