<svg width="311" height="277" viewBox="0 0 311 277" fill="none" xmlns="http://www.w3.org/2000/svg">
<g clip-path="url(#clip0_87_544)">
<path d="M77.2333 186.306C77.2333 186.306 64.4686 178.963 48.3468 186.727C32.2217 194.493 27.9967 209.396 27.9967 209.396C27.9967 209.396 35.0025 205.866 40.2615 206.51C40.2615 206.51 22.0714 220.73 23.9305 253.946C23.9305 253.946 29.6995 250.969 44.4026 249.374C58.429 247.855 65.2364 239.82 65.2364 239.82C65.2364 239.82 62.7169 249.476 58.2429 252.123C58.2429 252.123 75.3902 254.148 85.8807 241.673C96.3687 229.195 97.1502 214.656 95.5619 207.506C93.9768 200.354 77.2358 186.309 77.2358 186.309L77.2333 186.306Z" fill="url(#paint0_radial_87_544)"/>
<path d="M78.7389 190.265C78.7389 190.265 60.5632 186.44 47.1806 199.988C47.1806 199.988 51.8408 203.463 59.1777 204.138C59.1777 204.138 43.7819 213.857 40.5882 235.316C40.5882 235.316 49.1902 236.638 55.8141 234.849C67.7264 231.639 71.4714 225.705 71.4714 225.705C71.4714 225.705 72.0879 232.34 69.7632 236.111C69.7632 236.111 88.7905 234.61 93.0058 209.536C97.6365 181.952 78.7422 190.262 78.7422 190.262L78.7389 190.265Z" fill="url(#paint1_radial_87_544)"/>
<path d="M83.2857 192.457C76.8831 192.882 72.7678 197.707 70.8431 201.59C68.1662 206.985 67.6375 210.826 64.3864 215.931C73.9841 216.007 88.2844 215.821 92.3165 203.386C92.9664 193.273 90.5525 190.005 86.8139 189.016C84.1562 188.858 86.1779 192.262 83.2857 192.457Z" fill="url(#paint2_radial_87_544)"/>
</g>
<g clip-path="url(#clip1_87_544)">
<path d="M166.001 184.89C166.001 184.89 181.057 231.916 121.463 250.876C121.463 250.876 132.198 238.873 130.386 222.497C129.312 212.801 124.304 209.665 124.304 209.665C122.21 195.736 153.009 171.234 166 184.899L166.001 184.89Z" fill="url(#paint3_linear_87_544)"/>
<g style="mix-blend-mode:multiply">
<path d="M166.001 184.89C166.001 184.89 166.99 187.996 167.46 192.924C158.915 197.151 145.188 204.461 140.255 213.384C135.361 222.245 137.332 233.501 130.512 242.772C128.138 245.913 125.502 248.294 122.718 250.461C122.295 250.6 121.89 250.742 121.463 250.876C121.463 250.876 132.198 238.873 130.386 222.497C129.312 212.801 124.304 209.665 124.304 209.665C122.21 195.736 153.009 171.234 166 184.899L166.001 184.89Z" fill="#FFFF1A"/>
</g>
<path d="M154.2 226.843C160.468 223.126 166.96 207.837 164.86 201.776C164.473 200.654 163.066 200.296 162.078 201.043C157.264 204.682 161.1 215.615 154.2 226.843Z" fill="#FFFF39"/>
<path d="M88.5176 173.058C88.5176 173.058 80.6867 173.59 67.884 177.367C64.7604 178.287 63.9668 181.048 64.911 184.042C67.4827 192.22 73.8229 207.269 91.8852 220.608C94.334 222.415 97.5686 223.189 99.5101 220.685C103.943 214.948 110.886 204.528 110.028 196.397C108.785 184.554 88.5216 173.063 88.5216 173.063L88.5176 173.058Z" fill="url(#paint4_linear_87_544)"/>
<path opacity="0.2" d="M110.034 196.393C109.765 193.841 110.127 193.855 108.483 191.451C105.337 203.55 99.0909 216.011 91.7465 219.997C92.0599 220.236 92.3494 220.478 92.6683 220.713C95.1171 222.52 97.574 223.185 99.5061 220.68C103.939 214.943 110.882 204.523 110.024 196.392L110.034 196.393Z" fill="white"/>
<path d="M92.7959 175.77C82.0884 177.12 66.049 179.888 66.5818 187.389C67.6599 190.124 69.1283 193.309 71.1124 196.74C77.1879 188.477 86.9927 184.264 96.9847 178.82C95.4836 177.653 94.0427 176.619 92.7959 175.77Z" fill="#689296"/>
<path d="M94.0578 163.714C94.0578 163.714 85.4833 165.31 84.4593 171.295C83.4354 177.279 103.285 205.568 111.059 207.554C118.835 209.532 122.904 194.408 122.904 194.408C122.904 194.408 113.143 159.826 94.0564 163.723L94.0578 163.714Z" fill="url(#paint5_linear_87_544)"/>
<path opacity="0.2" d="M105.474 203.827C107.628 205.805 109.566 207.173 111.061 207.545C118.836 209.522 122.905 194.399 122.905 194.399C122.905 194.399 122.164 191.779 120.695 188.072C117.442 195.812 114.17 203.64 105.474 203.827Z" fill="white"/>
<path d="M117.031 121.521C117.031 121.521 75.3223 95.0923 41.946 147.978C41.946 147.978 56.2678 140.618 71.6578 146.501C80.7693 149.985 82.5408 155.622 82.5408 155.622C95.4912 161.161 126.969 137.538 117.022 121.52L117.031 121.521Z" fill="url(#paint6_linear_87_544)"/>
<g style="mix-blend-mode:multiply">
<path d="M117.031 121.521C117.031 121.521 114.274 119.781 109.624 118.083C103.379 125.286 92.8438 136.726 82.9652 139.249C73.1559 141.75 62.7612 137.004 52.0695 141.265C48.4313 142.77 45.4628 144.721 42.6631 146.868C42.4218 147.243 42.1833 147.599 41.9458 147.978C41.9458 147.978 56.2677 140.618 71.6577 146.501C80.7692 149.985 82.5407 155.622 82.5407 155.622C95.4911 161.161 126.969 137.538 117.022 121.52L117.031 121.521Z" fill="#FFFF1A"/>
</g>
<path d="M267.366 55.8735C267.366 55.8735 215.218 39.7813 147.01 92.4914C105.691 124.422 88.5193 145.882 82.8037 154.079C81.4486 156.025 81.9117 158.607 83.8464 159.814C83.9152 159.859 83.9934 159.905 84.0622 159.95C101.4 170.868 114.237 187.478 120.429 207.009C120.459 207.092 120.48 207.174 120.506 207.252C121.186 209.429 123.568 210.528 125.792 209.708C135.162 206.239 160.263 195.04 201.582 163.109C269.79 110.399 267.366 55.8735 267.366 55.8735Z" fill="url(#paint7_linear_87_544)"/>
<path d="M245.064 117.896C268.573 83.218 267.366 55.8735 267.366 55.8735C267.366 55.8735 240.967 47.7277 201.163 62.0173C201.163 62.0173 231.217 83.8084 245.059 117.9L245.064 117.896Z" fill="url(#paint8_linear_87_544)"/>
<path d="M223.164 89.0687C222.073 89.2417 221.078 90.1249 221.277 91.5228C221.435 92.6579 222.621 93.5054 223.778 93.2972C224.931 93.0838 225.831 91.8334 225.614 90.711C225.361 89.3874 224.215 88.9012 223.169 89.0646L223.164 89.0687Z" fill="#A7DBD3"/>
<path d="M203.945 67.4778C188.257 71.5419 141.674 97.4807 89.7233 158.482C88.9746 159.362 89.1076 160.664 90.0181 161.3C92.6093 163.102 95.0581 164.754 98.1823 167.623C98.9616 168.343 100.224 168.249 100.978 167.43C140.514 124.498 173.647 101.776 215.71 78.5711C213.848 75.895 207.87 70.3644 203.945 67.4778Z" fill="#A7DBD3"/>
<path d="M265.518 56.052C264.941 55.9589 232.86 52.8414 209.087 65.5702C212.009 67.3134 218.838 74.2678 220.337 76.5064C234.462 68.8245 250.413 61.9442 265.518 56.052Z" fill="#FFFF39"/>
<path d="M212.616 77.8017C212.523 77.8578 212.433 77.9189 212.342 77.9893C211.769 78.4324 211.353 79.4888 211.725 80.1481C212.241 81.0479 213.766 81.2165 214.669 80.8125C215.522 80.4315 216.122 79.4037 215.811 78.5581C215.589 77.938 214.953 77.5474 214.29 77.464C213.691 77.3875 213.122 77.4926 212.607 77.8008L212.616 77.8017Z" fill="#A7DBD3"/>
<path d="M201.243 68.023C200.813 68.5751 200.786 69.3477 201.309 69.8253C201.803 70.2764 202.542 70.3583 203.227 70.2699C203.575 70.2216 203.939 70.128 204.218 69.9127C205.015 69.3049 204.788 67.937 203.945 67.4778C203.181 67.0643 202.027 67.2212 201.385 67.8639C201.335 67.9105 201.284 67.9662 201.243 68.023Z" fill="#A7DBD3"/>
<path d="M233.599 105.175C233.521 105.251 233.439 105.322 233.348 105.393C232.775 105.836 231.647 105.972 231.103 105.445C230.363 104.719 230.584 103.201 231.203 102.429C231.787 101.7 232.933 101.378 233.673 101.892C234.217 102.264 234.434 102.978 234.348 103.641C234.271 104.239 234.025 104.763 233.597 105.184L233.599 105.175Z" fill="#A7DBD3"/>
<path d="M240.102 118.309C239.46 118.585 238.705 118.417 238.375 117.79C238.063 117.198 238.17 116.462 238.429 115.822C238.563 115.497 238.745 115.168 239.024 114.953C239.813 114.335 241.08 114.9 241.312 115.831C241.519 116.675 241.076 117.752 240.292 118.211C240.235 118.247 240.168 118.283 240.102 118.309Z" fill="#A7DBD3"/>
<path d="M94.6871 168.25C94.6871 168.25 86.4282 170.476 86.9219 174.348C87.0567 175.42 89.9712 180.941 89.9712 180.941C89.9712 180.941 92.0939 174.883 98.5231 172.438L94.6911 168.255L94.6871 168.25Z" fill="#689296"/>
<path d="M73.4618 122.366C78.6395 117.238 95.0714 114.812 100.407 118.372C101.395 119.029 101.387 120.481 100.414 121.249C95.6792 124.99 86.0668 118.52 73.4618 122.366Z" fill="#FFFF39"/>
<path opacity="0.24" d="M267.357 57.7339C257.882 96.8279 239.612 125.759 198.309 157.677C150.056 194.967 121.286 207.997 118.377 200.201C119.253 202.342 120.054 204.531 120.761 206.753C120.791 206.836 120.812 206.918 120.838 206.996C121.519 209.172 123.568 210.528 125.787 209.712C135.157 206.243 160.257 195.044 201.577 163.113C262.385 116.122 267.062 67.6955 267.357 57.7339Z" fill="white"/>
<path d="M188.344 134.238C200.149 135.47 211.165 126.957 212.95 115.223C214.736 103.49 206.613 92.9791 194.809 91.7472C183.004 90.5154 171.988 99.0287 170.203 110.762C168.418 122.496 176.54 133.006 188.344 134.238Z" fill="#A7DBD3"/>
<g style="mix-blend-mode:multiply">
<path d="M185.487 137.778C197.291 139.009 208.308 130.496 210.093 118.763C211.878 107.029 203.755 96.5184 191.951 95.2866C180.147 94.0548 169.13 102.568 167.345 114.302C165.56 126.035 173.682 136.546 185.487 137.778Z" fill="#D5D9DB"/>
</g>
<path d="M173.071 128.629C180.155 137.797 193.689 139.209 203.298 131.783C212.907 124.357 214.954 110.905 207.869 101.738C200.784 92.5696 187.251 91.1574 177.641 98.5832C168.032 106.009 165.986 119.461 173.071 128.629Z" fill="url(#paint9_radial_87_544)"/>
<path d="M178.215 124.654C183.205 131.111 192.737 132.106 199.505 126.875C206.273 121.645 207.715 112.17 202.725 105.713C197.735 99.2555 188.203 98.2608 181.434 103.491C174.666 108.721 173.225 118.196 178.215 124.654Z" fill="url(#paint10_radial_87_544)"/>
<path d="M202.725 105.713C197.735 99.2559 188.202 98.2611 181.434 103.491C174.667 108.721 173.225 118.197 178.215 124.654C173.936 119.117 175.176 110.998 180.974 106.517C186.772 102.036 194.945 102.889 199.22 108.421C203.495 113.953 202.259 122.077 196.461 126.558C190.663 131.038 182.49 130.185 178.215 124.654C183.205 131.111 192.737 132.105 199.505 126.875C206.273 121.645 207.714 112.17 202.725 105.713Z" fill="#4AADD8"/>
<path d="M177.341 125.329C172.004 118.422 173.551 108.252 180.79 102.658C188.03 97.0634 198.261 98.131 203.598 105.038C208.936 111.945 207.389 122.114 200.149 127.709C192.91 133.303 182.679 132.235 177.341 125.329ZM201.851 106.388C197.225 100.401 188.357 99.4805 182.088 104.325C175.818 109.17 174.477 117.989 179.099 123.97C183.721 129.952 192.593 130.878 198.863 126.033C205.132 121.188 206.474 112.369 201.851 106.388Z" fill="#395154"/>
<path d="M184.267 97.0233C184.267 97.0233 184.349 96.9848 184.492 96.9151C184.644 96.8464 184.872 96.7433 185.158 96.6368C185.731 96.4146 186.564 96.1302 187.592 95.8991C187.847 95.8411 188.12 95.785 188.395 95.7197C188.676 95.6738 188.961 95.6331 189.261 95.5892C189.854 95.4819 190.492 95.4544 191.147 95.4053C191.802 95.389 192.481 95.3706 193.173 95.424C193.858 95.4908 194.565 95.5081 195.245 95.6684L196.269 95.8646C196.6 95.9602 196.936 96.0517 197.267 96.1473C197.931 96.32 198.546 96.5957 199.146 96.851C199.759 97.0794 200.283 97.4255 200.797 97.7142C201.049 97.8627 201.302 98.0019 201.533 98.1577C201.749 98.3259 201.965 98.4941 202.163 98.6511C202.564 98.9702 202.942 99.2494 203.234 99.5383C203.519 99.8407 203.763 100.101 203.962 100.315C204.354 100.755 204.577 100.999 204.577 100.999C204.694 101.129 204.676 101.339 204.539 101.461C204.424 101.566 204.252 101.576 204.128 101.493L204.093 101.47C204.093 101.47 203.823 101.287 203.352 100.965C203.122 100.8 202.844 100.607 202.529 100.377C202.209 100.151 201.807 99.9629 201.401 99.7137C201.197 99.5937 200.979 99.4676 200.762 99.3415C200.527 99.2371 200.285 99.1225 200.037 99.012C199.542 98.7818 199.032 98.5311 198.458 98.3538C198.176 98.2538 197.893 98.1538 197.606 98.0487C197.325 97.9394 197.01 97.8971 196.711 97.8095C196.411 97.7312 196.107 97.6478 195.797 97.5685L194.852 97.4088C194.224 97.2821 193.588 97.2345 192.96 97.1643C192.33 97.1126 191.699 97.0938 191.098 97.0686C190.485 97.0846 189.902 97.0614 189.339 97.0966C188.779 97.1134 188.247 97.1566 187.749 97.1986C187.256 97.2365 186.806 97.307 186.403 97.3402C186.006 97.4022 185.651 97.4403 185.364 97.4903C185.077 97.5402 184.855 97.5734 184.7 97.5949C184.544 97.6256 184.462 97.6405 184.462 97.6405L184.451 97.6488C184.262 97.6807 184.082 97.5585 184.058 97.3727C184.034 97.2198 184.123 97.0693 184.261 97.0038L184.267 97.0233Z" fill="#86B5B7"/>
<g opacity="0.8">
<path d="M199.774 132.318C199.774 132.318 199.7 132.367 199.56 132.451C199.414 132.539 199.207 132.658 198.936 132.794C198.388 133.071 197.604 133.464 196.617 133.803C196.367 133.889 196.112 133.98 195.842 134.074C195.57 134.154 195.289 134.233 195.002 134.316C194.431 134.496 193.804 134.604 193.164 134.74C192.515 134.841 191.846 134.95 191.163 134.996C190.478 135.019 189.78 135.101 189.084 135.042L188.047 134.995C187.704 134.95 187.361 134.905 187.027 134.861C186.347 134.79 185.698 134.614 185.075 134.45C184.437 134.322 183.871 134.066 183.316 133.858C183.044 133.749 182.775 133.655 182.523 133.54C182.283 133.407 182.047 133.279 181.825 133.157C181.385 132.909 180.963 132.696 180.63 132.463C180.303 132.218 180.013 132.009 179.78 131.83C179.31 131.475 179.057 131.27 179.057 131.27C178.957 131.184 178.946 131.037 179.028 130.933C179.103 130.842 179.23 130.818 179.327 130.866L179.353 130.878C179.353 130.878 179.647 131.026 180.15 131.299C180.399 131.433 180.699 131.601 181.044 131.792C181.39 131.974 181.823 132.113 182.266 132.31C182.487 132.408 182.719 132.498 182.958 132.608C183.206 132.685 183.464 132.764 183.731 132.843C184.259 133.007 184.813 133.191 185.412 133.291C185.71 133.355 186.007 133.419 186.31 133.479C186.612 133.548 186.933 133.554 187.248 133.596C187.564 133.629 187.879 133.671 188.2 133.709L189.174 133.74C189.82 133.78 190.476 133.731 191.121 133.713C191.766 133.673 192.401 133.598 193.012 133.535C193.623 133.429 194.22 133.36 194.774 133.234C195.334 133.128 195.859 133 196.35 132.882C196.835 132.768 197.273 132.626 197.676 132.527C198.064 132.398 198.41 132.302 198.685 132.204C198.96 132.106 199.179 132.035 199.324 131.98C199.47 131.924 199.55 131.895 199.55 131.895C199.686 131.839 199.832 131.906 199.879 132.033C199.918 132.15 199.866 132.271 199.762 132.335L199.774 132.318Z" fill="#689296"/>
</g>
<g style="mix-blend-mode:multiply">
<path d="M191.859 125.166C190.621 127.396 187.388 128.074 184.64 126.678C181.889 125.277 180.662 122.338 181.896 120.103C183.133 117.872 186.367 117.194 189.114 118.59C191.866 119.991 193.093 122.93 191.859 125.166Z" fill="#B8E6F4"/>
</g>
<path d="M193.89 106.685C193.495 108.134 191.711 108.982 189.905 108.572C188.099 108.172 186.952 106.666 187.347 105.217C187.742 103.769 189.526 102.921 191.332 103.33C193.139 103.73 194.286 105.236 193.89 106.685Z" fill="white"/>
<path d="M198.431 109.415C197.924 110.133 196.801 110.241 195.921 109.656C195.041 109.071 194.738 108.014 195.244 107.296C195.751 106.578 196.874 106.47 197.754 107.055C198.634 107.641 198.937 108.697 198.431 109.415Z" fill="white"/>
<path d="M67.8842 177.367C64.7606 178.287 62.9723 181.588 63.9165 184.582C66.4882 192.76 73.5158 208.544 91.5687 221.882C94.0175 223.688 97.5689 223.189 99.5064 220.68C99.6773 220.458 90.6656 218.432 78.4467 201.867C64.9695 183.596 68.107 177.301 67.8788 177.372L67.8842 177.367Z" fill="#40595D"/>
<path d="M86.6497 167.34C85.5803 168.371 84.7349 169.669 84.4593 171.295C83.4353 177.279 103.285 205.568 111.059 207.554C112.89 208.018 114.51 207.534 115.921 206.525C106.674 206.852 85.0865 174.632 86.6497 167.34Z" fill="#40595D"/>
<path d="M222.516 88.2303C221.425 88.4032 220.431 89.2864 220.629 90.6843C220.788 91.8195 221.973 92.667 223.13 92.4587C224.283 92.2454 225.183 90.995 224.966 89.8725C224.713 88.5489 223.567 88.0627 222.521 88.2262L222.516 88.2303Z" fill="#507077"/>
<path d="M211.79 76.9541C211.697 77.0101 211.607 77.0713 211.516 77.1417C210.943 77.5847 210.526 78.6412 210.899 79.3004C211.415 80.2003 212.94 80.3689 213.843 79.9649C214.695 79.5838 215.296 78.5561 214.985 77.7105C214.763 77.0904 214.127 76.6997 213.464 76.6164C212.865 76.5398 212.296 76.6449 211.781 76.9531L211.79 76.9541Z" fill="#507077"/>
<path d="M200.721 67.3481C200.292 67.9003 200.264 68.6729 200.787 69.1505C201.282 69.6016 202.021 69.6834 202.706 69.5951C203.054 69.5468 203.418 69.4532 203.696 69.2378C204.493 68.6301 204.266 67.2622 203.424 66.8029C202.659 66.3894 201.505 66.5463 200.864 67.1891C200.814 67.2356 200.763 67.2914 200.721 67.3481Z" fill="#507077"/>
<path d="M232.955 104.341C232.877 104.418 232.795 104.489 232.704 104.56C232.131 105.003 231.003 105.139 230.459 104.612C229.719 103.886 229.94 102.368 230.559 101.595C231.143 100.867 232.289 100.545 233.028 101.059C233.572 101.431 233.79 102.144 233.703 102.807C233.627 103.406 233.381 103.93 232.953 104.351L232.955 104.341Z" fill="#507077"/>
<path d="M239.459 117.475C238.816 117.751 238.061 117.583 237.731 116.957C237.419 116.365 237.527 115.629 237.785 114.988C237.919 114.664 238.102 114.335 238.38 114.12C239.169 113.502 240.436 114.066 240.668 114.998C240.875 115.842 240.432 116.919 239.648 117.378C239.591 117.414 239.524 117.449 239.459 117.475Z" fill="#507077"/>
</g>
<defs>
<radialGradient id="paint0_radial_87_544" cx="0" cy="0" r="1" gradientUnits="userSpaceOnUse" gradientTransform="translate(82.6402 198.514) rotate(3.78818) scale(74.1145)">
<stop stop-color="#FAD31F"/>
<stop offset="1" stop-color="#F79A34"/>
</radialGradient>
<radialGradient id="paint1_radial_87_544" cx="0" cy="0" r="1" gradientUnits="userSpaceOnUse" gradientTransform="translate(83.9449 199.053) rotate(3.78819) scale(51.9408 51.9408)">
<stop stop-color="#FFF154"/>
<stop offset="1" stop-color="#FAD31F"/>
</radialGradient>
<radialGradient id="paint2_radial_87_544" cx="0" cy="0" r="1" gradientUnits="userSpaceOnUse" gradientTransform="translate(89.0291 195.678) rotate(52.1382) scale(36.8044 36.8044)">
<stop stop-color="white"/>
<stop offset="1" stop-color="#FFF154"/>
</radialGradient>
<linearGradient id="paint3_linear_87_544" x1="163.516" y1="205.828" x2="114.534" y2="222.939" gradientUnits="userSpaceOnUse">
<stop stop-color="#FFFF1A"/>
<stop offset="1" stop-color="#8EB326"/>
</linearGradient>
<linearGradient id="paint4_linear_87_544" x1="72.9276" y1="172.996" x2="106.027" y2="215.828" gradientUnits="userSpaceOnUse">
<stop stop-color="#567880"/>
<stop offset="0.42" stop-color="#4E6D74"/>
<stop offset="1" stop-color="#40595D"/>
</linearGradient>
<linearGradient id="paint5_linear_87_544" x1="90.0639" y1="164.604" x2="120.019" y2="203.366" gradientUnits="userSpaceOnUse">
<stop stop-color="#567880"/>
<stop offset="0.42" stop-color="#4E6D74"/>
<stop offset="1" stop-color="#40595D"/>
</linearGradient>
<linearGradient id="paint6_linear_87_544" x1="93.0895" y1="119.944" x2="71.7212" y2="157.278" gradientUnits="userSpaceOnUse">
<stop stop-color="#FFFF1A"/>
<stop offset="1" stop-color="#7A9920"/>
</linearGradient>
<linearGradient id="paint7_linear_87_544" x1="157.389" y1="84.4704" x2="211.962" y2="155.088" gradientUnits="userSpaceOnUse">
<stop stop-color="#8EBBB6"/>
<stop offset="1" stop-color="#7BA4A3"/>
</linearGradient>
<linearGradient id="paint8_linear_87_544" x1="225.958" y1="48.1966" x2="264.051" y2="97.4904" gradientUnits="userSpaceOnUse">
<stop stop-color="#FFFF1A"/>
<stop offset="1" stop-color="#8EB326"/>
</linearGradient>
<radialGradient id="paint9_radial_87_544" cx="0" cy="0" r="1" gradientUnits="userSpaceOnUse" gradientTransform="translate(197.785 99.7312) rotate(52.3038) scale(34.6055 36.2712)">
<stop stop-color="#507077"/>
<stop offset="1" stop-color="#40595D"/>
</radialGradient>
<radialGradient id="paint10_radial_87_544" cx="0" cy="0" r="1" gradientUnits="userSpaceOnUse" gradientTransform="translate(191.328 107.988) rotate(52.3038) scale(20.333 21.3117)">
<stop stop-color="#68E7F7"/>
<stop offset="1" stop-color="#55BDED"/>
</radialGradient>
<clipPath id="clip0_87_544">
<rect width="67.9296" height="91.0896" fill="white" transform="translate(71.9146 167.256) rotate(52.1382)"/>
</clipPath>
<clipPath id="clip1_87_544">
<rect width="141.355" height="243.795" fill="white" transform="translate(224.188) rotate(52.3038)"/>
</clipPath>
</defs>
</svg>
