<svg width="77" height="77" viewBox="0 0 77 77" fill="none" xmlns="http://www.w3.org/2000/svg">
<g clip-path="url(#clip0_87_428)">
<path d="M38.4989 76.9978C59.7612 76.9978 76.9978 59.7612 76.9978 38.4989C76.9978 17.2365 59.7612 0 38.4989 0C17.2365 0 0 17.2365 0 38.4989C0 59.7612 17.2365 76.9978 38.4989 76.9978Z" fill="#FFD217"/>
<path d="M14.5568 55.9549L7.4436 61.2543C7.4436 61.2543 9.90457 64.6188 12.8982 67.2528L18.782 60.6161C18.782 60.6161 15.6738 57.5078 14.5568 55.9526V55.9549Z" fill="#FFFF1A"/>
<path d="M11.6508 50.8419L3.30151 54.1187C3.30151 54.1187 4.32411 56.4583 5.60066 58.4742L13.1678 53.849L11.6508 50.8419Z" fill="#FFFF1A"/>
<path d="M61.0027 19.3191L67.7945 13.5229C67.7945 13.5229 65.2931 10.3338 61.9062 7.93576L56.4763 14.9478C56.4763 14.9478 59.7846 17.8425 61.0027 19.3191Z" fill="#FFFF1A"/>
<path d="M64.3288 24.1736L72.4399 20.3484C72.4399 20.3484 71.2645 18.083 69.8576 16.1547L62.614 21.2721L64.3288 24.1714V24.1736Z" fill="#FFFF1A"/>
<path d="M59.3279 59.3876C71.0976 47.6178 71.0976 28.5353 59.3279 16.7655C47.5581 4.99577 28.4756 4.99578 16.7058 16.7655C4.93605 28.5353 4.93605 47.6178 16.7058 59.3876C28.4756 71.1574 47.5581 71.1574 59.3279 59.3876Z" fill="#F48F16"/>
<path d="M38.4988 68.1293C54.8633 68.1293 68.1293 54.8633 68.1293 38.4989C68.1293 22.1345 54.8633 8.86847 38.4988 8.86847C22.1344 8.86847 8.86841 22.1345 8.86841 38.4989C8.86841 54.8633 22.1344 68.1293 38.4988 68.1293Z" fill="#F7B114"/>
<path d="M32.1656 39.8811C32.1656 39.8541 32.1656 39.8294 32.1656 39.8024C32.1656 39.8294 32.1634 39.8541 32.1611 39.8788C32.1611 39.8788 32.1611 39.8788 32.1634 39.8788L32.1656 39.8811Z" fill="#FEFEFE"/>
<path d="M27.3539 31.1272C27.3539 31.0913 27.3539 31.0576 27.3561 31.0216C27.3561 31.0576 27.3516 31.0913 27.3494 31.125H27.3539V31.1272Z" fill="#FEFEFE"/>
<path d="M8.47959 61.9645C8.47959 61.9286 8.47959 61.8949 8.48184 61.8589C8.48184 61.8949 8.47735 61.9286 8.4751 61.9623C8.4751 61.9623 8.47735 61.9623 8.47959 61.9623V61.9645Z" fill="#FEFEFE"/>
</g>
<defs>
<clipPath id="clip0_87_428">
<rect width="77" height="77" fill="white"/>
</clipPath>
</defs>
</svg>
