<svg width="71" height="65" viewBox="0 0 71 65" fill="none" xmlns="http://www.w3.org/2000/svg">
<path d="M3.16617 59.8638C4.57264 57.6061 5.99154 55.3553 7.37041 53.0811C7.59263 52.7128 7.73893 52.2343 7.74031 51.8067C7.76516 45.9232 7.7555 40.041 7.75964 34.1574C7.76102 31.8611 8.51187 30.5812 10.5781 29.4103C9.16473 28.0974 8.53534 26.4892 8.85418 24.5874C9.06397 23.342 9.70303 22.3186 10.6954 21.5325C12.665 19.9713 15.4628 20.1106 17.3027 21.8538C19.3165 23.7626 19.3551 26.4065 17.3731 29.1552C17.5691 29.2172 17.7499 29.2779 17.9307 29.3331C19.4876 29.8089 20.6111 30.7936 21.3399 32.239C21.9997 33.5492 22.6788 34.8512 23.2916 36.1834C23.5221 36.6855 23.8133 36.833 24.342 36.8137C25.4199 36.7724 26.502 36.7889 27.5814 36.8055C29.6463 36.8372 30.7946 38.4522 30.1997 40.4327C30.1459 40.6133 30.226 40.9237 30.3612 41.0561C33.9913 44.6309 38.3032 46.9203 43.3176 47.8609C44.2148 48.0292 45.1244 48.134 46.1044 48.2788C46.3183 47.392 46.5281 46.559 46.7199 45.7232C47.054 44.2723 47.3493 42.8104 47.7234 41.3705C47.8421 40.9126 47.7192 40.6685 47.4156 40.3665C44.789 37.7612 42.1762 35.1435 39.5647 32.5231C38.8705 31.8253 38.1969 31.1067 37.4115 30.293C36.8525 30.8805 36.3349 31.3908 35.867 31.9439C35.7621 32.068 35.7801 32.3631 35.8394 32.5479C36.484 34.5533 37.1507 36.5517 37.8077 38.5529C38.3059 40.07 37.6393 41.5553 36.248 42.038C34.807 42.5373 33.3412 41.7843 32.8195 40.241C31.932 37.6164 31.0596 34.9863 30.1915 32.3549C29.8202 31.2281 30.041 30.2365 30.9037 29.3896C32.0672 28.2463 33.2142 27.0864 34.3667 25.9321C34.5572 25.7417 34.7366 25.5417 34.9381 25.3266C31.4986 24.4439 29.7594 22.5407 29.9775 19.9437C30.1859 17.4515 32.052 15.3897 34.2853 15.1828C37.3936 14.8945 39.1024 16.3096 40.1803 20.1975C41.1741 19.1755 42.1223 18.2266 43.0264 17.2391C43.141 17.115 43.0844 16.7661 43.0154 16.5523C42.3597 14.5263 41.6669 12.5113 41.0195 10.4826C40.5778 9.09787 41.2417 7.70491 42.5323 7.19599C43.9926 6.6195 45.5247 7.35184 46.0505 8.90617C46.887 11.379 47.6558 13.8767 48.5446 16.3303C49.1009 17.8639 48.8524 19.0872 47.6226 20.1644C46.7793 20.9036 46.0022 21.7187 45.1672 22.5269C46.8787 24.2315 48.5157 25.8769 50.1761 27.496C50.3431 27.6588 50.6619 27.7319 50.9118 27.7333C52.9794 27.7512 55.0484 27.7415 57.116 27.7443C59.0759 27.747 60.2174 28.6435 60.6522 30.5247C61.5673 34.494 62.4783 38.4646 63.3947 42.4325C63.8268 44.3026 62.891 45.9604 61.1491 46.399C59.41 46.8362 57.7937 45.8101 57.3451 43.933C56.5943 40.794 55.8793 37.6467 55.1298 34.5078C55.0829 34.3133 54.8689 34.0126 54.7268 34.0085C53.174 33.9726 51.6198 33.9864 50.0671 33.9864C50.0091 34.0678 49.9525 34.1478 49.8945 34.2292C50.4701 34.7381 51.0567 35.2346 51.6171 35.76C52.1706 36.2786 52.6868 36.8358 53.2361 37.3571C54.263 38.3322 54.5819 39.4783 54.2451 40.8644C53.6488 43.3083 53.1064 45.7659 52.5198 48.3105C52.8138 48.3105 53.0581 48.3105 53.3024 48.3105C55.301 48.3105 57.3009 48.3215 59.2995 48.3064C62.1967 48.2843 64.0932 50.6868 63.9965 53.008C63.9303 54.5913 63.991 56.1787 63.9758 57.7647C63.9579 59.6611 62.4852 61.2182 60.6025 61.2444C57.7081 61.2858 54.8124 61.2554 51.9166 61.2678C51.2624 61.2706 51.0125 60.9396 51.0139 60.3286C51.0181 58.7481 51.0139 57.1662 51.0139 55.485C50.1802 55.485 49.4045 55.4712 48.6302 55.4877C39.7773 55.667 32.531 52.3377 26.8789 45.5273C26.0286 44.5026 25.2005 43.4586 24.3282 42.4518C24.1625 42.2601 23.8533 42.1649 23.5911 42.0946C23.3772 42.0367 23.1342 42.0822 22.9051 42.0822C20.8541 42.0822 20.5684 41.9401 19.3234 40.2492C19.3234 41.6284 19.3082 42.9 19.3441 44.1689C19.3482 44.3178 19.6036 44.5109 19.7844 44.5964C20.861 45.1067 21.9472 45.5963 23.0349 46.0845C24.4137 46.7024 25.1025 47.7326 25.0928 49.2704C25.0693 53.1542 25.0873 57.0379 25.0832 60.923C25.0818 62.7587 23.7774 64.1393 22.0452 64.1503C20.2702 64.1613 18.8803 62.7987 18.8679 60.9672C18.8472 57.864 18.8499 54.7623 18.8734 51.6591C18.8776 51.1944 18.7354 50.9682 18.313 50.7875C16.9079 50.1834 15.5222 49.5366 14.026 48.8594C14.026 50.2262 13.9997 51.484 14.0343 52.739C14.0619 53.7638 13.7941 54.6657 13.2378 55.5291C11.8107 57.7482 10.3159 59.9356 9.05845 62.2498C7.73065 64.6951 4.43047 64.8675 3.16064 62.2112C3.16064 61.4292 3.16064 60.6486 3.16064 59.8666L3.16617 59.8638ZM53.987 29.2241V29.22C52.8855 29.22 51.7841 29.191 50.684 29.231C50.0795 29.2531 49.6419 29.0462 49.2265 28.6256C47.4694 26.8409 45.6903 25.0783 43.9208 23.3075C43.3259 22.7131 43.3232 22.3945 43.9125 21.8056C44.9201 20.7988 45.9291 19.792 46.9394 18.7893C47.3631 18.3687 47.5412 17.9163 47.3314 17.3012C46.4329 14.6559 45.5661 11.9997 44.6772 9.35164C44.6068 9.14201 44.4812 8.92685 44.3238 8.77515C43.8918 8.36277 43.3811 8.29381 42.8829 8.63447C42.3459 8.99995 42.201 9.51024 42.415 10.1419C43.1327 12.2672 43.8118 14.4063 44.5557 16.5233C44.7917 17.1964 44.7048 17.6515 44.1844 18.1659C40.1348 22.1766 36.121 26.2217 32.0769 30.2392C31.4986 30.8129 31.3536 31.3701 31.6283 32.1521C32.4965 34.6374 33.3025 37.1447 34.139 39.641C34.4412 40.5444 35.0582 40.9195 35.787 40.663C36.4495 40.4299 36.6911 39.7431 36.4067 38.8811C35.6945 36.7282 34.9864 34.574 34.2604 32.4266C34.1058 31.9701 34.1114 31.5922 34.4813 31.2336C35.2418 30.4999 35.9775 29.74 36.7338 29.0035C37.2432 28.5084 37.5744 28.5084 38.081 29.009C38.7959 29.7137 39.493 30.4378 40.2038 31.1467C43.1299 34.0678 46.0574 36.9889 48.9877 39.9058C49.3107 40.2272 49.3907 40.5458 49.2762 41.0161C48.6978 43.3965 48.1651 45.788 47.6254 48.1767C47.4059 49.1504 47.8587 49.9683 48.7462 50.2482C49.7372 50.5613 50.6288 50.0221 50.8938 48.8994C51.5563 46.0928 52.183 43.2779 52.8538 40.4727C53.0512 39.6479 52.8634 39.0094 52.2589 38.4191C50.7461 36.942 49.2527 35.447 47.7841 33.9257C47.584 33.7175 47.4266 33.2706 47.5164 33.0362C47.6033 32.8086 48.0312 32.5838 48.3141 32.5797C50.6564 32.5424 53.0001 32.5659 55.3438 32.5466C55.9221 32.5424 56.2437 32.7672 56.3679 33.3313C56.695 34.8057 57.0346 36.2772 57.3727 37.7474C57.8296 39.7334 58.2837 41.7194 58.7543 43.7027C58.9766 44.6378 59.7523 45.1674 60.6398 45.0295C61.5356 44.8902 62.1304 44.162 62.049 43.2172C62.0062 42.7221 61.8641 42.2339 61.7509 41.7457C60.8841 37.9984 60.02 34.2512 59.1381 30.5068C58.9379 29.6558 58.3762 29.2366 57.5025 29.2283C56.3306 29.2159 55.1588 29.2255 53.987 29.2255V29.2241ZM20.2799 55.7443C20.2799 57.4213 20.2675 59.0998 20.284 60.7769C20.2951 61.8995 21.0556 62.756 21.9859 62.7505C22.9576 62.7449 23.6781 61.9285 23.6808 60.7865C23.6877 56.9496 23.685 53.1114 23.6836 49.2746C23.6836 48.414 23.3316 47.7919 22.5076 47.432C21.1853 46.8555 19.8851 46.2266 18.5642 45.6446C18.1088 45.4432 17.9059 45.166 17.91 44.6488C17.9307 42.1677 17.9238 39.6865 17.9141 37.2054C17.9128 36.7724 17.9942 36.4083 18.4662 36.3062C18.9314 36.2055 19.1757 36.4979 19.3634 36.8813C19.8368 37.8495 20.342 38.8025 20.8016 39.7762C21.068 40.3403 21.4876 40.6327 22.0921 40.6354C23.9527 40.6437 25.8147 40.6547 27.6753 40.6258C28.4372 40.6133 28.9299 40.1017 28.9368 39.4397C28.9437 38.7322 28.4013 38.2384 27.551 38.2288C26.1956 38.2136 24.8402 38.2026 23.4848 38.2343C22.9217 38.2467 22.6001 38.0315 22.3599 37.535C21.6008 35.9669 20.8127 34.4112 20.0287 32.8541C19.4007 31.6074 18.4124 30.7316 17.0184 30.6226C15.3593 30.4916 13.674 30.453 12.0177 30.5909C10.2261 30.7399 9.2365 32.0197 9.23512 33.8292C9.23374 39.9182 9.24203 46.0073 9.21718 52.0963C9.2158 52.5473 9.07087 53.0521 8.83761 53.4383C7.50843 55.6367 6.12266 57.8006 4.77692 59.988C4.19583 60.9327 4.39873 61.9712 5.2117 62.4677C6.08677 63.0028 6.99774 62.7505 7.61333 61.7726C9.13989 59.3453 10.6706 56.9179 12.1613 54.4685C12.3959 54.0824 12.5312 53.5762 12.5422 53.1225C12.5864 51.4233 12.5546 49.7228 12.5629 48.0223C12.567 47.1093 13.0211 46.8114 13.8493 47.1851C15.772 48.0499 17.6836 48.9394 19.6105 49.7931C20.1005 50.0097 20.2951 50.3158 20.2868 50.851C20.2633 52.4825 20.2785 54.1141 20.2785 55.7456L20.2799 55.7443ZM26.0438 42.1318C26.0783 42.2242 26.0825 42.2739 26.1087 42.3056C26.7174 43.0531 27.3261 43.802 27.9389 44.5454C33.1852 50.9089 39.9167 54.1155 48.1803 54.0782C51.6502 54.063 55.1188 54.0727 58.5887 54.0782C59.9469 54.0796 61.3368 53.9044 62.597 54.8106C62.597 54.1141 62.6039 53.521 62.597 52.928C62.5735 51.1709 61.2153 49.7876 59.4541 49.7711C57.2029 49.7504 54.9504 49.7504 52.6978 49.7807C52.448 49.7835 52.1071 49.989 51.9704 50.2041C50.6178 52.3336 47.7358 52.2908 46.4577 50.1227C46.3293 49.9035 45.9981 49.7021 45.7427 49.6759C43.1727 49.4207 40.6814 48.858 38.2756 47.9133C34.7408 46.5259 31.6628 44.4488 29.1218 41.896C28.0162 41.9815 27.0514 42.056 26.0438 42.1332V42.1318ZM52.5322 59.8183C55.2968 59.8183 58.0242 59.8928 60.7433 59.7866C62.0849 59.7342 62.8758 58.2433 62.4396 56.969C62.1277 56.056 61.3147 55.5112 60.1774 55.5029C58.2492 55.4891 56.321 55.4974 54.3928 55.496C53.7799 55.496 53.1685 55.496 52.5308 55.496V59.8183H52.5322ZM35.061 23.7585C37.1438 23.7447 38.6358 22.1462 38.6206 19.9464C38.6082 18.1356 36.8843 16.5426 34.963 16.5633C33.0016 16.5854 31.4185 18.2225 31.4323 20.2168C31.4461 22.2055 33.05 23.7709 35.061 23.7571V23.7585ZM13.8603 21.92C11.859 21.8938 10.233 23.4537 10.2027 25.4287C10.1723 27.4009 11.7693 29.0614 13.7292 29.0945C15.7223 29.129 17.3676 27.5609 17.4021 25.5928C17.4379 23.5351 15.9045 21.9449 13.8603 21.9187V21.92Z" fill="white"/>
<path d="M33.4779 61.2609C31.9638 61.2609 30.4496 61.2527 28.9369 61.2637C28.4151 61.2678 27.9886 61.1478 28.008 60.5327C28.0245 59.97 28.4331 59.8431 28.9231 59.8431C31.9734 59.8473 35.0238 59.8473 38.0755 59.8431C38.5945 59.8431 39.0141 59.9769 39.003 60.5865C38.992 61.1658 38.5751 61.2664 38.0893 61.2637C36.5531 61.2568 35.0155 61.2609 33.4793 61.2596L33.4779 61.2609Z" fill="white"/>
<path d="M36.8815 56.9704C38.2134 56.9704 39.5453 56.9773 40.8773 56.9663C41.4101 56.9621 41.8987 57.0559 41.8987 57.6931C41.8987 58.2903 41.4321 58.3978 40.9242 58.3965C38.2148 58.3923 35.5053 58.3992 32.7959 58.3937C32.1058 58.3923 31.7939 58.1192 31.8546 57.6007C31.9112 57.1138 32.2397 56.969 32.6814 56.9704C34.0823 56.9731 35.4833 56.9704 36.8828 56.9704H36.8815Z" fill="white"/>
<rect x="51.5" y="4.5" width="19" height="19" rx="9.5" fill="#D80B0B"/>
<rect x="51.5" y="4.5" width="19" height="19" rx="9.5" stroke="#D80B0B"/>
<rect width="11.683" height="2.86114" transform="matrix(-0.707107 -0.707107 -0.707107 0.707107 66.0999 17.1611)" fill="white"/>
<rect width="11.683" height="2.86114" transform="matrix(-0.707107 0.707107 0.707107 0.707107 64.1611 8.81573)" fill="white"/>
</svg>
