<svg width="66" height="61" viewBox="0 0 66 61" fill="none" xmlns="http://www.w3.org/2000/svg">
<g clip-path="url(#clip0_338_407)">
<path d="M57.9998 43.9592C57.9998 40.5653 56.9835 37.2882 55.0605 34.4822C53.6773 32.4638 51.8961 30.7877 49.832 29.5422C52.2622 27.2408 53.7827 23.988 53.7827 20.3846C53.7827 13.4268 48.122 7.76605 41.1643 7.76605C37.0385 7.76605 33.1738 9.8065 30.8263 13.156C30.2297 13.0691 29.6203 13.0223 28.9999 13.0223C28.3796 13.0223 27.7703 13.0693 27.1737 13.156C24.8261 9.8065 20.9613 7.76605 16.8357 7.76605C9.87789 7.76605 4.21714 13.4268 4.21714 20.3846C4.21714 23.988 5.73767 27.2408 8.16802 29.5422C6.10375 30.7876 4.32256 32.4638 2.93953 34.482C1.01649 37.2882 0 40.5653 0 43.9592V50.9779H12.1644V56.234H45.8358V50.9779H58V43.9592H57.9998ZM41.1643 10.8804C46.4049 10.8804 50.6685 15.144 50.6685 20.3848C50.6685 25.6256 46.4049 29.8891 41.1643 29.8891C41.0704 29.8891 40.9765 29.8877 40.8824 29.8849C40.8896 29.865 40.8955 29.8446 40.9025 29.8247C41.0648 29.3647 41.2001 28.8923 41.3086 28.4097C41.3163 28.3754 41.325 28.3415 41.3323 28.3071C41.3605 28.1769 41.3852 28.0455 41.4094 27.9138C41.4207 27.8515 41.4324 27.7893 41.4429 27.7269C41.4625 27.6093 41.4802 27.4913 41.4966 27.3728C41.5079 27.2904 41.5182 27.2081 41.528 27.1255C41.5403 27.0209 41.5523 26.9161 41.5621 26.8107C41.5721 26.7031 41.5796 26.5953 41.5867 26.4874C41.5923 26.4024 41.5993 26.3177 41.6032 26.2322C41.6118 26.049 41.6166 25.8654 41.6172 25.6816C41.6172 25.6681 41.6183 25.6549 41.6183 25.6411C41.6183 25.6338 41.6177 25.6265 41.6177 25.6192C41.6174 25.4316 41.612 25.245 41.6035 25.0591C41.6011 25.0051 41.5978 24.9512 41.5947 24.8973C41.5855 24.7393 41.5735 24.582 41.5587 24.4255C41.5553 24.39 41.5525 24.3545 41.5489 24.3192C41.0783 19.771 38.205 15.878 34.0599 14.0774C35.8461 12.0707 38.4297 10.8804 41.1643 10.8804ZM25.7114 16.7231C25.7418 16.712 25.7725 16.7016 25.8028 16.6907C25.8974 16.6569 25.9927 16.6248 26.0884 16.5938C26.161 16.5706 26.234 16.5482 26.3075 16.5267C26.3609 16.511 26.4145 16.4959 26.4682 16.4809C26.5641 16.4546 26.6605 16.4289 26.7578 16.4054C27.4772 16.2307 28.2274 16.1359 28.9996 16.1359C29.7724 16.1365 30.5229 16.2315 31.2425 16.4062C31.3392 16.4295 31.4349 16.4551 31.5304 16.4812C31.5849 16.4963 31.6394 16.5116 31.6934 16.5276C31.766 16.549 31.8382 16.5711 31.91 16.594C32.007 16.6253 32.1034 16.6577 32.199 16.6919C32.2285 16.7024 32.2579 16.7123 32.2872 16.7231C35.4657 17.8985 37.8489 20.7273 38.3883 24.1603C38.3925 24.1877 38.3965 24.2153 38.4006 24.2429C38.4178 24.3592 38.4323 24.4764 38.4452 24.594C38.4499 24.6373 38.4549 24.6804 38.4591 24.7238C38.4694 24.8311 38.477 24.9392 38.4839 25.0476C38.4867 25.094 38.4906 25.1402 38.4927 25.1868C38.4993 25.3252 38.5029 25.4644 38.5033 25.6044C38.5033 25.6165 38.5041 25.6284 38.5041 25.6405C38.5041 25.6461 38.5038 25.6519 38.5038 25.6575C38.5035 25.793 38.4994 25.9275 38.4935 26.0616C38.4916 26.1038 38.4898 26.146 38.4873 26.188C38.48 26.3176 38.4703 26.4465 38.4579 26.5745C38.453 26.624 38.4465 26.6734 38.4409 26.7227C38.4314 26.8056 38.4208 26.8882 38.4093 26.9705C38.4002 27.0345 38.3912 27.0986 38.3809 27.1623C38.3652 27.2593 38.3478 27.3557 38.3291 27.4518C38.3124 27.5372 38.2942 27.6224 38.2752 27.7074C38.2638 27.7587 38.252 27.8099 38.2397 27.8608C38.2093 27.9871 38.176 28.1126 38.1405 28.2376C38.1263 28.2873 38.1131 28.3373 38.0982 28.3865C38.0765 28.4581 38.0532 28.5291 38.03 28.6001C38.0113 28.657 37.9921 28.7135 37.9723 28.7699C37.9499 28.8339 37.9278 28.898 37.9041 28.9615C37.8638 29.0695 37.8215 29.1764 37.7774 29.2825C37.7578 29.3298 37.7369 29.3767 37.7165 29.4239C37.6781 29.5121 37.6385 29.6 37.5974 29.6868C37.5926 29.6971 37.5877 29.7074 37.5829 29.7177C37.5681 29.7485 37.5535 29.7795 37.5384 29.8103C37.4923 29.9044 37.4443 29.9973 37.3951 30.0895C37.376 30.1253 37.3574 30.1616 37.3378 30.1973C37.3366 30.1996 37.3353 30.2018 37.3341 30.204C37.2802 30.3021 37.224 30.3986 37.1669 30.4945C37.1441 30.5325 37.1217 30.5707 37.0985 30.6082C37.0362 30.7093 36.9722 30.8092 36.9063 30.9076C36.8654 30.9688 36.8226 31.0288 36.7802 31.089C36.7442 31.1401 36.7084 31.1913 36.6715 31.2416C36.6237 31.3067 36.575 31.371 36.5255 31.435C36.4918 31.4785 36.4579 31.5216 36.4236 31.5646C36.3713 31.63 36.3185 31.6951 36.2647 31.7591C36.2312 31.7988 36.1968 31.8377 36.1627 31.8768C36.1066 31.9411 36.0507 32.0056 35.9931 32.0683C35.9588 32.1055 35.9233 32.1413 35.8885 32.1781C35.7947 32.277 35.6988 32.3737 35.601 32.4685C35.5429 32.5247 35.4852 32.5811 35.4257 32.6357C35.3846 32.6736 35.3424 32.7103 35.3005 32.7475C35.2323 32.8081 35.1636 32.868 35.0937 32.9266C35.0582 32.9563 35.0224 32.9858 34.9864 33.015C34.9019 33.0839 34.8162 33.1513 34.7292 33.2173C34.7055 33.2352 34.6822 33.2534 34.6583 33.2712C33.0763 34.4473 31.1181 35.1444 28.9998 35.1444C26.8813 35.1444 24.9228 34.4471 23.3407 33.2707C23.3174 33.2533 23.2945 33.2354 23.2713 33.2178C23.1839 33.1516 23.0978 33.0837 23.013 33.0146C22.9773 32.9854 22.9416 32.9563 22.9065 32.9267C22.8362 32.8679 22.7674 32.8076 22.6989 32.7469C22.6573 32.7098 22.6153 32.6734 22.5743 32.6357C22.5147 32.5809 22.4568 32.5244 22.3985 32.4682C22.3003 32.373 22.2042 32.276 22.1101 32.1768C22.0757 32.1406 22.0405 32.1052 22.0067 32.0685C21.949 32.0056 21.8931 31.9409 21.837 31.8766C21.8029 31.8375 21.7687 31.7988 21.7352 31.7591C21.6812 31.6951 21.6285 31.63 21.5762 31.5647C21.542 31.5218 21.5078 31.4786 21.4742 31.435C21.4249 31.3712 21.3761 31.3069 21.3283 31.2418C21.2914 31.1913 21.2554 31.14 21.2195 31.0887C21.1771 31.0286 21.1345 30.9688 21.0937 30.9078C21.0275 30.8089 20.9632 30.7086 20.9007 30.6073C20.8778 30.57 20.8557 30.5325 20.8333 30.495C20.7752 30.3977 20.7184 30.2999 20.6637 30.2004C20.6436 30.1638 20.6247 30.1266 20.6049 30.0898C20.5557 29.9973 20.5076 29.9041 20.4613 29.8099C20.4448 29.7764 20.4288 29.7426 20.4127 29.709C20.4102 29.7038 20.4079 29.6987 20.4056 29.6935C20.3624 29.6026 20.3212 29.5107 20.2808 29.4181C20.2617 29.374 20.2422 29.3301 20.2239 29.2859C20.1787 29.1775 20.1356 29.0682 20.0943 28.958C20.072 28.8985 20.0515 28.8384 20.0305 28.7784C20.0088 28.7169 19.9879 28.6549 19.9675 28.5928C19.9456 28.5256 19.9235 28.4583 19.9029 28.3907C19.8723 28.2896 19.8433 28.188 19.816 28.0857C19.7969 28.0139 19.7796 27.9415 19.762 27.8692C19.7483 27.8124 19.7351 27.7556 19.7225 27.6984C19.7069 27.6283 19.6912 27.5584 19.6771 27.488C19.6555 27.3784 19.6357 27.2682 19.618 27.1573C19.6083 27.0975 19.5999 27.0376 19.5913 26.9778C19.5787 26.8892 19.5674 26.8001 19.5572 26.7107C19.5523 26.6667 19.5465 26.6226 19.542 26.5785C19.5291 26.4473 19.5193 26.3151 19.5118 26.1824C19.5096 26.1443 19.5079 26.1061 19.5062 26.068C19.4998 25.9261 19.4953 25.7838 19.4953 25.6405C19.4953 25.487 19.4996 25.3346 19.507 25.1827C19.509 25.1415 19.5124 25.1005 19.5147 25.0594C19.5216 24.9454 19.5298 24.8318 19.5407 24.7187C19.5445 24.6793 19.549 24.6401 19.5532 24.6008C19.5666 24.4784 19.5817 24.3567 19.5998 24.2357C19.6032 24.2122 19.6066 24.1885 19.6103 24.165C20.148 20.73 22.5317 17.8993 25.7114 16.7231ZM7.33138 20.3848C7.33138 15.1441 11.5949 10.8804 16.8357 10.8804C19.5705 10.8804 22.1539 12.0709 23.9401 14.0771C19.7936 15.8783 16.9196 19.7731 16.4505 24.3232C16.4472 24.354 16.4449 24.385 16.4419 24.416C16.4263 24.5781 16.414 24.7408 16.4047 24.9045C16.4019 24.9543 16.3988 25.004 16.3965 25.054C16.3876 25.2488 16.3815 25.4442 16.3815 25.641C16.3815 25.8397 16.3873 26.0379 16.3966 26.236C16.4003 26.3157 16.4069 26.3946 16.412 26.4739C16.4197 26.5879 16.4274 26.7019 16.438 26.8155C16.4474 26.9166 16.4589 27.017 16.4707 27.1174C16.481 27.205 16.4919 27.2922 16.504 27.3794C16.5199 27.4938 16.5371 27.6078 16.5559 27.7213C16.5673 27.7887 16.5797 27.856 16.592 27.9233C16.6154 28.0503 16.6392 28.1771 16.6663 28.3027C16.6753 28.3441 16.6856 28.3853 16.695 28.4265C16.8007 28.8941 16.9319 29.3519 17.0883 29.7983C17.0982 29.8271 17.107 29.8563 17.1171 29.8849C17.0232 29.8877 16.9291 29.8891 16.8354 29.8891C11.5949 29.889 7.33138 25.6254 7.33138 20.3848ZM14.7752 40.2382C14.7409 40.2922 14.7082 40.3472 14.6746 40.4015C14.6034 40.5165 14.5329 40.6317 14.4647 40.748C14.4265 40.8129 14.3898 40.8783 14.3527 40.9437C14.2914 41.0516 14.2308 41.1599 14.172 41.269C14.1349 41.3377 14.0985 41.4067 14.0623 41.4756C14.0057 41.5842 13.9504 41.6933 13.8962 41.8028C13.8621 41.8716 13.8281 41.9403 13.7951 42.0094C13.74 42.1248 13.6869 42.2411 13.6344 42.3576C13.6059 42.421 13.5767 42.4839 13.5491 42.5476C13.4884 42.6871 13.4305 42.8277 13.3736 42.9688C13.357 43.01 13.3392 43.0508 13.323 43.0921C13.2509 43.2754 13.1819 43.4599 13.1165 43.6453C13.1016 43.6878 13.0882 43.7308 13.0734 43.7733C13.0242 43.9163 12.9762 44.0597 12.9309 44.2037C12.9102 44.2699 12.8911 44.3364 12.8711 44.4027C12.8345 44.5248 12.7986 44.647 12.7648 44.77C12.7447 44.8432 12.7255 44.9166 12.7064 44.9901C12.6756 45.1081 12.646 45.2264 12.6179 45.3452C12.6 45.4204 12.5826 45.4956 12.5659 45.571C12.5392 45.6914 12.5141 45.8122 12.49 45.9332C12.4755 46.0059 12.4605 46.0786 12.447 46.1517C12.4225 46.2834 12.4006 46.4157 12.3792 46.5483C12.3693 46.6105 12.3582 46.6725 12.3489 46.7348C12.3199 46.9294 12.2936 47.1245 12.2715 47.3206C12.2712 47.3229 12.271 47.3253 12.2709 47.3276C12.2508 47.5059 12.2335 47.6845 12.219 47.8637H3.11424V43.9592C3.11424 38.6249 6.18082 33.8359 10.9852 31.5598C12.7354 32.4797 14.7249 33.0034 16.8356 33.0034C17.4459 33.0034 18.0582 32.9582 18.6658 32.8688C18.7605 33.0038 18.8567 33.1374 18.9564 33.2685C18.99 33.3126 19.0249 33.3556 19.0591 33.3992C19.1575 33.525 19.2573 33.6494 19.3604 33.7713C19.4026 33.8213 19.4459 33.8702 19.4889 33.9196C19.5854 34.0304 19.6835 34.1399 19.7838 34.2472C19.8364 34.3037 19.89 34.3593 19.9436 34.4149C20.0353 34.5094 20.1282 34.6025 20.2228 34.6942C20.2583 34.7286 20.2917 34.7651 20.3276 34.7992C20.1922 34.8809 20.0582 34.9647 19.9253 35.0502C19.9037 35.064 19.8825 35.0787 19.861 35.0927C19.7282 35.179 19.5968 35.2671 19.4666 35.3569C19.4216 35.3881 19.3768 35.4195 19.3319 35.451C19.2159 35.5327 19.1012 35.6159 18.9873 35.7004C18.9514 35.7272 18.9149 35.7534 18.8793 35.7805C18.7345 35.8899 18.5914 36.0014 18.4501 36.1154C18.4193 36.1403 18.3891 36.166 18.3583 36.1912C18.2458 36.2833 18.1345 36.3769 18.0246 36.4718C17.9819 36.5086 17.9396 36.5456 17.8972 36.5829C17.7871 36.6799 17.6784 36.7783 17.5708 36.8781C17.5428 36.9041 17.5142 36.9296 17.4863 36.9559C17.3542 37.0802 17.2242 37.2068 17.0961 37.3356C17.0627 37.369 17.0302 37.4031 16.9972 37.4368C16.8991 37.5369 16.8021 37.6381 16.7063 37.7407C16.6683 37.7815 16.6303 37.8223 16.5926 37.8636C16.4849 37.9813 16.3787 38.1006 16.2742 38.2216C16.2579 38.2406 16.2409 38.2589 16.2245 38.2781C16.1054 38.4171 15.989 38.5588 15.874 38.7019C15.842 38.7418 15.8107 38.7823 15.7791 38.8226C15.6926 38.9324 15.6075 39.0433 15.5237 39.1552C15.4913 39.1985 15.4588 39.2415 15.4268 39.2851C15.3172 39.4346 15.209 39.5853 15.1039 39.7387C14.991 39.9034 14.8817 40.0702 14.7752 40.2382ZM15.2786 53.1199V50.9781V49.2154C15.2786 49.0426 15.2819 48.8704 15.2883 48.6986C15.2903 48.6421 15.2948 48.5861 15.2976 48.5297C15.3032 48.4151 15.3085 48.3003 15.3169 48.1862C15.322 48.1169 15.3298 48.0482 15.3361 47.9791C15.3451 47.8785 15.3532 47.7778 15.3644 47.6778C15.3726 47.6046 15.3834 47.5319 15.3927 47.4589C15.4049 47.3637 15.4162 47.2684 15.4303 47.1738C15.4416 47.0984 15.4553 47.0237 15.4678 46.9486C15.483 46.8573 15.4972 46.7658 15.5143 46.675C15.5288 46.5982 15.5456 46.5223 15.5614 46.4458C15.5794 46.3577 15.5967 46.2692 15.6165 46.1817C15.6339 46.1045 15.6539 46.028 15.6725 45.9511C15.6936 45.8655 15.7137 45.7794 15.7362 45.6942C15.7568 45.6168 15.7795 45.5402 15.8013 45.4634C15.825 45.3798 15.848 45.296 15.8733 45.213C15.8968 45.1358 15.9226 45.0592 15.9474 44.9824C15.9739 44.901 15.9995 44.8194 16.0274 44.7386C16.0539 44.6621 16.0824 44.5863 16.1101 44.5105C16.1394 44.4304 16.168 44.3501 16.1987 44.2707C16.228 44.1951 16.2591 44.1206 16.2895 44.0455C16.3214 43.9672 16.3529 43.8884 16.3862 43.8107C16.4184 43.7358 16.4524 43.6617 16.4858 43.5876C16.5202 43.5111 16.5543 43.4343 16.5902 43.3587C16.6252 43.2847 16.6619 43.2117 16.6982 43.1383C16.7353 43.0636 16.7719 42.9887 16.8102 42.9147C16.848 42.8419 16.8874 42.7699 16.9265 42.6978C16.966 42.6248 17.0051 42.5518 17.0459 42.4795C17.0864 42.4079 17.1285 42.3373 17.17 42.2665C17.2121 42.1952 17.2538 42.1237 17.2972 42.053C17.3404 41.9828 17.3849 41.9137 17.4293 41.8442C17.4738 41.7746 17.518 41.705 17.5638 41.6362C17.6096 41.5674 17.6566 41.4995 17.7037 41.4316C17.7505 41.3638 17.7972 41.2961 17.8452 41.2291C17.8935 41.1619 17.9431 41.0955 17.9928 41.0291C18.042 40.9632 18.0911 40.8973 18.1414 40.8324C18.1921 40.7668 18.2441 40.7022 18.2961 40.6374C18.3477 40.5733 18.3994 40.5093 18.452 40.4461C18.5051 40.3825 18.5593 40.3198 18.6135 40.2572C18.6675 40.1948 18.7217 40.1323 18.777 40.0706C18.8323 40.009 18.8888 39.9483 18.9451 39.8875C19.0015 39.827 19.0579 39.7667 19.1153 39.7072C19.173 39.6474 19.2317 39.5886 19.2905 39.5299C19.3492 39.4712 19.4082 39.4128 19.468 39.355C19.5277 39.2975 19.5882 39.2409 19.6491 39.1843C19.7102 39.1277 19.7715 39.0711 19.8336 39.0154C19.8956 38.96 19.9582 38.9053 20.0213 38.851C20.0845 38.7963 20.1482 38.742 20.2125 38.6884C20.2765 38.6351 20.3411 38.5827 20.4062 38.5305C20.4717 38.4779 20.5378 38.4257 20.6044 38.3742C20.6703 38.3234 20.7368 38.2733 20.8036 38.2234C20.8715 38.1728 20.9398 38.1228 21.0089 38.0735C21.0765 38.0251 21.1447 37.9774 21.2134 37.9301C21.2838 37.8817 21.3545 37.8338 21.4258 37.7867C21.4951 37.7409 21.565 37.6956 21.6352 37.6509C21.7079 37.6046 21.7811 37.559 21.8548 37.5142C21.9258 37.4709 21.9973 37.4281 22.0692 37.386C22.1439 37.3423 22.2193 37.2991 22.2951 37.2566C22.3678 37.2158 22.441 37.1755 22.5147 37.1359C22.5918 37.0945 22.6695 37.0539 22.7476 37.0137C22.8217 36.9756 22.8962 36.938 22.9712 36.9011C23.0302 36.8722 23.0899 36.8441 23.1495 36.816C24.8996 37.7359 26.8894 38.2594 28.9999 38.2594C31.1106 38.2594 33.1003 37.7359 34.8503 36.816C34.9095 36.844 34.9687 36.8719 35.0272 36.9005C35.1032 36.9379 35.1784 36.9759 35.2535 37.0143C35.3307 37.054 35.4076 37.0942 35.4839 37.1352C35.5583 37.1752 35.6323 37.216 35.7058 37.2572C35.7807 37.2993 35.8551 37.3418 35.9289 37.3851C36.002 37.4278 36.0744 37.4712 36.1463 37.5151C36.219 37.5595 36.2911 37.6043 36.3628 37.65C36.4341 37.6953 36.5048 37.741 36.575 37.7876C36.6455 37.8342 36.7154 37.8815 36.7849 37.9293C36.8542 37.9771 36.9232 38.0252 36.9915 38.0741C37.0599 38.123 37.1275 38.1725 37.1947 38.2227C37.2623 38.2728 37.3294 38.3234 37.3959 38.3748C37.4619 38.4259 37.5273 38.4776 37.5924 38.5297C37.6578 38.5822 37.7229 38.635 37.7874 38.6885C37.8514 38.7418 37.9146 38.7958 37.9775 38.8502C38.0409 38.9048 38.1039 38.9598 38.1662 39.0157C38.2279 39.071 38.2888 39.127 38.3493 39.1832C38.4107 39.2402 38.4719 39.2975 38.5321 39.3556C38.5915 39.4128 38.6498 39.4707 38.7079 39.5288C38.7671 39.5879 38.8263 39.6473 38.8843 39.7074C38.9413 39.7665 38.9976 39.8263 39.0535 39.8864C39.1104 39.9476 39.1673 40.009 39.223 40.0711C39.2778 40.1322 39.3316 40.194 39.3851 40.2559C39.4398 40.319 39.4944 40.3822 39.5478 40.4464C39.6003 40.5091 39.6515 40.5728 39.7028 40.6365C39.7551 40.7016 39.8074 40.7665 39.8585 40.8325C39.9086 40.8972 39.9574 40.9627 40.0063 41.0283C40.0561 41.0949 40.1059 41.1617 40.1545 41.2293C40.2023 41.2958 40.2489 41.3634 40.2954 41.4308C40.3426 41.499 40.3899 41.5672 40.4359 41.6363C40.4813 41.7047 40.5252 41.7738 40.5695 41.843C40.6142 41.9129 40.659 41.9826 40.7024 42.0533C40.7454 42.1232 40.7868 42.1942 40.8286 42.2649C40.8706 42.3363 40.913 42.4074 40.9536 42.4795C40.9942 42.5514 41.0332 42.6243 41.0726 42.6969C41.1118 42.7693 41.1514 42.8415 41.1892 42.9146C41.2275 42.9884 41.2639 43.0633 41.301 43.1379C41.3373 43.2112 41.3742 43.2844 41.4092 43.3585C41.445 43.4342 41.479 43.5106 41.5132 43.5869C41.5469 43.6615 41.581 43.7356 41.6132 43.8108C41.6464 43.8879 41.6774 43.9659 41.7091 44.0438C41.7399 44.1195 41.7714 44.1948 41.8008 44.2711C41.8314 44.3501 41.8598 44.43 41.889 44.5097C41.9168 44.5858 41.9453 44.6617 41.9718 44.7384C41.9998 44.8195 42.0257 44.9016 42.0522 44.9834C42.0769 45.0598 42.1026 45.136 42.126 45.213C42.1513 45.296 42.1742 45.38 42.1981 45.4636C42.2199 45.5403 42.2426 45.6168 42.2631 45.6942C42.2857 45.7794 42.3058 45.8653 42.3268 45.9511C42.3457 46.0279 42.3654 46.1045 42.3829 46.1817C42.4027 46.2692 42.4198 46.3575 42.438 46.4455C42.4537 46.5219 42.4705 46.5981 42.485 46.675C42.502 46.765 42.516 46.8558 42.5313 46.9464C42.5439 47.0222 42.5579 47.0976 42.5693 47.1739C42.5833 47.2678 42.5945 47.3625 42.6066 47.4568C42.6161 47.5305 42.627 47.6037 42.6353 47.6776C42.6465 47.7776 42.6546 47.8783 42.6636 47.9789C42.6699 48.0481 42.6776 48.1167 42.6828 48.186C42.6913 48.3002 42.6965 48.4151 42.7021 48.5299C42.7049 48.5861 42.7094 48.6421 42.7114 48.6985C42.7178 48.8702 42.7211 49.0424 42.7211 49.2153V50.9778V53.1199H15.2786ZM45.7816 47.8637C45.7511 47.4844 45.7072 47.1074 45.6514 46.7328C45.6426 46.6735 45.632 46.6146 45.6225 46.5554C45.6008 46.4198 45.5782 46.2845 45.5532 46.1496C45.5399 46.0786 45.5255 46.0079 45.5113 45.9371C45.4868 45.8139 45.4613 45.6911 45.4341 45.5687C45.4175 45.4949 45.4004 45.4211 45.383 45.3476C45.3545 45.2274 45.3246 45.1076 45.2934 44.9882C45.2746 44.9158 45.2558 44.8435 45.2358 44.7713C45.2017 44.647 45.1653 44.5234 45.1282 44.3999C45.1086 44.3348 45.0899 44.2696 45.0695 44.2046C45.0236 44.0584 44.975 43.913 44.925 43.7679C44.911 43.7274 44.8983 43.6864 44.8839 43.6459C44.8182 43.4599 44.7492 43.2749 44.6768 43.091C44.6613 43.0516 44.6443 43.0127 44.6284 42.9733C44.5709 42.8305 44.5121 42.688 44.4506 42.5466C44.4233 42.4839 44.3945 42.4219 44.3665 42.3595C44.3136 42.2417 44.26 42.1245 44.2042 42.008C44.1717 41.9398 44.1381 41.8721 44.1046 41.8043C44.0499 41.6938 43.994 41.5837 43.9369 41.4742C43.9011 41.4057 43.8651 41.3375 43.8284 41.2695C43.7692 41.16 43.7085 41.0513 43.6468 40.9429C43.6097 40.8779 43.5731 40.8128 43.5353 40.7481C43.4668 40.6312 43.3959 40.5155 43.3243 40.4C43.291 40.3461 43.2586 40.2918 43.2247 40.2383C43.118 40.0703 43.0087 39.9036 42.8956 39.7387C42.7904 39.5851 42.6822 39.4344 42.5725 39.2849C42.5408 39.2416 42.5084 39.1988 42.4763 39.1558C42.3921 39.0433 42.3066 38.9321 42.2199 38.8218C42.1886 38.7821 42.1576 38.742 42.1258 38.7026C42.0107 38.559 41.8938 38.417 41.7744 38.2776C41.7588 38.2596 41.7428 38.242 41.7272 38.2239C41.6219 38.102 41.5148 37.9818 41.4063 37.8631C41.3689 37.8223 41.3314 37.782 41.2937 37.7415C41.1974 37.6383 41.0998 37.5363 41.0011 37.4357C40.9686 37.4025 40.9366 37.369 40.9038 37.3362C40.7753 37.2073 40.6448 37.0802 40.5125 36.9556C40.4852 36.9299 40.4572 36.905 40.4298 36.8795C40.3216 36.7791 40.2123 36.6802 40.1017 36.5827C40.0597 36.5456 40.0173 36.5089 39.975 36.4721C39.8647 36.377 39.7534 36.2834 39.6408 36.1912C39.6101 36.1662 39.5801 36.1405 39.5492 36.1156C39.4082 36.0016 39.2651 35.8901 39.1204 35.7808C39.0843 35.7535 39.0475 35.7271 39.0113 35.7001C38.8979 35.616 38.7838 35.5332 38.6682 35.4519C38.6229 35.42 38.5776 35.3882 38.5321 35.3568C38.4032 35.2679 38.2732 35.1807 38.1418 35.0953C38.1187 35.0804 38.0961 35.0648 38.0731 35.05C37.9404 34.9649 37.8068 34.8812 37.6717 34.7996C37.7065 34.7665 37.7392 34.7311 37.7737 34.6975C37.8702 34.6041 37.965 34.5091 38.0585 34.4125C38.1106 34.3587 38.1625 34.3046 38.2135 34.2498C38.3155 34.1408 38.4149 34.0297 38.513 33.9171C38.5547 33.8693 38.5966 33.8218 38.6375 33.7732C38.742 33.6496 38.8436 33.5233 38.9434 33.3954C38.9761 33.3537 39.0095 33.3126 39.0416 33.2704C39.1417 33.1388 39.2384 33.0046 39.3336 32.8691C39.9412 32.9584 40.5534 33.0035 41.1638 33.0035C43.2745 33.0035 45.2642 32.48 47.0142 31.5599C51.8187 33.8361 54.8851 38.625 54.8851 43.9594V47.8637H45.7816Z" fill="white"/>
</g>
<rect x="46.5" y="0.5" width="19" height="19" rx="9.5" fill="#D80B0B"/>
<rect x="46.5" y="0.5" width="19" height="19" rx="9.5" stroke="#D80B0B"/>
<rect width="11.683" height="2.86114" transform="matrix(-0.707107 -0.707107 -0.707107 0.707107 61.0999 13.1611)" fill="white"/>
<rect width="11.683" height="2.86114" transform="matrix(-0.707107 0.707107 0.707107 0.707107 59.1611 4.81573)" fill="white"/>
<defs>
<clipPath id="clip0_338_407">
<rect width="58" height="58" fill="white" transform="translate(0 3)"/>
</clipPath>
</defs>
</svg>
