<svg width="30" height="26" viewBox="0 0 30 26" fill="none" xmlns="http://www.w3.org/2000/svg">
<path d="M3.4607 0.300186C3.09249 0.334109 2.7278 0.503993 2.57866 0.71142C2.2661 1.14585 1.95893 2.30969 1.87634 3.37526C1.83323 3.9545 1.82959 4.09032 1.84765 4.52837C1.93212 6.44845 2.41712 7.75 3.55231 9.11041C3.68339 9.26769 3.83792 9.44119 3.8972 9.49657C3.95648 9.5502 4.00498 9.60558 4.00498 9.61818C4.00498 9.62891 3.96187 9.704 3.90798 9.7827C3.48764 10.4102 2.56977 12.654 2.16196 14.0555C2.0434 14.4668 2.00932 14.5329 1.86381 14.6384C1.69137 14.7618 1.51178 14.919 1.18656 15.2247C0.433857 15.9363 0.376465 16.0095 0.376465 16.2742C0.376465 16.5119 0.44477 16.6979 0.633383 16.9803C0.748302 17.1538 1.41303 17.8135 1.66981 18.0101C1.89615 18.1836 2.13501 18.3355 2.45121 18.5089C2.57879 18.5786 2.70274 18.6483 2.72605 18.6626C2.80324 18.7092 2.93622 18.9379 3.13022 19.3545C3.33864 19.7997 3.52536 20.1125 3.77514 20.4272C3.81111 20.4737 3.89545 20.5863 3.962 20.6756C4.44162 21.339 5.41702 22.3007 6.27386 22.9569C6.98345 23.5004 7.81146 24.0045 8.60728 24.38C9.3007 24.7071 10.5275 25.1094 11.4149 25.3025C11.5335 25.3275 11.7149 25.3686 11.8191 25.3919C12.3077 25.5026 12.658 25.5616 13.2651 25.635C13.4232 25.6528 13.5974 25.6779 13.6513 25.6886C13.7807 25.7137 15.8806 25.7154 16.0943 25.6904C16.1787 25.6796 16.3691 25.6582 16.5165 25.644C16.6655 25.6279 16.8703 25.6046 16.9746 25.5903C17.0787 25.576 17.2098 25.5582 17.2673 25.5528C17.5529 25.5206 18.6864 25.2935 19.0511 25.1952C19.3852 25.104 20.0696 24.8609 20.4863 24.6857C20.7234 24.5855 20.9947 24.4729 21.0881 24.4372C21.1814 24.3997 21.3719 24.3102 21.5102 24.2352C21.6485 24.1618 21.8839 24.0385 22.0311 23.9616C22.2646 23.8419 22.9867 23.3877 23.3514 23.1321C23.6191 22.9462 24.016 22.6154 24.3736 22.2829C24.4777 22.1864 24.6161 22.0647 24.6808 22.013C24.8694 21.8609 25.5825 21.1137 25.8142 20.8241C25.8644 20.7597 25.9472 20.6632 25.9938 20.6078C26.0423 20.5523 26.0819 20.4987 26.0819 20.4898C26.0819 20.4826 26.1052 20.4469 26.1321 20.4128C26.2705 20.2448 26.5866 19.7585 26.7232 19.5011C26.7626 19.4279 26.8202 19.3223 26.8489 19.2687C26.8776 19.2151 26.9495 19.0578 27.0069 18.9218C27.1416 18.6037 27.183 18.5518 27.3752 18.4464C27.6697 18.2855 28.1009 17.9815 28.4602 17.6794C28.6775 17.4952 29.1715 17.009 29.1715 16.9786C29.1715 16.9678 29.1985 16.9267 29.2308 16.8856C29.2937 16.8087 29.4373 16.5227 29.4769 16.4029C29.5218 16.2616 29.4373 16.0078 29.281 15.8111C29.2325 15.7504 28.965 15.4839 28.6883 15.2211C28.1009 14.6633 27.9087 14.4649 27.8584 14.3666C27.7937 14.2396 27.6697 13.9178 27.3447 13.0382C26.9566 11.987 26.3567 10.6766 25.9722 10.0313C25.8914 9.89895 25.8196 9.76849 25.8124 9.74167C25.7909 9.66484 25.8357 9.58614 26.0011 9.41987C26.2867 9.12851 26.3675 9.02473 26.8579 8.3043C27.0411 8.03613 27.2045 7.7036 27.474 7.04753C27.632 6.66674 27.8027 6.11431 27.8602 5.80686C27.8674 5.76221 27.8872 5.65843 27.9034 5.57449C27.9769 5.18123 28.0075 4.86653 28.0165 4.36774C28.0237 3.9726 28.0183 3.81894 27.9967 3.63471C27.9806 3.50599 27.959 3.30929 27.95 3.19666C27.9051 2.70859 27.835 2.26706 27.7236 1.77537C27.5962 1.21584 27.4938 0.940434 27.3177 0.681251C27.2153 0.532821 27.1901 0.509624 27.0735 0.441644C26.8273 0.302197 26.786 0.295091 26.0908 0.296834C25.5411 0.296834 25.4603 0.300454 25.2735 0.33612C25.1604 0.357573 25.0184 0.382647 24.9591 0.391497C24.6304 0.443387 24.0143 0.623863 23.5383 0.809837C23.0784 0.98857 22.3562 1.34791 22.1228 1.51243C22.0743 1.54636 21.909 1.65899 21.7546 1.76277C21.6 1.86467 21.4186 1.99513 21.3485 2.05065C21.2803 2.10602 21.1868 2.174 21.1437 2.20444C20.9803 2.31533 20.6192 2.6496 20.3067 2.98387C20.1288 3.17158 19.9062 3.40931 19.8127 3.50773C19.7193 3.60789 19.6133 3.72937 19.5792 3.77764C19.5451 3.82765 19.493 3.8778 19.4643 3.89201C19.4158 3.91521 19.4013 3.91172 19.2218 3.82229C18.8319 3.62921 18.3846 3.47367 17.7308 3.30205C17.077 3.13216 16.9619 3.11071 16.3458 3.04635C15.9542 3.00519 14.9716 2.97488 14.4974 2.9891C13.7789 3.01229 13.6873 3.01953 13.4267 3.06418C13.3478 3.07853 13.2543 3.08926 13.2202 3.08926C13.1502 3.08926 12.8251 3.14463 12.5826 3.19827C12.4298 3.23219 12.2304 3.28046 11.8102 3.38598C11.5641 3.4486 10.9587 3.68097 10.6893 3.81679C10.5671 3.87941 10.4576 3.92942 10.445 3.92942C10.4343 3.92942 10.3929 3.88477 10.3534 3.82926C10.3157 3.77389 10.251 3.68982 10.2116 3.64517C10.1002 3.51819 9.98523 3.37874 9.88823 3.25002C9.76253 3.08376 9.47153 2.79052 9.24156 2.59744C9.13378 2.508 8.97386 2.37043 8.88952 2.29173C8.71169 2.12908 8.5321 1.99674 8.16026 1.75365C7.23875 1.15658 6.35497 0.748963 5.49273 0.525446C4.94845 0.384256 4.59453 0.325259 4.194 0.309169C4.05563 0.303806 3.87066 0.2967 3.7808 0.293079C3.69282 0.289459 3.54732 0.293079 3.4611 0.300186H3.4607Z" fill="#A0A0A0"/>
<path d="M4.22509 9.01854C4.22509 9.01854 9.11741 5.06828 10.5959 4.64801C12.0743 4.22775 3.4152 -1.21662 2.5314 0.529728C1.6476 2.27607 1.19136 7.92591 4.22495 9.01854H4.22509Z" fill="#7B7C7C"/>
<path d="M25.722 9.01855C25.722 9.01855 20.8297 5.06829 19.3512 4.64802C17.8727 4.22776 26.5319 -1.21675 27.4157 0.529599C28.2993 2.27594 28.7557 7.92578 25.7221 9.01841L25.722 9.01855Z" fill="#7B7C7C"/>
<path d="M3.32187 12.8215C3.32187 12.8215 6.28707 8.50254 10.1312 8.5504C13.9754 8.59827 13.7402 12.3614 15.0702 12.3384C16.4001 12.3154 18.7272 8.20764 20.5123 8.54999C22.2974 8.89235 27.2398 11.3299 27.5356 14.6077C27.8313 17.8856 24.3266 23.7689 14.9266 23.7689C5.52668 23.7689 2.23181 16.961 2.23181 16.961V15.0984L3.32201 12.8215H3.32187Z" fill="white"/>
<path d="M3.15644 0.00848061C2.77962 0.0431826 2.40638 0.216967 2.25375 0.429156C1.93387 0.873561 1.61951 2.06413 1.53499 3.15415C1.49087 3.74669 1.48715 3.88564 1.50563 4.33375C1.59208 6.2979 2.08844 7.62933 3.25019 9.02098C3.38435 9.18187 3.5425 9.35936 3.60316 9.41601C3.66383 9.47087 3.71346 9.52752 3.71346 9.54041C3.71346 9.55138 3.66934 9.62819 3.61419 9.70871C3.18401 10.3506 2.24465 12.6459 1.82729 14.0796C1.70596 14.5003 1.67108 14.5679 1.52217 14.6759C1.34569 14.8021 1.1619 14.963 0.829059 15.2757C0.0588738 16.0033 0 16.0782 0 16.349C0 16.5922 0.0699041 16.7824 0.262933 17.0713C0.380543 17.2488 1.06083 17.9236 1.32363 18.1247C1.55526 18.3022 1.79972 18.4576 2.12332 18.6349C2.25389 18.7063 2.38074 18.7776 2.40459 18.7923C2.48359 18.8399 2.61968 19.0739 2.81822 19.5C3.03152 19.9554 3.22262 20.2754 3.47824 20.5973C3.51506 20.6449 3.60137 20.7601 3.66948 20.8515C4.16033 21.53 5.15856 22.5139 6.03546 23.1851C6.76167 23.7411 7.60906 24.2568 8.42351 24.6408C9.13317 24.9755 10.3887 25.387 11.2969 25.5845C11.4182 25.6102 11.6039 25.6521 11.7105 25.676C12.2106 25.7893 12.5691 25.8497 13.1904 25.9247C13.3522 25.9429 13.5305 25.9686 13.5857 25.9795C13.718 26.0052 15.8671 26.007 16.0858 25.9813C16.1722 25.9704 16.3671 25.9484 16.5179 25.9339C16.6704 25.9174 16.88 25.8935 16.9867 25.879C17.0933 25.8643 17.2274 25.8461 17.2863 25.8406C17.5786 25.8077 18.7386 25.5753 19.1118 25.4748C19.4537 25.3815 20.1542 25.1328 20.5806 24.9536C20.8233 24.8511 21.101 24.7359 21.1965 24.6994C21.2921 24.661 21.487 24.5695 21.6285 24.4927C21.7701 24.4177 22.011 24.2915 22.1617 24.2129C22.4006 24.0904 23.1396 23.6258 23.5129 23.3643C23.7868 23.1742 24.193 22.8358 24.5589 22.4956C24.6655 22.3969 24.8071 22.2725 24.8733 22.2195C25.0663 22.064 25.7961 21.2996 26.0333 21.0033C26.0847 20.9375 26.1694 20.8387 26.2171 20.7821C26.2667 20.7253 26.3072 20.6704 26.3072 20.6614C26.3072 20.654 26.3311 20.6175 26.3587 20.5826C26.5003 20.4108 26.8237 19.9133 26.9635 19.6499C27.0039 19.575 27.0628 19.4671 27.0922 19.4122C27.1215 19.3574 27.1952 19.1965 27.2539 19.0574C27.3918 18.7319 27.4341 18.6788 27.6309 18.571C27.9323 18.4064 28.3735 18.0955 28.7412 17.7864C28.9636 17.598 29.4692 17.1006 29.4692 17.0695C29.4692 17.0585 29.4968 17.0164 29.5298 16.9745C29.5942 16.8957 29.7412 16.6032 29.7818 16.4807C29.8277 16.3361 29.7412 16.0765 29.5813 15.8752C29.5316 15.8131 29.2578 15.5406 28.9746 15.2717C28.3735 14.7011 28.1769 14.4981 28.1253 14.3976C28.0591 14.2677 27.9323 13.9385 27.5996 13.0387C27.2025 11.9634 26.5885 10.6229 26.195 9.96273C26.1123 9.82735 26.0388 9.6939 26.0315 9.66646C26.0094 9.58787 26.0553 9.50736 26.2245 9.33728C26.5168 9.03922 26.5995 8.93306 27.1014 8.19609C27.2889 7.92176 27.4562 7.5816 27.7319 6.91047C27.8937 6.52093 28.0683 5.95582 28.1272 5.64131C28.1345 5.59563 28.1548 5.48947 28.1713 5.40361C28.2466 5.00131 28.2779 4.67939 28.2872 4.16915C28.2945 3.76493 28.2889 3.60775 28.2669 3.41929C28.2503 3.28761 28.2283 3.08639 28.219 2.97118C28.1731 2.47191 28.1014 2.02023 27.9874 1.51726C27.857 0.944885 27.7522 0.663154 27.572 0.398021C27.4672 0.246182 27.4414 0.222453 27.322 0.152912C27.0701 0.0102637 27.0278 0.00299413 26.3163 0.00477724C25.7538 0.00477724 25.6711 0.0084806 25.48 0.0449657C25.3641 0.0669116 25.2188 0.0925609 25.1582 0.101614C24.8217 0.154695 24.1912 0.339315 23.7041 0.529559C23.2334 0.712396 22.4944 1.07999 22.2554 1.24829C22.2058 1.28299 22.0366 1.39821 21.8786 1.50437C21.7204 1.60861 21.5347 1.74207 21.463 1.79886C21.3933 1.8555 21.2976 1.92504 21.2535 1.95618C21.0862 2.06961 20.7167 2.41156 20.3968 2.7535C20.2148 2.94553 19.9869 3.18872 19.8912 3.28939C19.7957 3.39185 19.6872 3.51612 19.6523 3.5655C19.6174 3.61666 19.564 3.66796 19.5347 3.6825C19.485 3.70623 19.4703 3.70266 19.2865 3.61118C18.8875 3.41366 18.4297 3.25455 17.7606 3.07899C17.0915 2.9052 16.9737 2.88326 16.3432 2.81742C15.9424 2.77531 14.9369 2.74431 14.4515 2.75885C13.7162 2.78258 13.6225 2.78999 13.3558 2.83566C13.275 2.85034 13.1793 2.86131 13.1444 2.86131C13.0727 2.86131 12.7401 2.91796 12.4919 2.97282C12.3355 3.00753 12.1315 3.0569 11.7014 3.16485C11.4495 3.22891 10.83 3.46661 10.5543 3.60555C10.4292 3.66961 10.3171 3.72077 10.3043 3.72077C10.2933 3.72077 10.2509 3.67509 10.2105 3.61831C10.1719 3.56166 10.1058 3.47566 10.0654 3.42998C9.95133 3.30009 9.83372 3.15744 9.73445 3.02577C9.60581 2.85569 9.30799 2.55571 9.07264 2.3582C8.96234 2.26671 8.79867 2.12599 8.71236 2.04547C8.53036 1.87909 8.34657 1.74372 7.96603 1.49504C7.02295 0.884259 6.11847 0.467287 5.23605 0.238638C4.67902 0.0942068 4.31682 0.0338556 3.90691 0.0173961C3.76531 0.0119097 3.576 0.00464007 3.48404 0.000936702C3.394 -0.00276667 3.24509 0.000936702 3.15685 0.00820628L3.15644 0.00848061ZM26.7005 0.974101C26.8035 1.08932 27.0406 1.76237 27.1233 2.17564C27.2502 2.80658 27.3181 3.76672 27.2813 4.3812C27.2427 5.00117 27.0883 5.74734 26.8732 6.34536C26.7391 6.72023 26.4486 7.32566 26.2354 7.67679C25.9467 8.15233 25.5864 8.65517 25.5239 8.66984C25.4651 8.68452 25.4596 8.67904 25.3823 8.52171C25.2978 8.35163 25.0735 8.01517 25.0018 7.95112C24.9301 7.88898 24.8732 7.7975 24.8732 7.74633C24.8732 7.7189 24.8988 7.69517 24.9669 7.66225C25.1048 7.59271 25.2096 7.48669 25.351 7.2745C25.5992 6.9069 25.7942 6.42409 25.9652 5.74926C26.1361 5.07812 26.1655 4.79283 26.1655 3.88564C26.1637 3.28034 26.1582 3.14867 26.1342 3.07186C26.1176 3.02069 26.1048 2.95294 26.1048 2.92002C26.1048 2.88888 26.0993 2.86145 26.092 2.86145C26.0828 2.86145 26.0203 2.84869 25.9486 2.83402C25.6342 2.7664 25.1029 2.82483 24.5257 2.99134C23.737 3.21999 23.0402 3.67537 22.2167 4.50012C22.0715 4.64455 22.0163 4.71231 21.8214 4.98293C21.6394 5.23709 21.4905 5.56272 21.4905 5.70715C21.4905 5.79863 21.5677 5.87174 21.8343 6.03455C22.4666 6.41861 22.8913 6.8209 23.5917 7.69517C23.9852 8.18896 24.7132 9.31368 25.0643 9.97576C25.2334 10.2922 25.5772 11.0145 25.7022 11.3145C25.8198 11.598 25.9246 11.801 26.0313 11.9582C26.1893 12.1923 26.2961 12.4282 26.5442 13.1068C26.7391 13.6425 26.8953 14.1071 26.8953 14.1528C26.8953 14.1692 26.888 14.1821 26.8807 14.1821C26.8734 14.1821 26.7887 14.1181 26.6931 14.0395C26.5975 13.9607 26.4155 13.8236 26.2886 13.734C25.6599 13.2914 25.5368 13.2018 25.2041 12.9477C24.3841 12.3222 24.2131 12.2033 23.6414 11.8467C22.8913 11.3803 22.3398 11.1078 21.7295 10.903C21.0199 10.6634 20.4353 10.5775 19.505 10.572C19.0713 10.572 18.9921 10.5757 18.779 10.6141C18.049 10.7421 17.7181 10.8775 16.6612 11.481C15.9956 11.8595 15.7622 11.9675 15.5526 11.9894C15.4772 11.9967 15.332 12.0206 15.2308 12.0425C14.968 12.0974 14.6444 12.1084 14.4514 12.0717C14.3356 12.0498 14.2915 12.048 14.2712 12.0625C14.2142 12.1119 13.7859 11.9054 13.227 11.5578C12.2491 10.9525 11.8943 10.7751 11.4346 10.6617C10.8959 10.5283 10.1772 10.5136 9.33516 10.6178C8.25419 10.7495 7.57211 11.0165 6.18603 11.8468C5.61066 12.1907 5.35145 12.3735 4.7521 12.8563C4.45249 13.0977 3.77592 13.6062 3.48362 13.8109C3.32368 13.9225 3.11232 14.0725 2.9339 14.2042L2.88054 14.2426L2.89337 14.1584C2.93376 13.8987 3.09743 13.3867 3.32175 12.8216C3.5276 12.304 3.63611 12.0662 3.7096 11.973C3.77758 11.887 3.81811 11.7974 3.91545 11.5121C4.01845 11.2104 4.10476 11.0128 4.33281 10.5557C4.43581 10.3472 4.53315 10.1497 4.54611 10.1168C4.62332 9.93571 4.93217 9.5005 5.20971 9.18036C5.41198 8.94993 5.59577 8.67561 5.79983 8.30253C5.99658 7.9422 6.10868 7.77404 6.34031 7.48504C6.68225 7.05888 7.43051 6.38953 8.04269 5.95802C8.16402 5.87202 8.27432 5.78972 8.28535 5.77326C8.32396 5.72566 8.31293 5.63431 8.24303 5.45504C8.13272 5.16604 8.01511 4.97772 7.73191 4.63578C7.4727 4.32305 7.23555 4.1018 6.84577 3.8091C6.15638 3.28967 5.49085 2.96597 4.84379 2.83251C4.636 2.78862 4.55879 2.78313 4.25367 2.78135C3.8603 2.77956 3.86582 2.77764 3.79771 2.9148C3.75179 3.00629 3.7205 3.14524 3.70023 3.35551L3.6874 3.49267L3.67458 3.37745C3.66355 3.26594 3.63598 3.20737 3.6084 3.2348C3.59916 3.24207 3.59006 3.32259 3.58634 3.41407L3.58083 3.58045L3.62867 3.57126C3.68561 3.56029 3.68382 3.53656 3.65804 4.05956C3.63777 4.51123 3.66355 5.07085 3.7205 5.40374C3.81977 5.97804 4.09925 6.70034 4.39513 7.13747C4.51467 7.31674 4.84737 7.68063 4.90983 7.69888C4.96126 7.71534 4.95395 7.73728 4.86571 7.84152C4.68192 8.0592 4.39872 8.54009 4.36563 8.69015C4.36011 8.72306 4.34729 8.7542 4.33984 8.75777C4.32509 8.76696 4.04754 8.44874 3.90787 8.26028C3.85824 8.19266 3.71112 7.97677 3.58069 7.78117C3.042 6.97466 2.74418 6.17912 2.59169 5.14766C2.49063 4.45815 2.5182 3.34632 2.65787 2.58726C2.72033 2.24161 2.93183 1.47721 3.05675 1.1498L3.11742 0.986994L3.41896 0.988777C4.1322 0.994263 4.91534 1.13869 5.58819 1.38929C6.32901 1.6654 7.18385 2.11721 7.68214 2.49385C8.04986 2.77366 8.55353 3.25099 8.96895 3.71185C9.29062 4.07026 9.32013 4.11607 9.32013 4.26228C9.32013 4.45609 9.44698 4.77074 9.61615 4.99569C9.664 5.05974 9.7026 5.09266 9.72825 5.09266C9.75031 5.09266 9.85137 5.04507 9.95257 4.98842C10.4747 4.69585 10.6989 4.58969 11.131 4.4288C12.0097 4.09961 12.7231 3.93502 13.7783 3.81802C14.3408 3.75588 15.6993 3.79058 16.4659 3.88564C17.2914 3.98988 18.2547 4.27339 19.1187 4.66293C19.7677 4.9555 20.0637 5.07442 20.1464 5.07442C20.2071 5.07442 20.2751 5.0031 20.3395 4.86772C20.3982 4.7488 20.4056 4.71588 20.413 4.53853C20.424 4.31729 20.4185 4.33375 20.5987 4.05942C20.7641 3.80526 20.8652 3.68456 21.1869 3.35715C21.72 2.81399 22.4149 2.29278 23.1356 1.89953C23.4886 1.70572 23.7459 1.58859 24.1743 1.4314C24.6559 1.25213 25.0291 1.14788 25.4465 1.07848C25.5824 1.05475 26.4759 0.954075 26.6395 0.943102C26.6561 0.941319 26.6818 0.955858 26.7002 0.974238L26.7005 0.974101ZM9.41251 12.1244C9.61105 12.1554 9.72315 12.1865 9.83345 12.2432C9.93451 12.2926 10.0467 12.395 10.0724 12.4591C10.0944 12.5102 10.1 12.512 10.3003 12.5304C10.6312 12.5614 10.8867 12.6821 11.1331 12.9272C11.5725 13.3624 11.6846 13.8709 11.453 14.3555C11.3464 14.5749 11.2195 14.6884 10.9327 14.8218C10.5614 14.9919 10.1919 15.0011 9.8886 14.8475C9.68454 14.745 9.46021 14.5073 9.36287 14.2916C9.20845 13.9459 9.22499 13.4557 9.4052 13.0991C9.44201 13.026 9.48613 12.9492 9.50268 12.9309C9.53025 12.898 9.53025 12.8961 9.49537 12.909C9.4751 12.9162 9.37225 12.9419 9.26553 12.9656C8.72326 13.0863 8.30769 13.2911 8.01539 13.5819C7.67345 13.922 7.48966 14.2861 7.41976 14.7524C7.36461 15.1145 7.38294 15.3468 7.49325 15.6997C7.61458 16.0837 7.80582 16.3929 8.10915 16.6909C8.62385 17.1939 9.32247 17.4042 9.97326 17.2543C10.431 17.1481 10.9035 16.8885 11.2031 16.5775C11.4623 16.3069 11.6278 15.9667 11.784 15.3797C11.8833 15.0066 11.8906 14.9956 12.0046 15.1053C12.1204 15.2188 12.1608 15.3303 12.1572 15.5351C12.1535 15.7545 12.1131 15.9905 12.0487 16.1515C11.9016 16.5226 11.694 16.8518 11.4825 17.0458C10.9585 17.5322 10.1331 18.0004 9.66979 18.0753C9.3426 18.1284 8.837 18.0753 8.43812 17.9456C8.26895 17.8907 7.92343 17.7169 7.72847 17.587C7.53916 17.4608 7.27802 17.2213 7.12911 17.0403C6.82757 16.6727 6.57208 16.1002 6.48757 15.6064C6.41408 15.173 6.46371 14.5732 6.61262 14.1013C6.67701 13.8928 6.88838 13.4649 7.02998 13.2491C7.29649 12.8431 7.71206 12.5085 8.23048 12.2816C8.60178 12.1189 9.01914 12.0641 9.41251 12.1244ZM20.9868 12.1244C21.235 12.1683 21.4077 12.2195 21.6008 12.309C22.2074 12.5925 22.7185 13.1065 23.0439 13.7575C23.4483 14.564 23.4814 15.4418 23.1414 16.2483C23.0402 16.4879 22.9043 16.7385 22.7774 16.9141C22.5972 17.1665 22.248 17.4847 21.9777 17.6438C21.7221 17.7937 21.1505 17.984 20.7975 18.0333C20.3232 18.1027 19.768 17.9895 19.1962 17.7114C18.7863 17.5102 18.4902 17.2743 18.2678 16.9653C17.8946 16.4478 17.6759 15.9246 17.6539 15.4949C17.6428 15.2791 17.6575 15.2114 17.7366 15.151C17.8487 15.0632 17.9773 15.1438 18.0159 15.3266C18.073 15.6009 18.2789 16.0618 18.4701 16.3435C18.7808 16.8025 19.0289 17.0037 19.4775 17.1628C19.8139 17.2798 20.075 17.3182 20.3581 17.289C20.9004 17.2341 21.3618 17.0129 21.713 16.6361C22.0567 16.2685 22.1983 15.9685 22.2976 15.4144C22.3325 15.2206 22.3343 15.1712 22.3177 15.0213C22.2663 14.5695 22.1064 14.1562 21.8434 13.7923C21.531 13.3606 21.0457 13.0552 20.4316 12.909C20.325 12.8833 20.2054 12.8522 20.1668 12.8376C20.1264 12.823 20.0933 12.8157 20.0933 12.8175C20.0933 12.8212 20.1302 12.8467 20.1761 12.8741C20.2771 12.9309 20.3526 13.0297 20.4335 13.2033C20.5308 13.41 20.5603 13.5325 20.5584 13.7155C20.5566 14.1726 20.2956 14.6445 19.9482 14.82C19.6834 14.9554 19.358 14.9809 19.0914 14.8877C18.8101 14.7908 18.5363 14.6006 18.4205 14.4195C18.2348 14.1325 18.2237 13.6806 18.3929 13.3624C18.6005 12.9711 18.8948 12.726 19.5694 12.3786C19.8414 12.2396 20.0272 12.1664 20.222 12.1262C20.3857 12.0915 20.7865 12.0896 20.9868 12.1244ZM15.2915 16.5885C15.7181 16.6507 16.3964 16.85 16.7199 17.0092C16.9535 17.1226 17.0508 17.2067 17.3965 17.587C17.6888 17.9089 18.1079 18.3003 18.3708 18.4978C18.6667 18.7192 19.3488 19.1324 19.7587 19.3372C20.3544 19.6335 20.9537 19.8292 21.5824 19.9317C22.0585 20.0085 22.2185 20.0212 22.6486 20.0212C23.0788 20.0212 23.2701 20.003 23.8418 19.906C24.0164 19.8749 24.1948 19.8511 24.2389 19.8511C24.3124 19.8511 24.9191 19.7616 25.1269 19.6829C25.2297 19.6427 25.4467 19.5439 25.6103 19.4653C25.7721 19.3866 25.91 19.3207 25.9136 19.3207C25.9394 19.3207 25.6636 19.778 25.4834 20.034C25.272 20.334 24.9173 20.793 24.7702 20.9594C24.3272 21.4532 23.7278 21.9927 23.1671 22.3987C22.9134 22.5834 22.3711 22.9492 22.1615 23.079C21.1946 23.6734 19.8856 24.2421 18.8065 24.5384C17.9056 24.7853 17.6428 24.8366 16.7108 24.9426C15.5802 25.0725 14.2546 25.0505 12.8593 24.8785C12.1204 24.7872 11.3997 24.6226 10.4511 24.3281C9.62208 24.072 8.8279 23.7301 8.03924 23.293C7.3351 22.9016 6.86825 22.5742 6.1954 22.0018C5.95095 21.7951 5.24501 21.0911 5.02441 20.8387C4.61629 20.3651 4.16405 19.6536 4.23202 19.586C4.23754 19.5786 4.31654 19.5988 4.40671 19.628C4.59243 19.692 5.71752 19.8274 5.72303 19.8219C5.72676 19.8164 5.7524 19.8219 5.77818 19.831C5.93081 19.8896 6.5099 19.9646 6.98599 19.9883C7.4676 20.014 8.15148 19.9426 8.63129 19.8219C9.42174 19.6189 10.4733 19.1434 11.2142 18.6533C11.5689 18.4174 11.716 18.2912 12.2804 17.7371C12.8393 17.1902 12.9459 17.1042 13.264 16.9525C13.5673 16.8099 14.1004 16.6416 14.4313 16.5867C14.628 16.5538 15.0619 16.5538 15.2916 16.5885H15.2915Z" fill="black"/>
<path d="M14.4404 4.84236C14.3834 4.85882 14.3596 4.88077 14.3301 4.93742C14.297 5.00325 14.2934 5.04536 14.2952 5.37633C14.297 5.6726 14.3044 5.77685 14.3356 5.92128C14.4018 6.2303 14.4478 6.27241 14.7254 6.27063C14.9056 6.26885 15.0214 6.2432 15.0783 6.1956C15.1445 6.13703 15.1721 5.93403 15.1721 5.48606C15.1721 5.03809 15.1518 4.86787 15.0967 4.84415C15.0379 4.82042 14.5195 4.8185 14.4404 4.84236Z" fill="black"/>
<path d="M16.1961 5.0728C16.1152 5.08378 16.1134 5.08556 16.0894 5.17526C16.0728 5.23013 16.06 5.41489 16.0545 5.6434C16.0417 6.16091 16.0728 6.26515 16.2751 6.36761C16.3781 6.41877 16.5747 6.44442 16.6998 6.42069C16.7807 6.40602 16.799 6.37132 16.8634 6.1354C16.9572 5.79345 17.0031 5.32162 16.9535 5.20091C16.9093 5.09118 16.5325 5.02905 16.1961 5.07294V5.0728Z" fill="black"/>
<path d="M12.9788 5.13673C12.6479 5.22451 12.6204 5.25922 12.6351 5.58484C12.6479 5.89208 12.7344 6.16092 12.8557 6.27792C12.9495 6.3694 13.0488 6.39492 13.3281 6.40589C13.5304 6.41138 13.5818 6.40767 13.6003 6.38765C13.6866 6.2834 13.6535 5.38911 13.5561 5.20078C13.4973 5.08735 13.2638 5.05992 12.9788 5.13673Z" fill="black"/>
<path d="M19.3672 7.77764C19.3066 7.79589 19.2274 7.82702 19.1926 7.84526C19.1006 7.89286 18.9113 8.09037 18.8634 8.18721C18.7752 8.37005 18.7807 8.61337 18.88 8.84737C18.9775 9.08151 19.0584 9.1254 19.3286 9.09796C19.4205 9.08877 19.5914 9.07972 19.7092 9.07972C19.972 9.07972 20.1374 9.11813 20.4665 9.25529C20.7717 9.38326 20.825 9.38518 20.9298 9.27175C21.0659 9.12732 21.178 8.86397 21.178 8.69197C21.178 8.61145 21.0585 8.36826 20.9592 8.24207C20.8067 8.05183 20.5327 7.88724 20.2276 7.80686C19.9849 7.74102 19.54 7.72635 19.3672 7.77764Z" fill="black"/>
<path d="M9.91443 7.80137C9.72512 7.81604 9.50259 7.86542 9.36292 7.92755C9.0651 8.05923 8.77101 8.38663 8.7011 8.66823C8.67353 8.78166 8.67353 8.7999 8.7011 8.9298C8.7415 9.11634 8.85001 9.33031 8.93453 9.38696C9.01546 9.44182 9.05035 9.43455 9.30956 9.31563C9.41986 9.26447 9.55594 9.2059 9.61289 9.18574C9.88134 9.09425 10.1847 9.06325 10.5008 9.09796C10.7711 9.12717 10.7913 9.11812 10.8942 8.93707C11.0652 8.63901 11.0872 8.43409 10.9751 8.22204C10.8685 8.02453 10.6921 7.89656 10.4494 7.83799C10.2637 7.79231 10.1479 7.78491 9.91443 7.80137Z" fill="black"/>
<path d="M14.6885 17.5763C14.1021 17.6167 13.5892 17.7776 13.3778 17.9897C13.1939 18.1726 13.0966 18.4469 13.1131 18.7359C13.1277 18.9956 13.2234 19.2442 13.4035 19.4876C13.6058 19.76 13.8411 19.9191 14.3227 20.1148C14.5195 20.1934 14.5268 20.2812 14.3613 20.5445C14.1094 20.9505 13.7418 21.128 13.3594 21.0293C13.0432 20.9487 12.8043 20.733 12.6002 20.3415C12.5413 20.2318 12.4752 20.1276 12.4513 20.113C12.3979 20.0782 12.227 20.0891 12.0927 20.135C11.8886 20.2063 11.747 20.4111 11.7728 20.5976C11.8077 20.85 12.1626 21.3365 12.488 21.5815C12.876 21.8705 13.4182 22.0076 13.8612 21.929C14.1315 21.8797 14.3337 21.7809 14.6536 21.5413C14.7511 21.47 14.8484 21.4004 14.8705 21.3877C14.9183 21.362 14.9128 21.3602 15.1297 21.5468C15.604 21.9545 16.1648 22.1174 16.6262 21.982C17.163 21.8248 17.6538 21.4462 17.9664 20.947C18.0822 20.7604 18.1061 20.6671 18.0638 20.5574C18.0161 20.4312 17.8873 20.3031 17.7366 20.2263C17.4921 20.1056 17.4314 20.135 17.1079 20.5355C16.8817 20.8171 16.8027 20.8902 16.6629 20.9487C16.3174 21.0969 15.957 21.0567 15.7143 20.8408C15.5305 20.6781 15.3357 20.2958 15.3816 20.1934C15.3926 20.1697 15.5067 20.0891 15.6574 20.0014C16.0159 19.7893 16.2126 19.6118 16.3982 19.3265C16.514 19.1529 16.5766 18.9901 16.6152 18.7706C16.6428 18.6023 16.6428 18.5786 16.6152 18.4432C16.5122 17.9459 16.1464 17.6696 15.5067 17.6038C15.2934 17.5818 14.8338 17.5673 14.6885 17.5763ZM15.4423 18.1616C15.5618 18.2165 15.5967 18.2622 15.5839 18.3444C15.5691 18.4304 15.5012 18.5164 15.3909 18.5878C15.1758 18.7249 14.7842 18.8145 14.5709 18.7743C14.4698 18.7559 14.354 18.7066 14.2621 18.6426C14.1977 18.5968 14.0911 18.4342 14.0617 18.3354C14.0397 18.2604 14.0397 18.2531 14.0783 18.2237C14.1573 18.1598 14.5599 18.1159 15.0287 18.1214C15.321 18.1232 15.3688 18.1287 15.4423 18.1616Z" fill="black"/>
</svg>
