<svg width="160" height="24" viewBox="0 0 160 24" fill="none" xmlns="http://www.w3.org/2000/svg">
<path d="M146.487 0.73877H148.739V2.99097H146.487V0.73877ZM148.739 0.73877H150.991V2.99097H148.739V0.73877ZM148.739 2.99097H150.991V5.24317H148.739V2.99097ZM148.739 5.24317H150.991V7.49536H148.739V5.24317ZM148.739 7.49536H150.991V9.74756H148.739V7.49536ZM146.487 7.49536H148.739V9.74756H146.487V7.49536ZM146.487 5.24317H148.739V7.49536H146.487V5.24317ZM146.487 2.99097H148.739V5.24317H146.487V2.99097ZM146.487 9.74756H148.739V11.9998H146.487V9.74756ZM146.487 11.9998H148.739V14.252H146.487V11.9998ZM146.487 14.252H148.739V16.5042H146.487V14.252ZM148.739 11.9998H150.991V14.252H148.739V11.9998ZM148.739 9.74756H150.991V11.9998H148.739V9.74756ZM148.739 14.252H150.991V16.5042H148.739V14.252ZM148.739 16.5042H150.991V18.7564H148.739V16.5042ZM146.487 18.7564H148.739V21.0086H146.487V18.7564ZM146.487 16.5042H148.739V18.7564H146.487V16.5042ZM146.487 21.0086H148.739V23.2608H146.487V21.0086ZM148.739 21.0086H150.991V23.2608H148.739V21.0086ZM148.739 18.7564H150.991V21.0086H148.739V18.7564ZM150.991 21.0086H153.243V23.2608H150.991V21.0086ZM153.243 21.0086H155.496V23.2608H153.243V21.0086ZM155.496 21.0086H157.748V23.2608H155.496V21.0086ZM155.496 18.7564H157.748V21.0086H155.496V18.7564ZM153.243 18.7564H155.496V21.0086H153.243V18.7564ZM150.991 18.7564H153.243V21.0086H150.991V18.7564ZM150.991 0.73877H153.243V2.99097H150.991V0.73877ZM153.243 0.73877H155.496V2.99097H153.243V0.73877ZM155.496 0.73877H157.748V2.99097H155.496V0.73877ZM157.748 0.73877H160V2.99097H157.748V0.73877ZM155.496 2.99097H157.748V5.24317H155.496V2.99097ZM153.243 2.99097H155.496V5.24317H153.243V2.99097ZM150.991 2.99097H153.243V5.24317H150.991V2.99097ZM150.991 11.9998H153.243V14.252H150.991V11.9998ZM153.243 9.74756H155.496V11.9998H153.243V9.74756ZM150.991 9.74756H153.243V11.9998H150.991V9.74756ZM153.243 11.9998H155.496V14.252H153.243V11.9998ZM157.748 2.99097H160V5.24317H157.748V2.99097ZM157.748 18.7564H160V21.0086H157.748V18.7564ZM157.748 21.0086H160V23.2608H157.748V21.0086ZM155.496 9.74756H157.748V11.9998H155.496V9.74756ZM155.496 11.9998H157.748V14.252H155.496V11.9998Z" fill="#A7D22D"/>
<path d="M123.947 21.0086H126.199V23.2608H123.947V21.0086ZM123.947 18.7564H126.199V21.0086H123.947V18.7564ZM123.947 16.5042H126.199V18.7564H123.947V16.5042ZM123.947 14.252H126.199V16.5042H123.947V14.252ZM123.947 11.9998H126.199V14.252H123.947V11.9998ZM123.947 9.74756H126.199V11.9998H123.947V9.74756ZM126.199 9.74756H128.452V11.9998H126.199V9.74756ZM126.199 7.49536H128.452V9.74756H126.199V7.49536ZM126.199 5.24317H128.452V7.49536H126.199V5.24317ZM126.199 2.99097H128.452V5.24317H126.199V2.99097ZM123.947 2.99097H126.199V5.24317H123.947V2.99097ZM123.947 0.73877H126.199V2.99097H123.947V0.73877ZM123.947 5.24317H126.199V7.49536H123.947V5.24317ZM123.947 7.49536H126.199V9.74756H123.947V7.49536ZM126.199 0.73877H128.452V2.99097H126.199V0.73877ZM126.199 11.9998H128.452V14.252H126.199V11.9998ZM126.199 14.252H128.452V16.5042H126.199V14.252ZM126.199 16.5042H128.452V18.7564H126.199V16.5042ZM126.199 18.7564H128.452V21.0086H126.199V18.7564ZM126.199 21.0086H128.452V23.2608H126.199V21.0086ZM128.452 5.24317H130.704V7.49536H128.452V5.24317ZM128.452 7.49536H130.704V9.74756H128.452V7.49536ZM130.704 7.49536H132.956V9.74756H130.704V7.49536ZM130.704 9.74756H132.956V11.9998H130.704V9.74756ZM132.956 9.74756H135.208V11.9998H132.956V9.74756ZM132.956 11.9998H135.208V14.252H132.956V11.9998ZM135.208 9.74756H137.46V11.9998H135.208V9.74756ZM135.208 7.49536H137.46V9.74756H135.208V7.49536ZM137.46 7.49536H139.713V9.74756H137.46V7.49536ZM137.46 5.24317H139.713V7.49536H137.46V5.24317ZM139.713 0.73877H141.965V2.99097H139.713V0.73877ZM139.713 2.99097H141.965V5.24317H139.713V2.99097ZM139.713 5.24317H141.965V7.49536H139.713V5.24317ZM139.713 7.49536H141.965V9.74756H139.713V7.49536ZM139.713 9.74756H141.965V11.9998H139.713V9.74756ZM139.713 11.9998H141.965V14.252H139.713V11.9998ZM139.713 14.252H141.965V16.5042H139.713V14.252ZM139.713 16.5042H141.965V18.7564H139.713V16.5042ZM139.713 18.7564H141.965V21.0086H139.713V18.7564ZM139.713 21.0086H141.965V23.2608H139.713V21.0086ZM141.965 21.0086H144.217V23.2608H141.965V21.0086ZM141.965 18.7564H144.217V21.0086H141.965V18.7564ZM141.965 16.5042H144.217V18.7564H141.965V16.5042ZM141.965 14.252H144.217V16.5042H141.965V14.252ZM141.965 11.9998H144.217V14.252H141.965V11.9998ZM141.965 9.74756H144.217V11.9998H141.965V9.74756ZM141.965 7.49536H144.217V9.74756H141.965V7.49536ZM141.965 5.24317H144.217V7.49536H141.965V5.24317ZM141.965 2.99097H144.217V5.24317H141.965V2.99097ZM141.965 0.73877H144.217V2.99097H141.965V0.73877ZM128.452 2.99097H130.704V5.24317H128.452V2.99097ZM130.704 5.24317H132.956V7.49536H130.704V5.24317ZM132.956 7.49536H135.208V9.74756H132.956V7.49536ZM135.208 5.24317H137.46V7.49536H135.208V5.24317ZM137.46 2.99097H139.713V5.24317H137.46V2.99097Z" fill="#A7D22D"/>
<path d="M108.182 0.73877H110.434V2.99097H108.182V0.73877ZM110.434 0.73877H112.686V2.99097H110.434V0.73877ZM110.434 2.99097H112.686V5.24317H110.434V2.99097ZM110.434 5.24317H112.686V7.49536H110.434V5.24317ZM110.434 7.49536H112.686V9.74756H110.434V7.49536ZM108.182 7.49536H110.434V9.74756H108.182V7.49536ZM108.182 5.24317H110.434V7.49536H108.182V5.24317ZM108.182 2.99097H110.434V5.24317H108.182V2.99097ZM108.182 9.74756H110.434V11.9998H108.182V9.74756ZM108.182 11.9998H110.434V14.252H108.182V11.9998ZM108.182 14.252H110.434V16.5042H108.182V14.252ZM110.434 11.9998H112.686V14.252H110.434V11.9998ZM110.434 9.74756H112.686V11.9998H110.434V9.74756ZM110.434 14.252H112.686V16.5042H110.434V14.252ZM110.434 16.5042H112.686V18.7564H110.434V16.5042ZM108.182 18.7564H110.434V21.0086H108.182V18.7564ZM108.182 16.5042H110.434V18.7564H108.182V16.5042ZM108.182 21.0086H110.434V23.2608H108.182V21.0086ZM110.434 21.0086H112.686V23.2608H110.434V21.0086ZM110.434 18.7564H112.686V21.0086H110.434V18.7564ZM112.686 21.0086H114.938V23.2608H112.686V21.0086ZM114.938 21.0086H117.191V23.2608H114.938V21.0086ZM117.191 21.0086H119.443V23.2608H117.191V21.0086ZM117.191 18.7564H119.443V21.0086H117.191V18.7564ZM114.938 18.7564H117.191V21.0086H114.938V18.7564ZM112.686 18.7564H114.938V21.0086H112.686V18.7564ZM112.686 0.73877H114.938V2.99097H112.686V0.73877ZM114.938 0.73877H117.191V2.99097H114.938V0.73877ZM117.191 0.73877H119.443V2.99097H117.191V0.73877ZM119.443 0.73877H121.695V2.99097H119.443V0.73877ZM117.191 2.99097H119.443V5.24317H117.191V2.99097ZM114.938 2.99097H117.191V5.24317H114.938V2.99097ZM112.686 2.99097H114.938V5.24317H112.686V2.99097ZM112.686 11.9998H114.938V14.252H112.686V11.9998ZM114.938 9.74756H117.191V11.9998H114.938V9.74756ZM112.686 9.74756H114.938V11.9998H112.686V9.74756ZM114.938 11.9998H117.191V14.252H114.938V11.9998ZM119.443 2.99097H121.695V5.24317H119.443V2.99097ZM119.443 18.7564H121.695V21.0086H119.443V18.7564ZM119.443 21.0086H121.695V23.2608H119.443V21.0086ZM117.191 9.74756H119.443V11.9998H117.191V9.74756ZM117.191 11.9998H119.443V14.252H117.191V11.9998Z" fill="#A7D22D"/>
<path d="M85.6422 21.0086H87.8944V23.2608H85.6422V21.0086ZM85.6422 18.7564H87.8944V21.0086H85.6422V18.7564ZM85.6422 16.5042H87.8944V18.7564H85.6422V16.5042ZM85.6422 14.252H87.8944V16.5042H85.6422V14.252ZM85.6422 11.9998H87.8944V14.252H85.6422V11.9998ZM85.6422 9.74756H87.8944V11.9998H85.6422V9.74756ZM87.8944 9.74756H90.1466V11.9998H87.8944V9.74756ZM87.8944 7.49536H90.1466V9.74756H87.8944V7.49536ZM87.8944 5.24317H90.1466V7.49536H87.8944V5.24317ZM87.8944 2.99097H90.1466V5.24317H87.8944V2.99097ZM85.6422 2.99097H87.8944V5.24317H85.6422V2.99097ZM85.6422 0.73877H87.8944V2.99097H85.6422V0.73877ZM85.6422 5.24317H87.8944V7.49536H85.6422V5.24317ZM85.6422 7.49536H87.8944V9.74756H85.6422V7.49536ZM87.8944 0.73877H90.1466V2.99097H87.8944V0.73877ZM87.8944 11.9998H90.1466V14.252H87.8944V11.9998ZM87.8944 14.252H90.1466V16.5042H87.8944V14.252ZM87.8944 16.5042H90.1466V18.7564H87.8944V16.5042ZM87.8944 18.7564H90.1466V21.0086H87.8944V18.7564ZM87.8944 21.0086H90.1466V23.2608H87.8944V21.0086ZM90.1466 5.24317H92.3988V7.49536H90.1466V5.24317ZM90.1466 7.49536H92.3988V9.74756H90.1466V7.49536ZM92.3988 7.49536H94.651V9.74756H92.3988V7.49536ZM92.3988 9.74756H94.651V11.9998H92.3988V9.74756ZM94.651 9.74756H96.9032V11.9998H94.651V9.74756ZM94.651 11.9998H96.9032V14.252H94.651V11.9998ZM96.9032 9.74756H99.1554V11.9998H96.9032V9.74756ZM96.9032 7.49536H99.1554V9.74756H96.9032V7.49536ZM99.1554 7.49536H101.408V9.74756H99.1554V7.49536ZM99.1554 5.24317H101.408V7.49536H99.1554V5.24317ZM101.408 0.73877H103.66V2.99097H101.408V0.73877ZM101.408 2.99097H103.66V5.24317H101.408V2.99097ZM101.408 5.24317H103.66V7.49536H101.408V5.24317ZM101.408 7.49536H103.66V9.74756H101.408V7.49536ZM101.408 9.74756H103.66V11.9998H101.408V9.74756ZM101.408 11.9998H103.66V14.252H101.408V11.9998ZM101.408 14.252H103.66V16.5042H101.408V14.252ZM101.408 16.5042H103.66V18.7564H101.408V16.5042ZM101.408 18.7564H103.66V21.0086H101.408V18.7564ZM101.408 21.0086H103.66V23.2608H101.408V21.0086ZM103.66 21.0086H105.912V23.2608H103.66V21.0086ZM103.66 18.7564H105.912V21.0086H103.66V18.7564ZM103.66 16.5042H105.912V18.7564H103.66V16.5042ZM103.66 14.252H105.912V16.5042H103.66V14.252ZM103.66 11.9998H105.912V14.252H103.66V11.9998ZM103.66 9.74756H105.912V11.9998H103.66V9.74756ZM103.66 7.49536H105.912V9.74756H103.66V7.49536ZM103.66 5.24317H105.912V7.49536H103.66V5.24317ZM103.66 2.99097H105.912V5.24317H103.66V2.99097ZM103.66 0.73877H105.912V2.99097H103.66V0.73877ZM90.1466 2.99097H92.3988V5.24317H90.1466V2.99097ZM92.3988 5.24317H94.651V7.49536H92.3988V5.24317ZM94.651 7.49536H96.9032V9.74756H94.651V7.49536ZM96.9032 5.24317H99.1554V7.49536H96.9032V5.24317ZM99.1554 2.99097H101.408V5.24317H99.1554V2.99097Z" fill="#A7D22D"/>
<path d="M78.868 18.7563H81.1202V21.0085H78.868V18.7563ZM81.1202 18.7563H83.3724V21.0085H81.1202V18.7563ZM81.1202 21.0085H83.3724V23.2607H81.1202V21.0085ZM78.868 21.0085H81.1202V23.2607H78.868V21.0085Z" fill="#A7D22D"/>
<path d="M63.0968 0.73877H65.349V2.99097H63.0968V0.73877ZM63.0968 2.99097H65.349V5.24317H63.0968V2.99097ZM63.0968 5.24317H65.349V7.49536H63.0968V5.24317ZM65.349 5.24317H67.6012V7.49536H65.349V5.24317ZM65.349 7.49536H67.6012V9.74756H65.349V7.49536ZM67.6012 7.49536H69.8534V9.74756H67.6012V7.49536ZM69.8534 7.49536H72.1056V9.74756H69.8534V7.49536ZM69.8534 5.24317H72.1056V7.49536H69.8534V5.24317ZM72.1056 5.24317H74.3578V7.49536H72.1056V5.24317ZM74.3578 5.24317H76.61V7.49536H74.3578V5.24317ZM74.3578 2.99097H76.61V5.24317H74.3578V2.99097ZM74.3578 0.73877H76.61V2.99097H74.3578V0.73877ZM72.1056 0.73877H74.3578V2.99097H72.1056V0.73877ZM72.1056 2.99097H74.3578V5.24317H72.1056V2.99097ZM72.1056 7.49536H74.3578V9.74756H72.1056V7.49536ZM63.0968 7.49536H65.349V9.74756H63.0968V7.49536ZM60.8446 5.24317H63.0968V7.49536H60.8446V5.24317ZM60.8446 2.99097H63.0968V5.24317H60.8446V2.99097ZM60.8446 0.73877H63.0968V2.99097H60.8446V0.73877ZM65.349 9.74756H67.6012V11.9998H65.349V9.74756ZM67.6012 9.74756H69.8534V11.9998H67.6012V9.74756ZM69.8534 9.74756H72.1056V11.9998H69.8534V9.74756ZM69.8534 11.9998H72.1056V14.252H69.8534V11.9998ZM72.1056 11.9998H74.3578V14.252H72.1056V11.9998ZM72.1056 14.252H74.3578V16.5042H72.1056V14.252ZM69.8534 14.252H72.1056V16.5042H69.8534V14.252ZM74.3578 21.0086H76.61V23.2608H74.3578V21.0086ZM74.3578 18.7564H76.61V21.0086H74.3578V18.7564ZM74.3578 16.5042H76.61V18.7564H74.3578V16.5042ZM74.3578 14.252H76.61V16.5042H74.3578V14.252ZM72.1056 16.5042H74.3578V18.7564H72.1056V16.5042ZM72.1056 18.7564H74.3578V21.0086H72.1056V18.7564ZM72.1056 21.0086H74.3578V23.2608H72.1056V21.0086ZM60.8446 21.0086H63.0968V23.2608H60.8446V21.0086ZM63.0968 21.0086H65.349V23.2608H63.0968V21.0086ZM63.0968 18.7564H65.349V21.0086H63.0968V18.7564ZM63.0968 16.5042H65.349V18.7564H63.0968V16.5042ZM60.8446 16.5042H63.0968V18.7564H60.8446V16.5042ZM60.8446 14.252H63.0968V16.5042H60.8446V14.252ZM60.8446 18.7564H63.0968V21.0086H60.8446V18.7564ZM63.0968 14.252H65.349V16.5042H63.0968V14.252ZM65.349 14.252H67.6012V16.5042H65.349V14.252ZM65.349 11.9998H67.6012V14.252H65.349V11.9998ZM63.0968 11.9998H65.349V14.252H63.0968V11.9998ZM67.6012 11.9998H69.8534V14.252H67.6012V11.9998Z" fill="#D9D9D9"/>
<path d="M54.0703 21.0086H56.3225V23.2608H54.0703V21.0086ZM56.3225 21.0086H58.5747V23.2608H56.3225V21.0086ZM56.3225 18.7564H58.5747V21.0086H56.3225V18.7564ZM56.3225 16.5042H58.5747V18.7564H56.3225V16.5042ZM56.3225 14.252H58.5747V16.5042H56.3225V14.252ZM56.3225 11.9998H58.5747V14.252H56.3225V11.9998ZM56.3225 9.74756H58.5747V11.9998H56.3225V9.74756ZM54.0703 9.74756H56.3225V11.9998H54.0703V9.74756ZM54.0703 11.9998H56.3225V14.252H54.0703V11.9998ZM54.0703 14.252H56.3225V16.5042H54.0703V14.252ZM54.0703 16.5042H56.3225V18.7564H54.0703V16.5042ZM54.0703 18.7564H56.3225V21.0086H54.0703V18.7564ZM54.0703 7.49536H56.3225V9.74756H54.0703V7.49536ZM56.3225 7.49536H58.5747V9.74756H56.3225V7.49536ZM56.3225 5.24317H58.5747V7.49536H56.3225V5.24317ZM56.3225 2.99097H58.5747V5.24317H56.3225V2.99097ZM56.3225 0.73877H58.5747V2.99097H56.3225V0.73877ZM54.0703 0.73877H56.3225V2.99097H54.0703V0.73877ZM54.0703 2.99097H56.3225V5.24317H54.0703V2.99097ZM54.0703 5.24317H56.3225V7.49536H54.0703V5.24317Z" fill="#D9D9D9"/>
<path d="M40.5513 0.73877H42.8035V2.99097H40.5513V0.73877ZM38.2991 0.73877H40.5513V2.99097H38.2991V0.73877ZM38.2991 2.99097H40.5513V5.24317H38.2991V2.99097ZM40.5513 2.99097H42.8035V5.24317H40.5513V2.99097ZM42.8035 2.99097H45.0557V5.24317H42.8035V2.99097ZM42.8035 0.73877H45.0557V2.99097H42.8035V0.73877ZM45.0557 0.73877H47.3079V2.99097H45.0557V0.73877ZM47.3079 0.73877H49.5601V2.99097H47.3079V0.73877ZM47.3079 2.99097H49.5601V5.24317H47.3079V2.99097ZM45.0557 2.99097H47.3079V5.24317H45.0557V2.99097ZM45.0557 5.24317H47.3079V7.49536H45.0557V5.24317ZM47.3079 5.24317H49.5601V7.49536H47.3079V5.24317ZM49.5601 2.99097H51.8123V5.24317H49.5601V2.99097ZM49.5601 5.24317H51.8123V7.49536H49.5601V5.24317ZM49.5601 7.49536H51.8123V9.74756H49.5601V7.49536ZM49.5601 9.74756H51.8123V11.9998H49.5601V9.74756ZM49.5601 11.9998H51.8123V14.252H49.5601V11.9998ZM49.5601 14.252H51.8123V16.5042H49.5601V14.252ZM49.5601 16.5042H51.8123V18.7564H49.5601V16.5042ZM49.5601 18.7564H51.8123V21.0086H49.5601V18.7564ZM47.3079 18.7564H49.5601V21.0086H47.3079V18.7564ZM47.3079 16.5042H49.5601V18.7564H47.3079V16.5042ZM47.3079 14.252H49.5601V16.5042H47.3079V14.252ZM47.3079 11.9998H49.5601V14.252H47.3079V11.9998ZM47.3079 9.74756H49.5601V11.9998H47.3079V9.74756ZM47.3079 7.49536H49.5601V9.74756H47.3079V7.49536ZM45.0557 16.5042H47.3079V18.7564H45.0557V16.5042ZM45.0557 18.7564H47.3079V21.0086H45.0557V18.7564ZM47.3079 21.0086H49.5601V23.2608H47.3079V21.0086ZM45.0557 21.0086H47.3079V23.2608H45.0557V21.0086ZM42.8035 21.0086H45.0557V23.2608H42.8035V21.0086ZM42.8035 18.7564H45.0557V21.0086H42.8035V18.7564ZM40.5513 21.0086H42.8035V23.2608H40.5513V21.0086ZM38.2991 21.0086H40.5513V23.2608H38.2991V21.0086ZM38.2991 18.7564H40.5513V21.0086H38.2991V18.7564ZM40.5513 18.7564H42.8035V21.0086H40.5513V18.7564ZM38.2991 16.5042H40.5513V18.7564H38.2991V16.5042ZM36.0469 18.7564H38.2991V21.0086H36.0469V18.7564ZM36.0469 16.5042H38.2991V18.7564H36.0469V16.5042ZM36.0469 14.252H38.2991V16.5042H36.0469V14.252ZM36.0469 11.9998H38.2991V14.252H36.0469V11.9998ZM36.0469 9.74756H38.2991V11.9998H36.0469V9.74756ZM36.0469 7.49536H38.2991V9.74756H36.0469V7.49536ZM36.0469 5.24317H38.2991V7.49536H36.0469V5.24317ZM38.2991 5.24317H40.5513V7.49536H38.2991V5.24317ZM36.0469 2.99097H38.2991V5.24317H36.0469V2.99097ZM38.2991 7.49536H40.5513V9.74756H38.2991V7.49536ZM38.2991 9.74756H40.5513V11.9998H38.2991V9.74756ZM38.2991 11.9998H40.5513V14.252H38.2991V11.9998ZM38.2991 14.252H40.5513V16.5042H38.2991V14.252ZM36.0469 21.0086H38.2991V23.2608H36.0469V21.0086ZM36.0469 0.73877H38.2991V2.99097H36.0469V0.73877Z" fill="#D9D9D9"/>
<path d="M22.5278 2.99097H24.78V5.24317H22.5278V2.99097ZM24.78 2.99097H27.0322V5.24317H24.78V2.99097ZM24.78 0.73877H27.0322V2.99097H24.78V0.73877ZM27.0322 2.99097H29.2844V5.24317H27.0322V2.99097ZM27.0322 5.24317H29.2844V7.49536H27.0322V5.24317ZM29.2844 5.24317H31.5366V7.49536H29.2844V5.24317ZM24.78 5.24317H27.0322V7.49536H24.78V5.24317ZM22.5278 5.24317H24.78V7.49536H22.5278V5.24317ZM20.2756 5.24317H22.5278V7.49536H20.2756V5.24317ZM20.2756 7.49536H22.5278V9.74756H20.2756V7.49536ZM18.0234 7.49536H20.2756V9.74756H18.0234V7.49536ZM22.5278 7.49536H24.78V9.74756H22.5278V7.49536ZM20.2756 9.74756H22.5278V11.9998H20.2756V9.74756ZM20.2756 11.9998H22.5278V14.252H20.2756V11.9998ZM20.2756 14.252H22.5278V16.5042H20.2756V14.252ZM22.5278 14.252H24.78V16.5042H22.5278V14.252ZM24.78 14.252H27.0322V16.5042H24.78V14.252ZM27.0322 14.252H29.2844V16.5042H27.0322V14.252ZM29.2844 14.252H31.5366V16.5042H29.2844V14.252ZM31.5366 14.252H33.7888V16.5042H31.5366V14.252ZM31.5366 11.9998H33.7888V14.252H31.5366V11.9998ZM31.5366 9.74756H33.7888V11.9998H31.5366V9.74756ZM31.5366 7.49536H33.7888V9.74756H31.5366V7.49536ZM29.2844 7.49536H31.5366V9.74756H29.2844V7.49536ZM27.0322 7.49536H29.2844V9.74756H27.0322V7.49536ZM29.2844 9.74756H31.5366V11.9998H29.2844V9.74756ZM29.2844 11.9998H31.5366V14.252H29.2844V11.9998ZM29.2844 16.5042H31.5366V18.7564H29.2844V16.5042ZM31.5366 16.5042H33.7888V18.7564H31.5366V16.5042ZM31.5366 18.7564H33.7888V21.0086H31.5366V18.7564ZM31.5366 21.0086H33.7888V23.2608H31.5366V21.0086ZM29.2844 21.0086H31.5366V23.2608H29.2844V21.0086ZM29.2844 18.7564H31.5366V21.0086H29.2844V18.7564ZM27.0322 16.5042H29.2844V18.7564H27.0322V16.5042ZM24.78 16.5042H27.0322V18.7564H24.78V16.5042ZM22.5278 16.5042H24.78V18.7564H22.5278V16.5042ZM20.2756 16.5042H22.5278V18.7564H20.2756V16.5042ZM20.2756 18.7564H22.5278V21.0086H20.2756V18.7564ZM20.2756 21.0086H22.5278V23.2608H20.2756V21.0086ZM18.0234 21.0086H20.2756V23.2608H18.0234V21.0086ZM18.0234 18.7564H20.2756V21.0086H18.0234V18.7564ZM18.0234 16.5042H20.2756V18.7564H18.0234V16.5042ZM18.0234 14.252H20.2756V16.5042H18.0234V14.252ZM18.0234 11.9998H20.2756V14.252H18.0234V11.9998ZM18.0234 9.74756H20.2756V11.9998H18.0234V9.74756Z" fill="#D9D9D9"/>
<path d="M2.2522 11.9998H4.5044V14.252H2.2522V11.9998ZM4.5044 11.9998H6.7566V14.252H4.5044V11.9998ZM6.7566 11.9998H9.00879V14.252H6.7566V11.9998ZM9.00879 11.9998H11.261V14.252H9.00879V11.9998ZM4.5044 14.252H6.7566V16.5042H4.5044V14.252ZM2.2522 14.252H4.5044V16.5042H2.2522V14.252ZM6.7566 14.252H9.00879V16.5042H6.7566V14.252ZM9.00879 14.252H11.261V16.5042H9.00879V14.252ZM11.261 16.5042H13.5132V18.7564H11.261V16.5042ZM13.5132 14.252H15.7654V16.5042H13.5132V14.252ZM11.261 14.252H13.5132V16.5042H11.261V14.252ZM13.5132 16.5042H15.7654V18.7564H13.5132V16.5042ZM11.261 18.7564H13.5132V21.0086H11.261V18.7564ZM13.5132 18.7564H15.7654V21.0086H13.5132V18.7564ZM13.5132 21.0086H15.7654V23.2608H13.5132V21.0086ZM11.261 21.0086H13.5132V23.2608H11.261V21.0086ZM2.2522 21.0086H4.5044V23.2608H2.2522V21.0086ZM0 21.0086H2.2522V23.2608H0V21.0086ZM0 18.7564H2.2522V21.0086H0V18.7564ZM2.2522 18.7564H4.5044V21.0086H2.2522V18.7564ZM2.2522 16.5042H4.5044V18.7564H2.2522V16.5042ZM0 16.5042H2.2522V18.7564H0V16.5042ZM0 14.252H2.2522V16.5042H0V14.252ZM0 11.9998H2.2522V14.252H0V11.9998ZM0 9.74756H2.2522V11.9998H0V9.74756ZM2.2522 9.74756H4.5044V11.9998H2.2522V9.74756ZM0 0.73877H2.2522V2.99097H0V0.73877ZM2.2522 0.73877H4.5044V2.99097H2.2522V0.73877ZM4.5044 0.73877H6.7566V2.99097H4.5044V0.73877ZM6.7566 0.73877H9.00879V2.99097H6.7566V0.73877ZM9.00879 0.73877H11.261V2.99097H9.00879V0.73877ZM11.261 0.73877H13.5132V2.99097H11.261V0.73877ZM11.261 2.99097H13.5132V5.24317H11.261V2.99097ZM9.00879 2.99097H11.261V5.24317H9.00879V2.99097ZM6.7566 2.99097H9.00879V5.24317H6.7566V2.99097ZM4.5044 2.99097H6.7566V5.24317H4.5044V2.99097ZM2.2522 2.99097H4.5044V5.24317H2.2522V2.99097ZM0 2.99097H2.2522V5.24317H0V2.99097ZM0 5.24317H2.2522V7.49536H0V5.24317ZM0 7.49536H2.2522V9.74756H0V7.49536ZM2.2522 7.49536H4.5044V9.74756H2.2522V7.49536ZM2.2522 5.24317H4.5044V7.49536H2.2522V5.24317ZM11.261 5.24317H13.5132V7.49536H11.261V5.24317ZM13.5132 5.24317H15.7654V7.49536H13.5132V5.24317ZM13.5132 2.99097H15.7654V5.24317H13.5132V2.99097ZM13.5132 7.49536H15.7654V9.74756H13.5132V7.49536ZM11.261 7.49536H13.5132V9.74756H11.261V7.49536ZM11.261 9.74756H13.5132V11.9998H11.261V9.74756ZM13.5132 9.74756H15.7654V11.9998H13.5132V9.74756ZM11.261 11.9998H13.5132V14.252H11.261V11.9998Z" fill="#D9D9D9"/>
</svg>
