<svg width="51" height="51" viewBox="0 0 51 51" fill="none" xmlns="http://www.w3.org/2000/svg">
<g clip-path="url(#clip0_87_467)">
<path d="M25.4993 50.9985C39.5821 50.9985 50.9985 39.5821 50.9985 25.4993C50.9985 11.4164 39.5821 0 25.4993 0C11.4164 0 0 11.4164 0 25.4993C0 39.5821 11.4164 50.9985 25.4993 50.9985Z" fill="#FFD217"/>
<path d="M9.64151 37.061L4.93018 40.5711C4.93018 40.5711 6.56016 42.7995 8.54294 44.5441L12.44 40.1483C12.44 40.1483 10.3813 38.0896 9.64151 37.0595V37.061Z" fill="#FFFF1A"/>
<path d="M7.71657 33.6745L2.18652 35.8448C2.18652 35.8448 2.86382 37.3944 3.70933 38.7297L8.72136 35.6662L7.71657 33.6745Z" fill="#FFFF1A"/>
<path d="M40.4042 12.7958L44.9027 8.95676C44.9027 8.95676 43.2459 6.84447 41.0026 5.25616L37.4062 9.90051C37.4062 9.90051 39.5974 11.8178 40.4042 12.7958Z" fill="#FFFF1A"/>
<path d="M42.6075 16.0111L47.9797 13.4775C47.9797 13.4775 47.2012 11.9771 46.2693 10.6999L41.4717 14.0893L42.6075 16.0096V16.0111Z" fill="#FFFF1A"/>
<path d="M39.295 39.3346C47.0906 31.5391 47.0906 18.9 39.295 11.1044C31.4995 3.30889 18.8604 3.30889 11.0648 11.1044C3.26925 18.9 3.26925 31.5391 11.0648 39.3346C18.8604 47.1302 31.4994 47.1302 39.295 39.3346Z" fill="#F48F16"/>
<path d="M25.4991 45.1246C36.3379 45.1246 45.1245 36.3381 45.1245 25.4993C45.1245 14.6605 36.3379 5.87393 25.4991 5.87393C14.6603 5.87393 5.87378 14.6605 5.87378 25.4993C5.87378 36.3381 14.6603 45.1246 25.4991 45.1246Z" fill="#F7B114"/>
<path d="M21.3045 26.4147C21.3045 26.3969 21.3045 26.3805 21.3045 26.3626C21.3045 26.3805 21.303 26.3969 21.3015 26.4133C21.3015 26.4133 21.3015 26.4133 21.303 26.4133L21.3045 26.4147Z" fill="#FEFEFE"/>
<path d="M18.1172 20.6167C18.1172 20.5929 18.1172 20.5706 18.1187 20.5468C18.1187 20.5706 18.1157 20.5929 18.1143 20.6153H18.1172V20.6167Z" fill="#FEFEFE"/>
<path d="M5.61626 41.0415C5.61626 41.0176 5.61626 40.9953 5.61775 40.9715C5.61775 40.9953 5.61477 41.0176 5.61328 41.04C5.61328 41.04 5.61477 41.04 5.61626 41.04V41.0415Z" fill="#FEFEFE"/>
</g>
<defs>
<clipPath id="clip0_87_467">
<rect width="51" height="51" fill="white"/>
</clipPath>
</defs>
</svg>
