<svg width="427" height="257" viewBox="0 0 427 257" fill="none" xmlns="http://www.w3.org/2000/svg">
<g clip-path="url(#clip0_391_466)">
<path d="M233.5 28.686L247.876 18.1426L259.177 31.9234L275.731 25.2786L283.243 41.4276L300.934 39.0972L304.179 56.6003L321.894 58.7354L320.676 76.4967L337.305 82.9588L331.699 99.8636L346.194 110.243L336.548 125.221L348 138.876L334.925 150.994L342.608 167.061L326.926 175.551L330.367 193.016L313.055 197.349L312.033 215.123L294.191 215.022L288.768 231.984L271.507 227.462L262.03 242.546L246.443 233.886L233.5 246.143L220.558 233.886L204.97 242.546L195.487 227.462L178.233 231.984L172.809 215.022L154.961 215.123L153.939 197.349L136.633 193.016L140.074 175.551L124.392 167.061L132.075 150.994L119 138.876L130.453 125.221L120.806 110.243L135.301 99.8636L129.695 82.9588L146.318 76.4967L145.1 58.7354L162.815 56.6003L166.067 39.0972L183.757 41.4276L191.263 25.2786L207.823 31.9234L219.118 18.1426L233.5 28.686Z" fill="#191919"/>
</g>
<g clip-path="url(#clip1_391_466)">
<path d="M170.376 55.8193C168.317 56.018 166.281 56.9779 165.451 58.1429C163.713 60.5828 162.022 67.1067 161.586 73.075C161.359 76.3192 161.342 77.0799 161.453 79.5321C161.971 90.2809 164.716 97.5569 171.099 105.147C171.836 106.024 172.705 106.992 173.038 107.301C173.371 107.6 173.643 107.909 173.644 107.979C173.644 108.039 173.404 108.461 173.105 108.903C170.768 112.426 165.687 125.011 163.439 132.869C162.786 135.174 162.597 135.545 161.785 136.139C160.823 136.834 159.823 137.719 158.01 139.439C153.817 143.441 153.497 143.852 153.504 145.334C153.509 146.665 153.896 147.705 154.958 149.282C155.605 150.25 159.339 153.928 160.781 155.023C162.051 155.989 163.391 156.834 165.164 157.797C165.879 158.184 166.574 158.571 166.705 158.651C167.138 158.91 167.887 160.188 168.983 162.515C170.159 165.003 171.211 166.75 172.616 168.506C172.819 168.766 173.293 169.394 173.668 169.893C176.366 173.595 181.846 178.957 186.655 182.611C190.638 185.637 195.282 188.44 199.743 190.523C203.63 192.338 210.503 194.561 215.472 195.621C216.136 195.759 217.152 195.984 217.735 196.112C220.472 196.721 222.433 197.043 225.831 197.439C226.716 197.535 227.691 197.671 227.993 197.73C228.717 197.867 240.465 197.827 241.659 197.681C242.132 197.619 243.196 197.494 244.02 197.411C244.853 197.318 245.998 197.182 246.582 197.1C247.164 197.017 247.897 196.914 248.218 196.883C249.815 196.696 256.151 195.397 258.189 194.838C260.056 194.32 263.879 192.942 266.206 191.951C267.53 191.384 269.045 190.747 269.566 190.545C270.088 190.333 271.151 189.828 271.923 189.404C272.695 188.99 274.009 188.294 274.831 187.86C276.134 187.184 280.163 184.624 282.197 183.183C283.69 182.136 285.903 180.275 287.895 178.404C288.475 177.861 289.246 177.177 289.607 176.886C290.658 176.03 294.63 171.829 295.919 170.202C296.199 169.84 296.659 169.298 296.919 168.987C297.189 168.675 297.409 168.373 297.409 168.324C297.409 168.283 297.538 168.083 297.688 167.892C298.458 166.948 300.215 164.217 300.973 162.772C301.192 162.362 301.511 161.769 301.67 161.468C301.83 161.167 302.228 160.285 302.546 159.522C303.292 157.738 303.522 157.446 304.595 156.851C306.239 155.943 308.644 154.231 310.647 152.531C311.858 151.494 314.61 148.76 314.609 148.59C314.609 148.53 314.759 148.299 314.939 148.068C315.289 147.636 316.085 146.031 316.304 145.36C316.552 144.567 316.073 143.148 315.194 142.05C314.921 141.712 313.418 140.226 311.864 138.761C308.564 135.652 307.485 134.546 307.201 133.997C306.836 133.287 306.135 131.488 304.295 126.571C302.099 120.694 298.712 113.372 296.545 109.767C296.09 109.028 295.685 108.3 295.644 108.15C295.522 107.72 295.771 107.278 296.692 106.343C298.283 104.705 298.733 104.122 301.459 100.077C302.477 98.5707 303.384 96.7049 304.875 93.025C305.75 90.8891 306.692 87.7919 307.006 86.0691C307.045 85.8189 307.154 85.2373 307.242 84.767C307.644 82.5633 307.808 80.8005 307.846 78.0075C307.877 75.7948 307.843 74.9346 307.718 73.9036C307.624 73.1832 307.499 72.0824 307.446 71.452C307.183 68.7203 306.781 66.2497 306.146 63.4994C305.419 60.3695 304.84 58.8299 303.849 57.3829C303.272 56.5543 303.131 56.425 302.477 56.0472C301.096 55.2722 300.865 55.2334 296.976 55.2598C293.901 55.2729 293.449 55.2951 292.405 55.4993C291.772 55.6221 290.978 55.7659 290.647 55.8169C288.809 56.1153 285.367 57.1405 282.709 58.1932C280.14 59.2049 276.109 61.2342 274.806 62.161C274.536 62.3521 273.614 62.9867 272.753 63.5714C271.891 64.1457 270.878 64.8805 270.488 65.193C270.108 65.5047 269.586 65.8876 269.346 66.059C268.434 66.6838 266.422 68.564 264.682 70.4431C263.691 71.4985 262.451 72.8349 261.931 73.3882C261.411 73.9512 260.82 74.6339 260.631 74.905C260.441 75.1858 260.151 75.4679 259.991 75.5481C259.72 75.6792 259.639 75.66 258.632 75.1635C256.447 74.0918 253.941 73.2316 250.279 72.2862C246.617 71.3507 245.973 71.2333 242.525 70.8876C240.333 70.6665 234.836 70.5203 232.183 70.6112C228.164 70.7583 227.652 70.801 226.195 71.0572C225.754 71.1394 225.231 71.2017 225.04 71.2026C224.648 71.2042 222.831 71.5221 221.476 71.8282C220.622 72.0217 219.508 72.2968 217.159 72.8977C215.784 73.2542 212.403 74.5697 210.899 75.3366C210.217 75.6901 209.605 75.9728 209.535 75.9731C209.475 75.9734 209.243 75.7243 209.02 75.4145C208.808 75.1053 208.444 74.6361 208.222 74.3871C207.596 73.6788 206.95 72.9007 206.404 72.1823C205.697 71.2544 204.062 69.6194 202.771 68.5438C202.166 68.0457 201.268 67.2792 200.794 66.8405C199.795 65.9341 198.787 65.1974 196.701 63.8452C191.532 60.5241 186.578 58.2629 181.749 57.032C178.701 56.2545 176.719 55.9326 174.478 55.8521C173.704 55.8253 172.669 55.79 172.166 55.7718C171.674 55.7537 170.86 55.7774 170.378 55.8193L170.376 55.8193Z" fill="#A0A0A0"/>
<path d="M174.861 104.616C174.861 104.616 202.136 82.3814 210.397 79.9929C218.658 77.6045 170.085 47.3275 165.183 57.1266C160.28 66.9258 157.863 98.5711 174.86 104.616L174.861 104.616Z" fill="#7B7C7C"/>
<path d="M295.121 104.103C295.121 104.103 267.657 82.1015 259.376 79.7837C251.095 77.4659 299.407 46.7743 304.393 56.5313C309.378 66.2882 312.066 97.9117 295.122 104.102L295.121 104.103Z" fill="#7B7C7C"/>
<path d="M169.899 125.931C169.899 125.931 186.384 101.678 207.89 101.854C229.397 102.03 228.171 123.107 235.611 122.946C243.051 122.785 255.971 99.7295 265.966 101.604C275.96 103.478 303.668 117.008 305.401 135.354C307.134 153.701 287.668 186.726 235.081 186.951C182.495 187.175 163.9 149.135 163.9 149.135L163.855 138.706L169.9 125.931L169.899 125.931Z" fill="white"/>
<path d="M168.667 54.1942C166.56 54.3975 164.476 55.3794 163.627 56.5711C161.848 59.0671 160.118 65.7408 159.671 71.846C159.438 75.1648 159.421 75.9429 159.535 78.4515C160.066 89.447 162.874 96.8901 169.407 104.654C170.161 105.552 171.05 106.542 171.391 106.858C171.732 107.163 172.011 107.479 172.011 107.552C172.011 107.613 171.766 108.044 171.46 108.496C169.068 112.101 163.868 124.975 161.568 133.013C160.899 135.371 160.705 135.75 159.875 136.358C158.891 137.069 157.866 137.974 156.012 139.733C151.72 143.826 151.393 144.247 151.399 145.763C151.405 147.124 151.801 148.188 152.888 149.801C153.55 150.792 157.372 154.554 158.847 155.674C160.147 156.662 161.518 157.526 163.333 158.511C164.065 158.908 164.776 159.304 164.91 159.386C165.353 159.65 166.12 160.957 167.241 163.338C168.445 165.883 169.522 167.67 170.959 169.467C171.166 169.732 171.652 170.375 172.035 170.885C174.798 174.673 180.405 180.158 185.327 183.895C189.403 186.991 194.156 189.858 198.722 191.989C202.7 193.846 209.733 196.12 214.819 197.204C215.498 197.345 216.538 197.575 217.135 197.706C219.935 198.329 221.942 198.658 225.42 199.063C226.326 199.162 227.323 199.301 227.632 199.361C228.373 199.502 240.396 199.46 241.619 199.311C242.102 199.248 243.192 199.12 244.035 199.035C244.888 198.94 246.06 198.801 246.656 198.717C247.252 198.632 248.002 198.527 248.332 198.495C249.966 198.303 256.45 196.975 258.535 196.403C260.446 195.873 264.358 194.463 266.74 193.449C268.095 192.87 269.646 192.218 270.179 192.012C270.713 191.794 271.801 191.277 272.591 190.844C273.381 190.42 274.726 189.708 275.567 189.265C276.901 188.573 281.024 185.954 283.106 184.481C284.634 183.41 286.898 181.505 288.937 179.592C289.531 179.036 290.32 178.337 290.689 178.039C291.765 177.163 295.83 172.866 297.149 171.201C297.435 170.831 297.907 170.276 298.172 169.958C298.448 169.639 298.674 169.331 298.674 169.28C298.674 169.238 298.806 169.034 298.959 168.838C299.748 167.872 301.545 165.079 302.321 163.601C302.545 163.181 302.872 162.575 303.035 162.267C303.198 161.959 303.606 161.056 303.931 160.276C304.695 158.451 304.93 158.152 306.028 157.544C307.711 156.615 310.172 154.864 312.221 153.125C313.461 152.064 316.278 149.267 316.277 149.093C316.277 149.031 316.43 148.795 316.614 148.559C316.972 148.117 317.787 146.475 318.011 145.788C318.265 144.978 317.775 143.526 316.875 142.403C316.596 142.057 315.058 140.537 313.467 139.039C310.09 135.858 308.986 134.726 308.695 134.165C308.321 133.439 307.604 131.599 305.721 126.569C303.474 120.557 300.007 113.066 297.79 109.379C297.324 108.623 296.91 107.878 296.868 107.724C296.743 107.285 296.998 106.833 297.94 105.876C299.568 104.201 300.028 103.604 302.818 99.4658C303.861 97.9253 304.788 96.0167 306.315 92.2523C307.21 90.0674 308.174 86.8991 308.496 85.1367C308.536 84.8807 308.647 84.2858 308.737 83.8047C309.149 81.5503 309.316 79.7471 309.356 76.89C309.387 74.6265 309.352 73.7465 309.224 72.6918C309.129 71.955 309 70.8288 308.946 70.184C308.677 67.3896 308.265 64.8623 307.615 62.0488C306.872 58.8471 306.279 57.2721 305.265 55.7919C304.675 54.9442 304.53 54.812 303.86 54.4255C302.448 53.6328 302.211 53.5931 298.231 53.6201C295.084 53.6335 294.621 53.6562 293.553 53.8651C292.905 53.9907 292.093 54.1378 291.754 54.1899C289.873 54.4952 286.35 55.544 283.629 56.6208C281.001 57.6558 276.875 59.7317 275.542 60.6797C275.265 60.8752 274.322 61.5243 273.44 62.1225C272.558 62.71 271.522 63.4617 271.123 63.7814C270.734 64.1002 270.2 64.4919 269.954 64.6672C269.021 65.3064 266.962 67.2298 265.181 69.152C264.167 70.2316 262.898 71.5987 262.365 72.1647C261.833 72.7406 261.229 73.439 261.035 73.7164C260.841 74.0036 260.544 74.2921 260.38 74.3743C260.103 74.5083 260.02 74.4887 258.99 73.9808C256.753 72.8845 254.188 72.0045 250.441 71.0375C246.693 70.0804 246.034 69.9604 242.505 69.6068C240.262 69.3806 234.636 69.231 231.921 69.3241C227.808 69.4745 227.284 69.5182 225.793 69.7803C225.341 69.8644 224.806 69.9281 224.611 69.929C224.21 69.9307 222.35 70.2558 220.963 70.5689C220.089 70.767 218.949 71.0483 216.546 71.663C215.138 72.0277 211.678 73.3734 210.139 74.158C209.441 74.5196 208.815 74.8088 208.743 74.8091C208.681 74.8093 208.443 74.5546 208.216 74.2376C207.999 73.9214 207.626 73.4414 207.399 73.1866C206.758 72.4621 206.097 71.6662 205.538 70.9313C204.815 69.982 203.141 68.3095 201.82 67.2093C201.201 66.6996 200.282 65.9156 199.797 65.4669C198.775 64.5396 197.744 63.786 195.609 62.4027C190.318 59.0054 185.248 56.6923 180.306 55.4332C177.187 54.6378 175.159 54.3085 172.865 54.2261C172.073 54.1988 171.014 54.1626 170.499 54.1441C169.996 54.1255 169.163 54.1498 168.669 54.1926L168.667 54.1942ZM300.403 59.0383C300.982 59.6809 302.324 63.4438 302.797 65.7558C303.522 69.2855 303.925 74.6598 303.734 78.1013C303.533 81.5736 302.687 85.7551 301.498 89.1087C300.756 91.2108 299.145 94.6077 297.961 96.5789C296.358 99.2484 294.354 102.072 294.005 102.156C293.676 102.24 293.645 102.209 293.209 101.33C292.732 100.38 291.469 98.5013 291.067 98.1443C290.664 97.7981 290.343 97.2872 290.342 97.0008C290.342 96.8472 290.484 96.7137 290.865 96.5278C291.634 96.1351 292.218 95.5389 293.004 94.3475C294.384 92.2833 295.463 89.5753 296.403 85.7927C297.344 82.0308 297.501 80.4327 297.48 75.3532C297.455 71.9641 297.421 71.227 297.285 70.7975C297.191 70.5114 297.118 70.1323 297.117 69.948C297.116 69.7737 297.085 69.6202 297.044 69.6204C296.992 69.6206 296.643 69.5507 296.241 69.4702C294.481 69.0991 291.51 69.439 288.285 70.3851C283.878 71.6842 279.991 74.2506 275.403 78.8882C274.595 79.7003 274.288 80.081 273.203 81.601C272.191 83.0284 271.366 84.8552 271.37 85.6639C271.372 86.1761 271.805 86.5836 273.301 87.4888C276.848 89.6241 279.233 91.8665 283.172 96.7449C285.385 99.5003 289.485 105.78 291.465 109.479C292.419 111.247 294.359 115.283 295.066 116.96C295.73 118.544 296.321 119.678 296.922 120.556C297.812 121.863 298.414 123.181 299.819 126.975C300.922 129.97 301.807 132.567 301.808 132.823C301.808 132.915 301.768 132.988 301.727 132.988C301.686 132.988 301.211 132.631 300.674 132.194C300.137 131.755 299.116 130.991 298.404 130.493C294.876 128.03 294.185 127.531 292.318 126.116C287.716 122.633 286.756 121.972 283.549 119.989C279.342 117.395 276.25 115.882 272.831 114.75C268.856 113.426 265.583 112.959 260.379 112.95C257.952 112.961 257.509 112.983 256.318 113.204C252.237 113.938 250.39 114.703 244.491 118.108C240.777 120.243 239.473 120.853 238.302 120.981C237.88 121.024 237.068 121.161 236.503 121.286C235.034 121.6 233.224 121.669 232.143 121.468C231.494 121.348 231.248 121.339 231.135 121.421C230.817 121.699 228.416 120.553 225.281 118.62C219.796 115.254 217.807 114.27 215.232 113.646C212.216 112.911 208.194 112.846 203.486 113.45C197.442 114.213 193.633 115.725 185.898 120.406C182.688 122.345 181.242 123.375 177.901 126.093C176.23 127.452 172.458 130.315 170.827 131.469C169.935 132.097 168.756 132.942 167.761 133.684L167.464 133.9L167.533 133.428C167.753 131.973 168.657 129.102 169.898 125.933C171.037 123.03 171.639 121.696 172.047 121.172C172.426 120.689 172.65 120.186 173.188 118.587C173.757 116.895 174.235 115.787 175.5 113.222C176.071 112.052 176.611 110.944 176.683 110.759C177.11 109.743 178.828 107.299 180.373 105.5C181.499 104.205 182.52 102.665 183.653 100.571C184.745 98.5485 185.368 97.6042 186.657 95.9805C188.56 93.5862 192.73 89.8206 196.144 87.3898C196.821 86.9054 197.436 86.442 197.497 86.3495C197.712 86.0821 197.648 85.5709 197.253 84.5688C196.629 82.9533 195.967 81.9016 194.374 79.9938C192.917 78.249 191.585 77.0159 189.397 75.3863C185.528 72.4944 181.797 70.6978 178.174 69.966C177.01 69.7252 176.578 69.6964 174.871 69.6937C172.671 69.6931 172.702 69.6822 172.324 70.4518C172.069 70.9652 171.897 71.7439 171.789 72.9217L171.72 73.69L171.646 73.0452C171.582 72.4211 171.426 72.0938 171.272 72.2481C171.221 72.289 171.172 72.74 171.153 73.2523L171.126 74.1841L171.394 74.1315C171.712 74.0687 171.701 73.9358 171.57 76.8648C171.467 79.3943 171.625 82.5271 171.951 84.3896C172.52 87.6028 174.101 91.6404 175.767 94.0809C176.44 95.0818 178.31 97.1114 178.66 97.212C178.948 97.303 178.907 97.426 178.416 98.0118C177.393 99.235 175.821 101.934 175.639 102.775C175.609 102.96 175.538 103.134 175.496 103.155C175.414 103.206 173.854 101.431 173.068 100.379C172.789 100.002 171.96 98.7966 171.226 97.7046C168.193 93.2017 166.508 88.7544 165.63 82.9828C165.048 79.1245 165.176 72.8985 165.939 68.6451C166.28 66.7082 167.445 62.4232 168.136 60.587L168.472 59.6739L170.159 59.6767C174.149 59.6904 178.534 60.4804 182.304 61.8674C186.455 63.3957 191.248 65.905 194.044 68.002C196.108 69.5599 198.937 72.2205 201.272 74.7911C203.081 76.7901 203.247 77.0459 203.25 77.8646C203.255 78.9498 203.972 80.7085 204.924 81.964C205.193 82.3215 205.41 82.5049 205.553 82.5043C205.677 82.5038 206.241 82.2349 206.806 81.9153C209.72 80.2647 210.971 79.6649 213.385 78.7537C218.293 76.8895 222.28 75.9509 228.18 75.2706C231.325 74.9092 238.926 75.0711 243.217 75.585C247.838 76.1489 253.234 77.7134 258.076 79.8738C261.714 81.4964 263.373 82.1552 263.835 82.1532C264.175 82.1518 264.553 81.7508 264.91 80.9912C265.236 80.324 265.277 80.1395 265.314 79.1463C265.37 77.9073 265.34 77.9996 266.341 76.4593C267.261 75.0322 267.823 74.354 269.615 72.5131C272.585 69.4591 276.46 66.5241 280.482 64.3051C282.452 63.2115 283.889 62.5495 286.281 61.6591C288.971 60.6438 291.057 60.0513 293.39 59.6527C294.15 59.5166 299.146 58.9315 300.061 58.8662C300.154 58.8558 300.298 58.9366 300.401 59.0391L300.403 59.0383ZM203.955 121.884C205.066 122.053 205.694 122.224 206.313 122.539C206.879 122.813 207.51 123.384 207.655 123.742C207.779 124.028 207.81 124.038 208.931 124.136C210.783 124.301 212.215 124.971 213.6 126.338C216.068 128.764 216.708 131.608 215.423 134.327C214.832 135.558 214.125 136.197 212.524 136.951C210.451 137.912 208.384 137.972 206.684 137.119C205.539 136.55 204.279 135.225 203.729 134.019C202.857 132.088 202.938 129.342 203.937 127.341C204.142 126.931 204.387 126.5 204.479 126.397C204.632 126.212 204.632 126.202 204.437 126.275C204.324 126.316 203.749 126.462 203.153 126.597C200.122 127.286 197.802 128.443 196.174 130.078C194.269 131.991 193.25 134.033 192.87 136.646C192.57 138.675 192.678 139.975 193.304 141.948C193.991 144.096 195.069 145.822 196.773 147.484C199.664 150.288 203.578 151.448 207.215 150.593C209.773 149.988 212.41 148.523 214.079 146.775C215.522 145.253 216.44 143.345 217.3 140.054C217.846 137.962 217.887 137.901 218.527 138.513C219.178 139.145 219.407 139.768 219.391 140.915C219.376 142.144 219.156 143.466 218.799 144.369C217.985 146.451 216.831 148.299 215.653 149.39C212.733 152.126 208.126 154.767 205.537 155.198C203.707 155.503 200.878 155.218 198.643 154.501C197.695 154.197 195.758 153.233 194.665 152.51C193.602 151.808 192.136 150.473 191.298 149.463C189.603 147.412 188.16 144.213 187.675 141.45C187.254 139.025 187.517 135.665 188.339 133.02C188.694 131.851 189.866 129.45 190.653 128.238C192.135 125.959 194.451 124.075 197.346 122.792C199.419 121.872 201.753 121.555 203.955 121.884ZM268.705 121.607C270.095 121.847 271.062 122.129 272.144 122.626C275.545 124.199 278.417 127.065 280.253 130.702C282.534 135.208 282.74 140.122 280.858 144.646C280.297 145.99 279.543 147.397 278.837 148.383C277.835 149.8 275.889 151.59 274.381 152.487C272.954 153.333 269.761 154.412 267.788 154.697C265.136 155.097 262.027 154.476 258.822 152.933C256.524 151.816 254.862 150.502 253.61 148.777C251.51 145.888 250.274 142.964 250.14 140.559C250.074 139.351 250.154 138.971 250.595 138.631C251.22 138.137 251.942 138.585 252.162 139.608C252.488 141.142 253.65 143.718 254.727 145.291C256.476 147.853 257.869 148.974 260.382 149.854C262.267 150.501 263.729 150.71 265.312 150.539C268.344 150.219 270.92 148.969 272.876 146.851C274.79 144.785 275.575 143.102 276.117 139.997C276.308 138.911 276.316 138.634 276.22 137.795C275.922 135.267 275.017 132.957 273.537 130.925C271.779 128.516 269.057 126.817 265.618 126.013C265.021 125.872 264.352 125.701 264.135 125.62C263.909 125.539 263.724 125.499 263.724 125.509C263.724 125.53 263.93 125.672 264.188 125.824C264.755 126.14 265.179 126.691 265.636 127.661C266.185 128.816 266.353 129.502 266.347 130.526C266.348 133.086 264.899 135.734 262.959 136.725C261.482 137.49 259.662 137.64 258.168 137.124C256.592 136.589 255.056 135.53 254.403 134.519C253.358 132.916 253.285 130.387 254.224 128.601C255.376 126.405 257.016 125.026 260.782 123.064C262.301 122.28 263.338 121.865 264.427 121.635C265.342 121.437 267.584 121.417 268.705 121.607ZM236.951 146.738C239.339 147.077 243.138 148.176 244.952 149.06C246.261 149.689 246.808 150.158 248.75 152.279C250.393 154.074 252.748 156.256 254.223 157.355C255.884 158.588 259.709 160.885 262.008 162.022C265.347 163.667 268.704 164.748 272.224 165.307C274.889 165.726 275.784 165.793 278.191 165.783C280.598 165.773 281.667 165.666 284.863 165.109C285.839 164.931 286.837 164.794 287.084 164.793C287.495 164.791 290.886 164.275 292.047 163.829C292.621 163.602 293.833 163.044 294.746 162.6C295.65 162.155 296.419 161.783 296.439 161.783C296.584 161.782 295.052 164.349 294.05 165.787C292.875 167.471 290.901 170.05 290.082 170.985C287.615 173.761 284.275 176.796 281.148 179.082C279.733 180.123 276.708 182.184 275.539 182.916C270.144 186.267 262.834 189.482 256.805 191.167C251.771 192.571 250.302 192.865 245.09 193.48C238.769 194.235 231.353 194.144 223.543 193.214C219.407 192.72 215.371 191.816 210.057 190.189C205.413 188.775 200.962 186.88 196.54 184.451C192.591 182.277 189.971 180.455 186.194 177.266C184.821 176.114 180.855 172.189 179.615 170.781C177.32 168.139 174.773 164.166 175.152 163.786C175.183 163.745 175.625 163.856 176.13 164.017C177.171 164.371 183.468 165.102 183.499 165.072C183.52 165.041 183.663 165.071 183.808 165.121C184.663 165.445 187.904 165.851 190.568 165.973C193.263 166.105 197.087 165.689 199.769 165.002C204.186 163.847 210.057 161.159 214.19 158.397C216.169 157.068 216.989 156.358 220.133 153.241C223.247 150.166 223.841 149.682 225.617 148.825C227.31 148.019 230.288 147.064 232.138 146.749C233.238 146.56 235.666 146.549 236.951 146.738L236.951 146.738Z" fill="black"/>
<path d="M231.908 80.9893C231.59 81.0828 231.457 81.2062 231.293 81.5241C231.11 81.8935 231.091 82.1294 231.109 83.9825C231.126 85.6413 231.17 86.2248 231.348 87.0328C231.725 88.7615 231.984 88.9962 233.537 88.9796C234.545 88.9653 235.192 88.8189 235.51 88.551C235.878 88.2215 236.028 87.0842 236.017 84.576C236.006 82.0677 235.889 81.1151 235.58 80.9836C235.251 80.8521 232.35 80.8537 231.908 80.9893Z" fill="black"/>
<path d="M241.736 82.2376C241.283 82.3009 241.273 82.311 241.141 82.8138C241.05 83.1214 240.983 84.1562 240.957 85.4358C240.898 88.3337 241.075 88.9167 242.209 89.4855C242.786 89.7695 243.887 89.9084 244.586 89.7726C245.038 89.6885 245.14 89.4937 245.495 88.1713C246.011 86.2544 246.256 83.6114 245.976 82.9368C245.726 82.3234 243.617 81.9845 241.736 82.2383L241.736 82.2376Z" fill="black"/>
<path d="M223.739 82.6723C221.89 83.1717 221.737 83.3667 221.827 85.1896C221.906 86.9096 222.396 88.4128 223.078 89.065C223.604 89.575 224.16 89.7154 225.723 89.7702C226.855 89.7961 227.143 89.7741 227.246 89.6616C227.726 89.0758 227.519 84.0693 226.97 83.0172C226.638 82.3835 225.332 82.2354 223.739 82.6723Z" fill="black"/>
<path d="M259.541 97.3066C259.202 97.4102 258.76 97.5864 258.566 97.6894C258.052 97.9581 256.998 99.0685 256.733 99.6119C256.243 100.638 256.28 102 256.841 103.308C257.392 104.616 257.846 104.86 259.357 104.7C259.87 104.647 260.827 104.592 261.485 104.589C262.956 104.583 263.882 104.794 265.726 105.554C267.437 106.263 267.735 106.273 268.319 105.635C269.076 104.823 269.697 103.346 269.693 102.383C269.691 101.932 269.017 100.573 268.458 99.869C267.601 98.8074 266.064 97.8924 264.355 97.4496C262.996 97.0868 260.507 97.0152 259.541 97.3066Z" fill="black"/>
<path d="M206.659 97.6653C205.601 97.752 204.357 98.0338 203.577 98.3851C201.914 99.1294 200.277 100.97 199.892 102.548C199.741 103.184 199.741 103.286 199.898 104.013C200.129 105.056 200.741 106.252 201.215 106.567C201.669 106.872 201.864 106.83 203.312 106.158C203.927 105.869 204.687 105.538 205.005 105.424C206.505 104.905 208.201 104.724 209.971 104.911C211.483 105.068 211.596 105.017 212.167 104.001C213.117 102.328 213.235 101.18 212.603 99.9954C212.002 98.8921 211.012 98.1797 209.653 97.8576C208.613 97.6063 207.965 97.5676 206.659 97.6653Z" fill="black"/>
<path d="M233.601 152.283C230.322 152.523 227.456 153.436 226.279 154.629C225.254 155.657 224.716 157.195 224.816 158.813C224.904 160.267 225.445 161.657 226.458 163.015C227.596 164.535 228.917 165.421 231.616 166.505C232.718 166.94 232.761 167.432 231.842 168.91C230.442 171.189 228.39 172.192 226.248 171.648C224.478 171.205 223.136 170.003 221.985 167.816C221.653 167.203 221.28 166.62 221.146 166.54C220.847 166.346 219.891 166.411 219.141 166.671C218.001 167.075 217.213 168.225 217.362 169.269C217.563 170.681 219.56 173.397 221.387 174.761C223.564 176.37 226.601 177.125 229.077 176.674C230.588 176.391 231.717 175.833 233.501 174.484C234.045 174.082 234.587 173.691 234.711 173.619C234.978 173.474 234.947 173.464 236.164 174.503C238.828 176.775 241.968 177.674 244.547 176.905C247.546 176.012 250.283 173.88 252.019 171.077C252.663 170.03 252.794 169.507 252.555 168.894C252.285 168.188 251.561 167.474 250.716 167.048C249.346 166.378 249.007 166.544 247.207 168.794C245.948 170.376 245.508 170.787 244.727 171.118C242.798 171.956 240.781 171.74 239.418 170.537C238.386 169.63 237.287 167.494 237.541 166.92C237.602 166.787 238.238 166.333 239.079 165.838C241.08 164.642 242.176 163.644 243.208 162.042C243.851 161.067 244.198 160.154 244.408 158.924C244.559 157.981 244.558 157.848 244.401 157.091C243.812 154.308 241.76 152.77 238.179 152.417C236.985 152.299 234.414 152.229 233.601 152.283ZM237.832 155.542C238.502 155.846 238.698 156.101 238.629 156.562C238.548 157.044 238.17 157.527 237.555 157.929C236.355 158.702 234.166 159.213 232.972 158.993C232.406 158.893 231.757 158.619 231.241 158.264C230.88 158.009 230.28 157.1 230.113 156.548C229.988 156.128 229.988 156.088 230.203 155.922C230.643 155.563 232.894 155.307 235.517 155.327C237.152 155.33 237.42 155.359 237.832 155.542Z" fill="black"/>
</g>
<g clip-path="url(#clip2_391_466)">
<path d="M163.945 125.996L164.069 135.855L168.662 135.798L168.724 140.726L173.32 140.669L173.382 145.6L177.976 145.542L178.037 150.471L182.634 150.413L182.696 155.344L210.264 155L210.202 150.068L214.799 150.011L214.737 145.083L219.331 145.025L219.269 140.094L223.866 140.037L223.804 135.109L228.398 135.051L228.336 130.12L237.526 130.005L237.588 134.936L242.182 134.879L242.243 139.807L246.84 139.749L246.902 144.681L251.495 144.623L251.557 149.551L256.154 149.494L256.215 154.425L283.783 154.08L283.722 149.149L288.318 149.092L288.257 144.164L292.85 144.106L292.789 139.175L297.382 139.118L297.321 134.189L301.917 134.132L301.794 124.273L163.945 125.996Z" fill="#1D1D1B"/>
<path d="M187.104 140.496L182.511 140.554L182.572 145.482L187.166 145.424L187.104 140.496Z" fill="white"/>
<path d="M191.76 145.37L187.166 145.427L187.228 150.356L191.821 150.298L191.76 145.37Z" fill="white"/>
<path d="M191.637 135.511L187.043 135.568L187.104 140.496L191.698 140.439L191.637 135.511Z" fill="white"/>
<path d="M196.295 140.381L191.701 140.439L191.763 145.367L196.356 145.309L196.295 140.381Z" fill="white"/>
<path d="M200.95 145.255L196.356 145.313L196.418 150.241L201.012 150.183L200.95 145.255Z" fill="white"/>
<path d="M186.981 130.637L182.387 130.694L182.449 135.623L187.043 135.565L186.981 130.637Z" fill="white"/>
<path d="M260.624 139.577L256.03 139.635L256.092 144.563L260.686 144.505L260.624 139.577Z" fill="white"/>
<path d="M265.279 144.451L260.686 144.508L260.747 149.436L265.341 149.379L265.279 144.451Z" fill="white"/>
<path d="M265.156 134.591L260.562 134.649L260.624 139.577L265.218 139.52L265.156 134.591Z" fill="white"/>
<path d="M269.812 139.462L265.218 139.52L265.279 144.448L269.873 144.39L269.812 139.462Z" fill="white"/>
<path d="M274.47 144.336L269.876 144.393L269.938 149.322L274.531 149.264L274.47 144.336Z" fill="white"/>
<path d="M260.501 129.718L255.907 129.775L255.969 134.703L260.562 134.646L260.501 129.718Z" fill="white"/>
</g>
<circle cx="106.996" cy="89.1386" r="34" transform="rotate(-18.4059 106.996 89.1386)" fill="#8EB326"/>
<rect x="120.816" y="96.0575" width="20.6429" height="20.6429" transform="rotate(-18.4059 120.816 96.0575)" fill="#8EB226"/>
<g clip-path="url(#clip3_391_466)">
<path fill-rule="evenodd" clip-rule="evenodd" d="M101.212 71.4055C101.605 74.717 101.067 78.1697 99.8709 81.2704C98.5478 84.7005 96.7871 88.4136 96.5693 92.1088C96.3859 95.2208 97.091 98.9022 98.9715 101.423C101.031 104.183 104.411 105.936 108.133 105.936H111.653C117.705 105.936 122.747 101.297 123.25 95.2657L124.09 85.183C124.203 83.8261 123.132 82.6625 121.771 82.6625H109.374C107.44 82.6625 105.894 81.0971 105.88 79.189C105.863 76.9319 106.005 74.1462 104.965 72.0664C104.035 70.2061 103.165 69.8619 102.392 69.8619C101.695 69.8619 101.137 70.7767 101.212 71.4055ZM102.392 65.2071C105.547 65.2071 107.731 67.1902 109.129 69.9847C110.344 72.4162 110.459 75.3372 110.518 78.0077H121.771C125.855 78.0077 129.068 81.4989 128.729 85.5696L127.888 95.6523C127.185 104.096 120.126 110.591 111.653 110.591H108.133C103.555 110.591 99.2998 108.687 96.3402 105.521C95.299 105.792 94.2069 105.936 93.0825 105.936C90.5032 105.936 88.3616 104.491 86.9753 102.193C85.6276 99.9589 84.9366 96.8748 84.9366 93.1359C84.9366 89.3972 85.6276 86.3129 86.9753 84.0789C88.3616 81.7807 90.5032 80.3353 93.0825 80.3353C93.7376 80.3353 94.4292 80.4506 95.1243 80.646C96.1891 77.855 96.9485 74.9759 96.5895 71.9547C96.1899 68.5916 98.937 65.2071 102.392 65.2071ZM93.5382 85.0466C92.4106 84.8132 91.5254 85.5477 90.9611 86.4831C90.2029 87.7399 89.5914 89.8922 89.5914 93.1359C89.5914 96.3796 90.2029 98.5319 90.9611 99.7887C91.6807 100.982 92.4483 101.282 93.0825 101.282C93.2305 101.282 93.3773 101.278 93.523 101.27C92.2769 98.4579 91.7423 94.894 91.9226 91.8351C92.0331 89.9604 92.7645 87.3712 93.5382 85.0466Z" fill="#141414"/>
</g>
<path d="M27.866 34.7961L34.727 46.7746L48.2395 43.9509L38.9674 54.1777L45.8285 66.1562L33.237 60.4982L23.9649 70.7251L25.455 57.0014L12.8635 51.3434L26.3759 48.5197L27.866 34.7961Z" fill="#262626"/>
<path d="M408.829 209.084L399.785 198.655L387.072 204.033L394.196 192.209L385.152 181.78L398.599 184.902L405.723 173.078L406.91 186.831L420.356 189.953L407.643 195.331L408.829 209.084Z" fill="#262626"/>
<path d="M91.2358 0.423865L93.2984 7.76844L100.921 8.07639L94.5732 12.3076L96.6358 19.6522L90.6501 14.9227L84.3023 19.1539L86.9507 11.9997L80.965 7.27015L88.5875 7.57811L91.2358 0.423865Z" fill="#262626"/>
<path d="M353.284 255.04L349.842 248.231L342.304 249.4L347.716 244.023L344.274 237.215L351.06 240.7L356.472 235.324L355.254 242.854L362.04 246.34L354.502 247.509L353.284 255.04Z" fill="#262626"/>
<path d="M8.1109 110.951L14.7733 114.667L20.3663 109.479L18.8909 116.964L25.5532 120.68L17.979 121.59L16.5035 129.074L13.2978 122.152L5.72352 123.062L11.3166 117.874L8.1109 110.951Z" fill="#262626"/>
<path d="M413.516 130.548L406.262 128.188L401.775 134.357L401.779 126.729L394.524 124.368L401.781 122.014L401.784 114.385L406.265 120.559L413.522 118.205L409.035 124.375L413.516 130.548Z" fill="#262626"/>
<defs>
<clipPath id="clip0_391_466">
<rect width="229" height="228" fill="white" transform="translate(119 18.1426)"/>
</clipPath>
<clipPath id="clip1_391_466">
<rect width="166.844" height="145.58" fill="white" transform="translate(151.008 54.2211) rotate(-0.244704)"/>
</clipPath>
<clipPath id="clip2_391_466">
<rect width="137.86" height="29.5803" fill="white" transform="translate(163.945 125.996) rotate(-0.716327)"/>
</clipPath>
<clipPath id="clip3_391_466">
<rect width="55.8571" height="55.8571" fill="white" transform="translate(80.2819 59.3886)"/>
</clipPath>
</defs>
</svg>
