<svg width="489" height="528" viewBox="0 0 489 528" fill="none" xmlns="http://www.w3.org/2000/svg">
<g filter="url(#filter0_f_448_1385)">
<rect x="13.5" y="13.5" width="461.8" height="501" rx="8.5" stroke="#262626"/>
<path d="M14 14H474.8V506C474.8 510.418 471.218 514 466.8 514H22C17.5817 514 14 510.418 14 506V14Z" fill="#181818"/>
<path d="M31.3211 485.522V492.794H30.2203V486.623H30.1776L28.4376 487.759V486.708L30.2522 485.522H31.3211ZM33.7884 492.794V491.999L36.2494 489.449C36.5122 489.172 36.7288 488.93 36.8992 488.721C37.0721 488.511 37.2011 488.311 37.2863 488.121C37.3715 487.932 37.4142 487.731 37.4142 487.517C37.4142 487.276 37.3573 487.068 37.2437 486.892C37.1301 486.715 36.975 486.579 36.7785 486.484C36.582 486.387 36.3606 486.338 36.1144 486.338C35.854 486.338 35.6267 486.392 35.4326 486.498C35.2385 486.605 35.0893 486.755 34.9852 486.949C34.881 487.143 34.8289 487.371 34.8289 487.631H33.7813C33.7813 487.188 33.8831 486.801 34.0867 486.47C34.2903 486.138 34.5697 485.882 34.9248 485.699C35.2799 485.515 35.6836 485.422 36.1357 485.422C36.5927 485.422 36.9951 485.513 37.3431 485.696C37.6935 485.876 37.9669 486.122 38.1634 486.434C38.3599 486.744 38.4582 487.095 38.4582 487.485C38.4582 487.755 38.4073 488.019 38.3055 488.277C38.2061 488.535 38.0321 488.823 37.7835 489.14C37.5349 489.455 37.1892 489.838 36.7465 490.287L35.3012 491.8V491.853H38.5754V492.794H33.7884ZM41.135 491.892C40.9409 491.892 40.774 491.824 40.6343 491.686C40.4946 491.547 40.4248 491.379 40.4248 491.182C40.4248 490.988 40.4946 490.822 40.6343 490.685C40.774 490.545 40.9409 490.476 41.135 490.476C41.3292 490.476 41.4961 490.545 41.6357 490.685C41.7754 490.822 41.8453 490.988 41.8453 491.182C41.8453 491.312 41.8121 491.432 41.7458 491.541C41.6819 491.647 41.5967 491.733 41.4901 491.797C41.3836 491.86 41.2652 491.892 41.135 491.892ZM41.135 488.249C40.9409 488.249 40.774 488.18 40.6343 488.043C40.4946 487.903 40.4248 487.735 40.4248 487.539C40.4248 487.345 40.4946 487.179 40.6343 487.042C40.774 486.902 40.9409 486.832 41.135 486.832C41.3292 486.832 41.4961 486.902 41.6357 487.042C41.7754 487.179 41.8453 487.345 41.8453 487.539C41.8453 487.669 41.8121 487.789 41.7458 487.897C41.6819 488.004 41.5967 488.089 41.4901 488.153C41.3836 488.217 41.2652 488.249 41.135 488.249ZM46.2852 492.915C45.7242 492.913 45.2448 492.765 44.847 492.471C44.4493 492.178 44.1451 491.75 43.9344 491.189C43.7237 490.628 43.6183 489.952 43.6183 489.162C43.6183 488.373 43.7237 487.7 43.9344 487.141C44.1475 486.582 44.4529 486.156 44.8506 485.863C45.2507 485.569 45.7289 485.422 46.2852 485.422C46.8416 485.422 47.3186 485.57 47.7164 485.866C48.1141 486.16 48.4183 486.586 48.629 487.145C48.8421 487.701 48.9486 488.373 48.9486 489.162C48.9486 489.955 48.8432 490.632 48.6325 491.193C48.4218 491.752 48.1176 492.179 47.7199 492.475C47.3222 492.768 46.844 492.915 46.2852 492.915ZM46.2852 491.967C46.7777 491.967 47.1624 491.727 47.4394 491.246C47.7187 490.766 47.8584 490.071 47.8584 489.162C47.8584 488.558 47.7945 488.048 47.6666 487.631C47.5412 487.212 47.3601 486.895 47.1233 486.679C46.8889 486.462 46.6096 486.353 46.2852 486.353C45.7952 486.353 45.4105 486.594 45.1311 487.077C44.8518 487.56 44.7109 488.255 44.7085 489.162C44.7085 489.768 44.7713 490.28 44.8968 490.699C45.0246 491.116 45.2057 491.432 45.4401 491.647C45.6744 491.86 45.9562 491.967 46.2852 491.967ZM38.6895 508.915C38.1285 508.913 37.6491 508.765 37.2513 508.471C36.8536 508.178 36.5494 507.75 36.3387 507.189C36.128 506.628 36.0226 505.952 36.0226 505.162C36.0226 504.373 36.128 503.7 36.3387 503.141C36.5518 502.582 36.8572 502.156 37.2549 501.863C37.655 501.569 38.1332 501.422 38.6895 501.422C39.2459 501.422 39.7229 501.57 40.1207 501.866C40.5184 502.16 40.8226 502.586 41.0333 503.145C41.2464 503.701 41.3529 504.373 41.3529 505.162C41.3529 505.955 41.2475 506.632 41.0368 507.193C40.8261 507.752 40.5219 508.179 40.1242 508.475C39.7265 508.768 39.2483 508.915 38.6895 508.915ZM38.6895 507.967C39.182 507.967 39.5667 507.727 39.8437 507.246C40.123 506.766 40.2627 506.071 40.2627 505.162C40.2627 504.558 40.1988 504.048 40.0709 503.631C39.9455 503.212 39.7644 502.895 39.5276 502.679C39.2932 502.462 39.0139 502.353 38.6895 502.353C38.1995 502.353 37.8148 502.594 37.5354 503.077C37.2561 503.56 37.1152 504.255 37.1128 505.162C37.1128 505.768 37.1756 506.28 37.301 506.699C37.4289 507.116 37.61 507.432 37.8444 507.647C38.0787 507.86 38.3605 507.967 38.6895 507.967Z" fill="#768089"/>
<path d="M104.727 485.52V492.793H103.626V486.621H103.583L101.843 487.758V486.707L103.658 485.52H104.727ZM107.194 492.793V491.998L109.655 489.448C109.918 489.171 110.134 488.928 110.305 488.72C110.478 488.509 110.607 488.309 110.692 488.12C110.777 487.931 110.82 487.729 110.82 487.516C110.82 487.275 110.763 487.066 110.649 486.891C110.536 486.714 110.381 486.578 110.184 486.483C109.988 486.386 109.766 486.337 109.52 486.337C109.26 486.337 109.032 486.391 108.838 486.497C108.644 486.604 108.495 486.754 108.391 486.948C108.287 487.142 108.234 487.369 108.234 487.63H107.187C107.187 487.187 107.289 486.8 107.492 486.469C107.696 486.137 107.975 485.88 108.33 485.698C108.685 485.513 109.089 485.421 109.541 485.421C109.998 485.421 110.401 485.512 110.749 485.694C111.099 485.874 111.372 486.121 111.569 486.433C111.765 486.743 111.864 487.094 111.864 487.484C111.864 487.754 111.813 488.018 111.711 488.276C111.612 488.534 111.438 488.822 111.189 489.139C110.94 489.454 110.595 489.836 110.152 490.286L108.707 491.799V491.852H111.981V492.793H107.194ZM114.541 491.891C114.346 491.891 114.18 491.823 114.04 491.685C113.9 491.546 113.83 491.377 113.83 491.181C113.83 490.987 113.9 490.821 114.04 490.684C114.18 490.544 114.346 490.474 114.541 490.474C114.735 490.474 114.902 490.544 115.041 490.684C115.181 490.821 115.251 490.987 115.251 491.181C115.251 491.311 115.218 491.431 115.151 491.54C115.087 491.646 115.002 491.731 114.896 491.795C114.789 491.859 114.671 491.891 114.541 491.891ZM114.541 488.248C114.346 488.248 114.18 488.179 114.04 488.042C113.9 487.902 113.83 487.734 113.83 487.538C113.83 487.343 113.9 487.178 114.04 487.04C114.18 486.901 114.346 486.831 114.541 486.831C114.735 486.831 114.902 486.901 115.041 487.04C115.181 487.178 115.251 487.343 115.251 487.538C115.251 487.668 115.218 487.787 115.151 487.896C115.087 488.003 115.002 488.088 114.896 488.152C114.789 488.216 114.671 488.248 114.541 488.248ZM119.691 492.914C119.13 492.912 118.65 492.764 118.253 492.47C117.855 492.176 117.551 491.749 117.34 491.188C117.129 490.627 117.024 489.951 117.024 489.16C117.024 488.372 117.129 487.699 117.34 487.14C117.553 486.581 117.858 486.155 118.256 485.861C118.656 485.568 119.134 485.421 119.691 485.421C120.247 485.421 120.724 485.569 121.122 485.865C121.52 486.159 121.824 486.585 122.035 487.143C122.248 487.7 122.354 488.372 122.354 489.16C122.354 489.953 122.249 490.631 122.038 491.192C121.827 491.75 121.523 492.178 121.125 492.474C120.728 492.767 120.249 492.914 119.691 492.914ZM119.691 491.966C120.183 491.966 120.568 491.726 120.845 491.245C121.124 490.764 121.264 490.069 121.264 489.16C121.264 488.557 121.2 488.047 121.072 487.63C120.947 487.211 120.766 486.894 120.529 486.678C120.294 486.46 120.015 486.351 119.691 486.351C119.201 486.351 118.816 486.593 118.537 487.076C118.257 487.559 118.116 488.254 118.114 489.16C118.114 489.766 118.177 490.279 118.302 490.698C118.43 491.115 118.611 491.431 118.846 491.646C119.08 491.859 119.362 491.966 119.691 491.966ZM112.095 508.914C111.534 508.912 111.055 508.764 110.657 508.47C110.259 508.176 109.955 507.749 109.744 507.188C109.534 506.627 109.428 505.951 109.428 505.16C109.428 504.372 109.534 503.699 109.744 503.14C109.957 502.581 110.263 502.155 110.66 501.861C111.061 501.568 111.539 501.421 112.095 501.421C112.651 501.421 113.128 501.569 113.526 501.865C113.924 502.159 114.228 502.585 114.439 503.143C114.652 503.7 114.758 504.372 114.758 505.16C114.758 505.953 114.653 506.631 114.442 507.192C114.232 507.75 113.927 508.178 113.53 508.474C113.132 508.767 112.654 508.914 112.095 508.914ZM112.095 507.966C112.588 507.966 112.972 507.726 113.249 507.245C113.529 506.764 113.668 506.069 113.668 505.16C113.668 504.557 113.604 504.047 113.476 503.63C113.351 503.211 113.17 502.894 112.933 502.678C112.699 502.46 112.419 502.351 112.095 502.351C111.605 502.351 111.22 502.593 110.941 503.076C110.662 503.559 110.521 504.254 110.518 505.16C110.518 505.766 110.581 506.279 110.707 506.698C110.834 507.115 111.016 507.431 111.25 507.646C111.484 507.859 111.766 507.966 112.095 507.966Z" fill="#768089"/>
<path d="M186.403 485.52V492.793H185.302V486.621H185.259L183.519 487.758V486.707L185.334 485.52H186.403ZM188.87 492.793V491.998L191.331 489.448C191.594 489.171 191.81 488.928 191.981 488.72C192.154 488.509 192.283 488.309 192.368 488.12C192.453 487.931 192.496 487.729 192.496 487.516C192.496 487.275 192.439 487.066 192.325 486.891C192.212 486.714 192.056 486.578 191.86 486.483C191.663 486.386 191.442 486.337 191.196 486.337C190.935 486.337 190.708 486.391 190.514 486.497C190.32 486.604 190.171 486.754 190.067 486.948C189.962 487.142 189.91 487.369 189.91 487.63H188.863C188.863 487.187 188.965 486.8 189.168 486.469C189.372 486.137 189.651 485.88 190.006 485.698C190.361 485.513 190.765 485.421 191.217 485.421C191.674 485.421 192.077 485.512 192.425 485.694C192.775 485.874 193.048 486.121 193.245 486.433C193.441 486.743 193.54 487.094 193.54 487.484C193.54 487.754 193.489 488.018 193.387 488.276C193.288 488.534 193.114 488.822 192.865 489.139C192.616 489.454 192.271 489.836 191.828 490.286L190.383 491.799V491.852H193.657V492.793H188.87ZM196.216 491.891C196.022 491.891 195.855 491.823 195.716 491.685C195.576 491.546 195.506 491.377 195.506 491.181C195.506 490.987 195.576 490.821 195.716 490.684C195.855 490.544 196.022 490.474 196.216 490.474C196.411 490.474 196.578 490.544 196.717 490.684C196.857 490.821 196.927 490.987 196.927 491.181C196.927 491.311 196.894 491.431 196.827 491.54C196.763 491.646 196.678 491.731 196.572 491.795C196.465 491.859 196.347 491.891 196.216 491.891ZM196.216 488.248C196.022 488.248 195.855 488.179 195.716 488.042C195.576 487.902 195.506 487.734 195.506 487.538C195.506 487.343 195.576 487.178 195.716 487.04C195.855 486.901 196.022 486.831 196.216 486.831C196.411 486.831 196.578 486.901 196.717 487.04C196.857 487.178 196.927 487.343 196.927 487.538C196.927 487.668 196.894 487.787 196.827 487.896C196.763 488.003 196.678 488.088 196.572 488.152C196.465 488.216 196.347 488.248 196.216 488.248ZM201.367 492.914C200.806 492.912 200.326 492.764 199.929 492.47C199.531 492.176 199.227 491.749 199.016 491.188C198.805 490.627 198.7 489.951 198.7 489.16C198.7 488.372 198.805 487.699 199.016 487.14C199.229 486.581 199.534 486.155 199.932 485.861C200.332 485.568 200.81 485.421 201.367 485.421C201.923 485.421 202.4 485.569 202.798 485.865C203.196 486.159 203.5 486.585 203.71 487.143C203.924 487.7 204.03 488.372 204.03 489.16C204.03 489.953 203.925 490.631 203.714 491.192C203.503 491.75 203.199 492.178 202.801 492.474C202.404 492.767 201.925 492.914 201.367 492.914ZM201.367 491.966C201.859 491.966 202.244 491.726 202.521 491.245C202.8 490.764 202.94 490.069 202.94 489.16C202.94 488.557 202.876 488.047 202.748 487.63C202.623 487.211 202.442 486.894 202.205 486.678C201.97 486.46 201.691 486.351 201.367 486.351C200.877 486.351 200.492 486.593 200.213 487.076C199.933 487.559 199.792 488.254 199.79 489.16C199.79 489.766 199.853 490.279 199.978 490.698C200.106 491.115 200.287 491.431 200.522 491.646C200.756 491.859 201.038 491.966 201.367 491.966ZM193.771 508.914C193.21 508.912 192.731 508.764 192.333 508.47C191.935 508.176 191.631 507.749 191.42 507.188C191.209 506.627 191.104 505.951 191.104 505.16C191.104 504.372 191.209 503.699 191.42 503.14C191.633 502.581 191.939 502.155 192.336 501.861C192.736 501.568 193.215 501.421 193.771 501.421C194.327 501.421 194.804 501.569 195.202 501.865C195.6 502.159 195.904 502.585 196.115 503.143C196.328 503.7 196.434 504.372 196.434 505.16C196.434 505.953 196.329 506.631 196.118 507.192C195.908 507.75 195.603 508.178 195.206 508.474C194.808 508.767 194.33 508.914 193.771 508.914ZM193.771 507.966C194.263 507.966 194.648 507.726 194.925 507.245C195.204 506.764 195.344 506.069 195.344 505.16C195.344 504.557 195.28 504.047 195.152 503.63C195.027 503.211 194.846 502.894 194.609 502.678C194.375 502.46 194.095 502.351 193.771 502.351C193.281 502.351 192.896 502.593 192.617 503.076C192.338 503.559 192.197 504.254 192.194 505.16C192.194 505.766 192.257 506.279 192.383 506.698C192.51 507.115 192.691 507.431 192.926 507.646C193.16 507.859 193.442 507.966 193.771 507.966Z" fill="#768089"/>
<path d="M265.334 485.52V492.793H264.233V486.621H264.19L262.45 487.758V486.707L264.265 485.52H265.334ZM267.801 492.793V491.998L270.262 489.448C270.525 489.171 270.741 488.928 270.912 488.72C271.084 488.509 271.214 488.309 271.299 488.12C271.384 487.931 271.427 487.729 271.427 487.516C271.427 487.275 271.37 487.066 271.256 486.891C271.142 486.714 270.987 486.578 270.791 486.483C270.594 486.386 270.373 486.337 270.127 486.337C269.866 486.337 269.639 486.391 269.445 486.497C269.251 486.604 269.102 486.754 268.998 486.948C268.893 487.142 268.841 487.369 268.841 487.63H267.794C267.794 487.187 267.896 486.8 268.099 486.469C268.303 486.137 268.582 485.88 268.937 485.698C269.292 485.513 269.696 485.421 270.148 485.421C270.605 485.421 271.008 485.512 271.356 485.694C271.706 485.874 271.979 486.121 272.176 486.433C272.372 486.743 272.471 487.094 272.471 487.484C272.471 487.754 272.42 488.018 272.318 488.276C272.218 488.534 272.044 488.822 271.796 489.139C271.547 489.454 271.202 489.836 270.759 490.286L269.314 491.799V491.852H272.588V492.793H267.801ZM275.147 491.891C274.953 491.891 274.786 491.823 274.647 491.685C274.507 491.546 274.437 491.377 274.437 491.181C274.437 490.987 274.507 490.821 274.647 490.684C274.786 490.544 274.953 490.474 275.147 490.474C275.342 490.474 275.508 490.544 275.648 490.684C275.788 490.821 275.858 490.987 275.858 491.181C275.858 491.311 275.825 491.431 275.758 491.54C275.694 491.646 275.609 491.731 275.503 491.795C275.396 491.859 275.278 491.891 275.147 491.891ZM275.147 488.248C274.953 488.248 274.786 488.179 274.647 488.042C274.507 487.902 274.437 487.734 274.437 487.538C274.437 487.343 274.507 487.178 274.647 487.04C274.786 486.901 274.953 486.831 275.147 486.831C275.342 486.831 275.508 486.901 275.648 487.04C275.788 487.178 275.858 487.343 275.858 487.538C275.858 487.668 275.825 487.787 275.758 487.896C275.694 488.003 275.609 488.088 275.503 488.152C275.396 488.216 275.278 488.248 275.147 488.248ZM280.298 492.914C279.737 492.912 279.257 492.764 278.859 492.47C278.462 492.176 278.158 491.749 277.947 491.188C277.736 490.627 277.631 489.951 277.631 489.16C277.631 488.372 277.736 487.699 277.947 487.14C278.16 486.581 278.465 486.155 278.863 485.861C279.263 485.568 279.741 485.421 280.298 485.421C280.854 485.421 281.331 485.569 281.729 485.865C282.127 486.159 282.431 486.585 282.641 487.143C282.854 487.7 282.961 488.372 282.961 489.16C282.961 489.953 282.856 490.631 282.645 491.192C282.434 491.75 282.13 492.178 281.732 492.474C281.335 492.767 280.856 492.914 280.298 492.914ZM280.298 491.966C280.79 491.966 281.175 491.726 281.452 491.245C281.731 490.764 281.871 490.069 281.871 489.16C281.871 488.557 281.807 488.047 281.679 487.63C281.554 487.211 281.372 486.894 281.136 486.678C280.901 486.46 280.622 486.351 280.298 486.351C279.808 486.351 279.423 486.593 279.144 487.076C278.864 487.559 278.723 488.254 278.721 489.16C278.721 489.766 278.784 490.279 278.909 490.698C279.037 491.115 279.218 491.431 279.452 491.646C279.687 491.859 279.969 491.966 280.298 491.966ZM272.702 508.914C272.141 508.912 271.661 508.764 271.264 508.47C270.866 508.176 270.562 507.749 270.351 507.188C270.14 506.627 270.035 505.951 270.035 505.16C270.035 504.372 270.14 503.699 270.351 503.14C270.564 502.581 270.87 502.155 271.267 501.861C271.667 501.568 272.146 501.421 272.702 501.421C273.258 501.421 273.735 501.569 274.133 501.865C274.531 502.159 274.835 502.585 275.046 503.143C275.259 503.7 275.365 504.372 275.365 505.16C275.365 505.953 275.26 506.631 275.049 507.192C274.839 507.75 274.534 508.178 274.137 508.474C273.739 508.767 273.261 508.914 272.702 508.914ZM272.702 507.966C273.194 507.966 273.579 507.726 273.856 507.245C274.135 506.764 274.275 506.069 274.275 505.16C274.275 504.557 274.211 504.047 274.083 503.63C273.958 503.211 273.777 502.894 273.54 502.678C273.306 502.46 273.026 502.351 272.702 502.351C272.212 502.351 271.827 502.593 271.548 503.076C271.268 503.559 271.128 504.254 271.125 505.16C271.125 505.766 271.188 506.279 271.313 506.698C271.441 507.115 271.622 507.431 271.857 507.646C272.091 507.859 272.373 507.966 272.702 507.966Z" fill="#768089"/>
<path d="M345.996 485.394V492.667H344.895V486.495H344.852L343.112 487.631V486.58L344.927 485.394H345.996ZM348.463 492.667V491.871L350.924 489.321C351.187 489.044 351.403 488.802 351.574 488.593C351.746 488.383 351.876 488.183 351.961 487.993C352.046 487.804 352.089 487.603 352.089 487.39C352.089 487.148 352.032 486.94 351.918 486.765C351.804 486.587 351.649 486.451 351.453 486.356C351.256 486.259 351.035 486.211 350.789 486.211C350.528 486.211 350.301 486.264 350.107 486.37C349.913 486.477 349.764 486.627 349.66 486.821C349.555 487.015 349.503 487.243 349.503 487.503H348.456C348.456 487.06 348.558 486.673 348.761 486.342C348.965 486.01 349.244 485.754 349.599 485.571C349.954 485.387 350.358 485.294 350.81 485.294C351.267 485.294 351.67 485.385 352.018 485.568C352.368 485.748 352.641 485.994 352.838 486.306C353.034 486.617 353.133 486.967 353.133 487.358C353.133 487.627 353.082 487.891 352.98 488.149C352.88 488.408 352.706 488.695 352.458 489.012C352.209 489.327 351.864 489.71 351.421 490.159L349.976 491.672V491.725H353.25V492.667H348.463ZM355.809 491.765C355.615 491.765 355.448 491.696 355.309 491.559C355.169 491.419 355.099 491.251 355.099 491.054C355.099 490.86 355.169 490.694 355.309 490.557C355.448 490.417 355.615 490.348 355.809 490.348C356.004 490.348 356.171 490.417 356.31 490.557C356.45 490.694 356.52 490.86 356.52 491.054C356.52 491.184 356.487 491.304 356.42 491.413C356.356 491.519 356.271 491.605 356.165 491.669C356.058 491.733 355.94 491.765 355.809 491.765ZM355.809 488.121C355.615 488.121 355.448 488.052 355.309 487.915C355.169 487.775 355.099 487.607 355.099 487.411C355.099 487.217 355.169 487.051 355.309 486.914C355.448 486.774 355.615 486.704 355.809 486.704C356.004 486.704 356.171 486.774 356.31 486.914C356.45 487.051 356.52 487.217 356.52 487.411C356.52 487.541 356.487 487.661 356.42 487.769C356.356 487.876 356.271 487.961 356.165 488.025C356.058 488.089 355.94 488.121 355.809 488.121ZM360.96 492.787C360.399 492.785 359.919 492.637 359.521 492.343C359.124 492.05 358.82 491.622 358.609 491.061C358.398 490.5 358.293 489.824 358.293 489.034C358.293 488.245 358.398 487.572 358.609 487.013C358.822 486.454 359.127 486.028 359.525 485.735C359.925 485.441 360.403 485.294 360.96 485.294C361.516 485.294 361.993 485.442 362.391 485.738C362.789 486.032 363.093 486.458 363.303 487.017C363.517 487.573 363.623 488.245 363.623 489.034C363.623 489.827 363.518 490.504 363.307 491.065C363.096 491.624 362.792 492.051 362.394 492.347C361.997 492.64 361.518 492.787 360.96 492.787ZM360.96 491.839C361.452 491.839 361.837 491.599 362.114 491.118C362.393 490.638 362.533 489.943 362.533 489.034C362.533 488.43 362.469 487.92 362.341 487.503C362.216 487.084 362.034 486.767 361.798 486.551C361.563 486.334 361.284 486.225 360.96 486.225C360.47 486.225 360.085 486.466 359.806 486.949C359.526 487.432 359.385 488.127 359.383 489.034C359.383 489.64 359.446 490.152 359.571 490.571C359.699 490.988 359.88 491.304 360.115 491.519C360.349 491.733 360.631 491.839 360.96 491.839ZM353.364 508.787C352.803 508.785 352.323 508.637 351.926 508.343C351.528 508.05 351.224 507.622 351.013 507.061C350.802 506.5 350.697 505.824 350.697 505.034C350.697 504.245 350.802 503.572 351.013 503.013C351.226 502.454 351.532 502.028 351.929 501.735C352.329 501.441 352.808 501.294 353.364 501.294C353.92 501.294 354.397 501.442 354.795 501.738C355.193 502.032 355.497 502.458 355.708 503.017C355.921 503.573 356.027 504.245 356.027 505.034C356.027 505.827 355.922 506.504 355.711 507.065C355.501 507.624 355.196 508.051 354.799 508.347C354.401 508.64 353.923 508.787 353.364 508.787ZM353.364 507.839C353.856 507.839 354.241 507.599 354.518 507.118C354.797 506.638 354.937 505.943 354.937 505.034C354.937 504.43 354.873 503.92 354.745 503.503C354.62 503.084 354.439 502.767 354.202 502.551C353.968 502.334 353.688 502.225 353.364 502.225C352.874 502.225 352.489 502.466 352.21 502.949C351.931 503.432 351.79 504.127 351.787 505.034C351.787 505.64 351.85 506.152 351.975 506.571C352.103 506.988 352.284 507.304 352.519 507.519C352.753 507.733 353.035 507.839 353.364 507.839Z" fill="#768089"/>
<path d="M419.131 485.52V492.793H418.03V486.621H417.987L416.247 487.758V486.707L418.062 485.52H419.131ZM421.598 492.793V491.998L424.059 489.448C424.322 489.171 424.539 488.928 424.709 488.72C424.882 488.509 425.011 488.309 425.096 488.12C425.181 487.931 425.224 487.729 425.224 487.516C425.224 487.275 425.167 487.066 425.053 486.891C424.94 486.714 424.785 486.578 424.588 486.483C424.392 486.386 424.17 486.337 423.924 486.337C423.664 486.337 423.437 486.391 423.242 486.497C423.048 486.604 422.899 486.754 422.795 486.948C422.691 487.142 422.639 487.369 422.639 487.63H421.591C421.591 487.187 421.693 486.8 421.896 486.469C422.1 486.137 422.379 485.88 422.735 485.698C423.09 485.513 423.493 485.421 423.945 485.421C424.402 485.421 424.805 485.512 425.153 485.694C425.503 485.874 425.777 486.121 425.973 486.433C426.17 486.743 426.268 487.094 426.268 487.484C426.268 487.754 426.217 488.018 426.115 488.276C426.016 488.534 425.842 488.822 425.593 489.139C425.345 489.454 424.999 489.836 424.556 490.286L423.111 491.799V491.852H426.385V492.793H421.598ZM428.945 491.891C428.751 491.891 428.584 491.823 428.444 491.685C428.304 491.546 428.235 491.377 428.235 491.181C428.235 490.987 428.304 490.821 428.444 490.684C428.584 490.544 428.751 490.474 428.945 490.474C429.139 490.474 429.306 490.544 429.445 490.684C429.585 490.821 429.655 490.987 429.655 491.181C429.655 491.311 429.622 491.431 429.556 491.54C429.492 491.646 429.406 491.731 429.3 491.795C429.193 491.859 429.075 491.891 428.945 491.891ZM428.945 488.248C428.751 488.248 428.584 488.179 428.444 488.042C428.304 487.902 428.235 487.734 428.235 487.538C428.235 487.343 428.304 487.178 428.444 487.04C428.584 486.901 428.751 486.831 428.945 486.831C429.139 486.831 429.306 486.901 429.445 487.04C429.585 487.178 429.655 487.343 429.655 487.538C429.655 487.668 429.622 487.787 429.556 487.896C429.492 488.003 429.406 488.088 429.3 488.152C429.193 488.216 429.075 488.248 428.945 488.248ZM434.095 492.914C433.534 492.912 433.055 492.764 432.657 492.47C432.259 492.176 431.955 491.749 431.744 491.188C431.533 490.627 431.428 489.951 431.428 489.16C431.428 488.372 431.533 487.699 431.744 487.14C431.957 486.581 432.263 486.155 432.66 485.861C433.06 485.568 433.539 485.421 434.095 485.421C434.651 485.421 435.128 485.569 435.526 485.865C435.924 486.159 436.228 486.585 436.439 487.143C436.652 487.7 436.758 488.372 436.758 489.16C436.758 489.953 436.653 490.631 436.442 491.192C436.232 491.75 435.927 492.178 435.53 492.474C435.132 492.767 434.654 492.914 434.095 492.914ZM434.095 491.966C434.587 491.966 434.972 491.726 435.249 491.245C435.528 490.764 435.668 490.069 435.668 489.16C435.668 488.557 435.604 488.047 435.476 487.63C435.351 487.211 435.17 486.894 434.933 486.678C434.699 486.46 434.419 486.351 434.095 486.351C433.605 486.351 433.22 486.593 432.941 487.076C432.662 487.559 432.521 488.254 432.518 489.16C432.518 489.766 432.581 490.279 432.707 490.698C432.834 491.115 433.015 491.431 433.25 491.646C433.484 491.859 433.766 491.966 434.095 491.966ZM426.499 508.914C425.938 508.912 425.459 508.764 425.061 508.47C424.663 508.176 424.359 507.749 424.148 507.188C423.938 506.627 423.832 505.951 423.832 505.16C423.832 504.372 423.938 503.699 424.148 503.14C424.362 502.581 424.667 502.155 425.065 501.861C425.465 501.568 425.943 501.421 426.499 501.421C427.056 501.421 427.533 501.569 427.93 501.865C428.328 502.159 428.632 502.585 428.843 503.143C429.056 503.7 429.163 504.372 429.163 505.16C429.163 505.953 429.057 506.631 428.847 507.192C428.636 507.75 428.332 508.178 427.934 508.474C427.536 508.767 427.058 508.914 426.499 508.914ZM426.499 507.966C426.992 507.966 427.376 507.726 427.653 507.245C427.933 506.764 428.072 506.069 428.072 505.16C428.072 504.557 428.009 504.047 427.881 503.63C427.755 503.211 427.574 502.894 427.337 502.678C427.103 502.46 426.824 502.351 426.499 502.351C426.009 502.351 425.625 502.593 425.345 503.076C425.066 503.559 424.925 504.254 424.923 505.16C424.923 505.766 424.985 506.279 425.111 506.698C425.239 507.115 425.42 507.431 425.654 507.646C425.889 507.859 426.17 507.966 426.499 507.966Z" fill="#768089"/>
<path d="M448.63 61.2423C448.069 61.24 447.59 61.092 447.192 60.7984C446.794 60.5049 446.49 60.0775 446.279 59.5165C446.069 58.9554 445.963 58.2795 445.963 57.4888C445.963 56.7004 446.069 56.0269 446.279 55.4682C446.492 54.9095 446.798 54.4833 447.195 54.1898C447.596 53.8962 448.074 53.7494 448.63 53.7494C449.186 53.7494 449.664 53.8974 450.061 54.1933C450.459 54.4869 450.763 54.913 450.974 55.4717C451.187 56.0281 451.293 56.7004 451.293 57.4888C451.293 58.2819 451.188 58.9589 450.977 59.52C450.767 60.0787 450.463 60.5061 450.065 60.802C449.667 61.0955 449.189 61.2423 448.63 61.2423ZM448.63 60.2942C449.123 60.2942 449.507 60.0539 449.784 59.5733C450.064 59.0927 450.203 58.3979 450.203 57.4888C450.203 56.8851 450.139 56.3749 450.012 55.9582C449.886 55.5392 449.705 55.222 449.468 55.0065C449.234 54.7887 448.954 54.6798 448.63 54.6798C448.14 54.6798 447.755 54.9213 447.476 55.4043C447.197 55.8872 447.056 56.582 447.053 57.4888C447.053 58.0948 447.116 58.6074 447.242 59.0264C447.369 59.4431 447.551 59.7591 447.785 59.9746C448.019 60.1876 448.301 60.2942 448.63 60.2942ZM453.503 61.1891C453.309 61.1891 453.142 61.1204 453.003 60.9831C452.863 60.8434 452.793 60.6753 452.793 60.4788C452.793 60.2847 452.863 60.119 453.003 59.9817C453.142 59.842 453.309 59.7722 453.503 59.7722C453.697 59.7722 453.864 59.842 454.004 59.9817C454.144 60.119 454.214 60.2847 454.214 60.4788C454.214 60.609 454.18 60.7286 454.114 60.8375C454.05 60.944 453.965 61.0293 453.858 61.0932C453.752 61.1571 453.634 61.1891 453.503 61.1891ZM458.39 61.2423C457.829 61.24 457.349 61.092 456.952 60.7984C456.554 60.5049 456.25 60.0775 456.039 59.5165C455.828 58.9554 455.723 58.2795 455.723 57.4888C455.723 56.7004 455.828 56.0269 456.039 55.4682C456.252 54.9095 456.557 54.4833 456.955 54.1898C457.355 53.8962 457.834 53.7494 458.39 53.7494C458.946 53.7494 459.423 53.8974 459.821 54.1933C460.219 54.4869 460.523 54.913 460.734 55.4717C460.947 56.0281 461.053 56.7004 461.053 57.4888C461.053 58.2819 460.948 58.9589 460.737 59.52C460.526 60.0787 460.222 60.5061 459.825 60.802C459.427 61.0955 458.949 61.2423 458.39 61.2423ZM458.39 60.2942C458.882 60.2942 459.267 60.0539 459.544 59.5733C459.823 59.0927 459.963 58.3979 459.963 57.4888C459.963 56.8851 459.899 56.3749 459.771 55.9582C459.646 55.5392 459.465 55.222 459.228 55.0065C458.994 54.7887 458.714 54.6798 458.39 54.6798C457.9 54.6798 457.515 54.9213 457.236 55.4043C456.956 55.8872 456.816 56.582 456.813 57.4888C456.813 58.0948 456.876 58.6074 457.001 59.0264C457.129 59.4431 457.31 59.7591 457.545 59.9746C457.779 60.1876 458.061 60.2942 458.39 60.2942ZM465.27 61.221C464.761 61.221 464.312 61.1334 463.921 60.9582C463.533 60.783 463.228 60.5416 463.008 60.2338C462.788 59.926 462.679 59.5757 462.682 59.1827C462.679 58.8749 462.742 58.592 462.87 58.3339C463 58.0735 463.176 57.8569 463.399 57.6841C463.621 57.5089 463.87 57.3976 464.145 57.3503V57.3077C463.782 57.2201 463.492 57.0259 463.275 56.7253C463.057 56.4246 462.949 56.079 462.951 55.6883C462.949 55.3167 463.047 54.9852 463.246 54.694C463.447 54.4005 463.723 54.1696 464.074 54.0016C464.424 53.8335 464.823 53.7494 465.27 53.7494C465.713 53.7494 466.108 53.8346 466.456 54.0051C466.807 54.1732 467.083 54.404 467.284 54.6976C467.485 54.9888 467.587 55.319 467.589 55.6883C467.587 56.079 467.476 56.4246 467.255 56.7253C467.035 57.0259 466.749 57.2201 466.396 57.3077V57.3503C466.668 57.3976 466.913 57.5089 467.131 57.6841C467.351 57.8569 467.527 58.0735 467.657 58.3339C467.789 58.592 467.857 58.8749 467.859 59.1827C467.857 59.5757 467.746 59.926 467.525 60.2338C467.305 60.5416 467 60.783 466.609 60.9582C466.221 61.1334 465.775 61.221 465.27 61.221ZM465.27 60.3226C465.571 60.3226 465.831 60.2729 466.052 60.1734C466.272 60.0716 466.442 59.9308 466.563 59.7508C466.684 59.5686 466.745 59.3555 466.748 59.1116C466.745 58.8583 466.679 58.6346 466.549 58.4405C466.421 58.2463 466.247 58.0936 466.027 57.9824C465.807 57.8711 465.554 57.8155 465.27 57.8155C464.984 57.8155 464.729 57.8711 464.507 57.9824C464.284 58.0936 464.109 58.2463 463.981 58.4405C463.853 58.6346 463.791 58.8583 463.793 59.1116C463.791 59.3555 463.849 59.5686 463.967 59.7508C464.088 59.9308 464.26 60.0716 464.482 60.1734C464.705 60.2729 464.967 60.3226 465.27 60.3226ZM465.27 56.9383C465.512 56.9383 465.726 56.8898 465.913 56.7927C466.1 56.6957 466.247 56.5607 466.353 56.3879C466.462 56.2151 466.518 56.0127 466.52 55.7807C466.518 55.5534 466.464 55.3545 466.357 55.1841C466.253 55.0136 466.107 54.8822 465.92 54.7899C465.733 54.6952 465.517 54.6479 465.27 54.6479C465.019 54.6479 464.799 54.6952 464.61 54.7899C464.423 54.8822 464.277 55.0136 464.173 55.1841C464.069 55.3545 464.018 55.5534 464.02 55.7807C464.018 56.0127 464.07 56.2151 464.177 56.3879C464.283 56.5607 464.43 56.6957 464.617 56.7927C464.806 56.8898 465.024 56.9383 465.27 56.9383ZM465.208 77.2423C464.647 77.24 464.168 77.092 463.77 76.7984C463.372 76.5049 463.068 76.0775 462.857 75.5165C462.647 74.9554 462.541 74.2795 462.541 73.4888C462.541 72.7004 462.647 72.0269 462.857 71.4682C463.07 70.9095 463.376 70.4833 463.774 70.1898C464.174 69.8962 464.652 69.7494 465.208 69.7494C465.765 69.7494 466.242 69.8974 466.639 70.1933C467.037 70.4869 467.341 70.913 467.552 71.4717C467.765 72.0281 467.872 72.7004 467.872 73.4888C467.872 74.2819 467.766 74.9589 467.556 75.52C467.345 76.0787 467.041 76.5061 466.643 76.802C466.245 77.0955 465.767 77.2423 465.208 77.2423ZM465.208 76.2942C465.701 76.2942 466.085 76.0539 466.362 75.5733C466.642 75.0927 466.781 74.3979 466.781 73.4888C466.781 72.8851 466.717 72.3749 466.59 71.9582C466.464 71.5392 466.283 71.222 466.046 71.0065C465.812 70.7887 465.533 70.6798 465.208 70.6798C464.718 70.6798 464.333 70.9213 464.054 71.4043C463.775 71.8872 463.634 72.582 463.632 73.4888C463.632 74.0948 463.694 74.6074 463.82 75.0264C463.948 75.4431 464.129 75.7591 464.363 75.9746C464.597 76.1876 464.879 76.2942 465.208 76.2942Z" fill="#768089"/>
<path d="M447.849 372.226C447.288 372.223 446.808 372.075 446.411 371.782C446.013 371.488 445.709 371.061 445.498 370.5C445.287 369.939 445.182 369.263 445.182 368.472C445.182 367.684 445.287 367.01 445.498 366.452C445.711 365.893 446.016 365.467 446.414 365.173C446.814 364.88 447.293 364.733 447.849 364.733C448.405 364.733 448.882 364.881 449.28 365.177C449.678 365.47 449.982 365.896 450.193 366.455C450.406 367.011 450.512 367.684 450.512 368.472C450.512 369.265 450.407 369.942 450.196 370.503C449.985 371.062 449.681 371.489 449.284 371.785C448.886 372.079 448.408 372.226 447.849 372.226ZM447.849 371.278C448.341 371.278 448.726 371.037 449.003 370.557C449.282 370.076 449.422 369.381 449.422 368.472C449.422 367.868 449.358 367.358 449.23 366.942C449.105 366.523 448.924 366.205 448.687 365.99C448.453 365.772 448.173 365.663 447.849 365.663C447.359 365.663 446.974 365.905 446.695 366.388C446.415 366.871 446.275 367.565 446.272 368.472C446.272 369.078 446.335 369.591 446.46 370.01C446.588 370.426 446.769 370.743 447.004 370.958C447.238 371.171 447.52 371.278 447.849 371.278ZM452.722 372.172C452.528 372.172 452.361 372.104 452.221 371.966C452.082 371.827 452.012 371.659 452.012 371.462C452.012 371.268 452.082 371.102 452.221 370.965C452.361 370.825 452.528 370.756 452.722 370.756C452.916 370.756 453.083 370.825 453.223 370.965C453.362 371.102 453.432 371.268 453.432 371.462C453.432 371.592 453.399 371.712 453.333 371.821C453.269 371.927 453.184 372.013 453.077 372.077C452.971 372.14 452.852 372.172 452.722 372.172ZM457.609 372.226C457.048 372.223 456.568 372.075 456.17 371.782C455.773 371.488 455.468 371.061 455.258 370.5C455.047 369.939 454.942 369.263 454.942 368.472C454.942 367.684 455.047 367.01 455.258 366.452C455.471 365.893 455.776 365.467 456.174 365.173C456.574 364.88 457.052 364.733 457.609 364.733C458.165 364.733 458.642 364.881 459.04 365.177C459.437 365.47 459.742 365.896 459.952 366.455C460.165 367.011 460.272 367.684 460.272 368.472C460.272 369.265 460.167 369.942 459.956 370.503C459.745 371.062 459.441 371.489 459.043 371.785C458.646 372.079 458.167 372.226 457.609 372.226ZM457.609 371.278C458.101 371.278 458.486 371.037 458.763 370.557C459.042 370.076 459.182 369.381 459.182 368.472C459.182 367.868 459.118 367.358 458.99 366.942C458.865 366.523 458.683 366.205 458.447 365.99C458.212 365.772 457.933 365.663 457.609 365.663C457.119 365.663 456.734 365.905 456.455 366.388C456.175 366.871 456.034 367.565 456.032 368.472C456.032 369.078 456.095 369.591 456.22 370.01C456.348 370.426 456.529 370.743 456.763 370.958C456.998 371.171 457.28 371.278 457.609 371.278ZM461.879 370.685V369.797L465.022 364.832H465.721V366.139H465.278L463.03 369.697V369.754H467.337V370.685H461.879ZM465.327 372.105V370.415L465.334 370.01V364.832H466.375V372.105H465.327ZM464.652 388.226C464.091 388.223 463.611 388.075 463.213 387.782C462.816 387.488 462.511 387.061 462.301 386.5C462.09 385.939 461.985 385.263 461.985 384.472C461.985 383.684 462.09 383.01 462.301 382.452C462.514 381.893 462.819 381.467 463.217 381.173C463.617 380.88 464.095 380.733 464.652 380.733C465.208 380.733 465.685 380.881 466.083 381.177C466.48 381.47 466.785 381.896 466.995 382.455C467.208 383.011 467.315 383.684 467.315 384.472C467.315 385.265 467.21 385.942 466.999 386.503C466.788 387.062 466.484 387.489 466.086 387.785C465.689 388.079 465.21 388.226 464.652 388.226ZM464.652 387.278C465.144 387.278 465.529 387.037 465.806 386.557C466.085 386.076 466.225 385.381 466.225 384.472C466.225 383.868 466.161 383.358 466.033 382.942C465.908 382.523 465.726 382.205 465.49 381.99C465.255 381.772 464.976 381.663 464.652 381.663C464.162 381.663 463.777 381.905 463.497 382.388C463.218 382.871 463.077 383.565 463.075 384.472C463.075 385.078 463.138 385.591 463.263 386.01C463.391 386.426 463.572 386.743 463.806 386.958C464.041 387.171 464.323 387.278 464.652 387.278Z" fill="#768089"/>
<path d="M448.816 449.493C448.255 449.49 447.775 449.342 447.377 449.049C446.98 448.755 446.676 448.328 446.465 447.767C446.254 447.206 446.149 446.53 446.149 445.739C446.149 444.951 446.254 444.277 446.465 443.719C446.678 443.16 446.983 442.734 447.381 442.44C447.781 442.147 448.259 442 448.816 442C449.372 442 449.849 442.148 450.247 442.444C450.645 442.737 450.949 443.164 451.159 443.722C451.372 444.279 451.479 444.951 451.479 445.739C451.479 446.532 451.374 447.209 451.163 447.771C450.952 448.329 450.648 448.757 450.25 449.052C449.853 449.346 449.374 449.493 448.816 449.493ZM448.816 448.545C449.308 448.545 449.693 448.304 449.97 447.824C450.249 447.343 450.389 446.648 450.389 445.739C450.389 445.136 450.325 444.625 450.197 444.209C450.072 443.79 449.89 443.472 449.654 443.257C449.419 443.039 449.14 442.93 448.816 442.93C448.326 442.93 447.941 443.172 447.662 443.655C447.382 444.138 447.241 444.833 447.239 445.739C447.239 446.345 447.302 446.858 447.427 447.277C447.555 447.694 447.736 448.01 447.97 448.225C448.205 448.438 448.487 448.545 448.816 448.545ZM453.689 449.44C453.495 449.44 453.328 449.371 453.188 449.234C453.049 449.094 452.979 448.926 452.979 448.729C452.979 448.535 453.049 448.369 453.188 448.232C453.328 448.092 453.495 448.023 453.689 448.023C453.883 448.023 454.05 448.092 454.19 448.232C454.329 448.369 454.399 448.535 454.399 448.729C454.399 448.86 454.366 448.979 454.3 449.088C454.236 449.195 454.151 449.28 454.044 449.344C453.937 449.408 453.819 449.44 453.689 449.44ZM458.575 449.493C458.014 449.49 457.535 449.342 457.137 449.049C456.739 448.755 456.435 448.328 456.225 447.767C456.014 447.206 455.909 446.53 455.909 445.739C455.909 444.951 456.014 444.277 456.225 443.719C456.438 443.16 456.743 442.734 457.141 442.44C457.541 442.147 458.019 442 458.575 442C459.132 442 459.609 442.148 460.007 442.444C460.404 442.737 460.708 443.164 460.919 443.722C461.132 444.279 461.239 444.951 461.239 445.739C461.239 446.532 461.133 447.209 460.923 447.771C460.712 448.329 460.408 448.757 460.01 449.052C459.612 449.346 459.134 449.493 458.575 449.493ZM458.575 448.545C459.068 448.545 459.453 448.304 459.73 447.824C460.009 447.343 460.149 446.648 460.149 445.739C460.149 445.136 460.085 444.625 459.957 444.209C459.831 443.79 459.65 443.472 459.414 443.257C459.179 443.039 458.9 442.93 458.575 442.93C458.085 442.93 457.701 443.172 457.421 443.655C457.142 444.138 457.001 444.833 456.999 445.739C456.999 446.345 457.061 446.858 457.187 447.277C457.315 447.694 457.496 448.01 457.73 448.225C457.965 448.438 458.246 448.545 458.575 448.545ZM462.999 449.372V448.577L465.459 446.027C465.722 445.75 465.939 445.507 466.109 445.299C466.282 445.088 466.411 444.888 466.496 444.699C466.582 444.509 466.624 444.308 466.624 444.095C466.624 443.854 466.567 443.645 466.454 443.47C466.34 443.293 466.185 443.156 465.989 443.062C465.792 442.965 465.571 442.916 465.325 442.916C465.064 442.916 464.837 442.969 464.643 443.076C464.449 443.182 464.299 443.333 464.195 443.527C464.091 443.721 464.039 443.948 464.039 444.209H462.991C462.991 443.766 463.093 443.379 463.297 443.047C463.5 442.716 463.78 442.459 464.135 442.277C464.49 442.092 464.894 442 465.346 442C465.803 442 466.205 442.091 466.553 442.273C466.904 442.453 467.177 442.699 467.374 443.012C467.57 443.322 467.668 443.672 467.668 444.063C467.668 444.333 467.617 444.597 467.516 444.855C467.416 445.113 467.242 445.401 466.994 445.718C466.745 446.033 466.399 446.415 465.957 446.865L464.511 448.378V448.431H467.785V449.372H462.999ZM465.208 465.493C464.647 465.49 464.168 465.342 463.77 465.049C463.372 464.755 463.068 464.328 462.857 463.767C462.647 463.206 462.541 462.53 462.541 461.739C462.541 460.951 462.647 460.277 462.857 459.719C463.07 459.16 463.376 458.734 463.774 458.44C464.174 458.147 464.652 458 465.208 458C465.765 458 466.242 458.148 466.639 458.444C467.037 458.737 467.341 459.164 467.552 459.722C467.765 460.279 467.872 460.951 467.872 461.739C467.872 462.532 467.766 463.209 467.556 463.771C467.345 464.329 467.041 464.757 466.643 465.052C466.245 465.346 465.767 465.493 465.208 465.493ZM465.208 464.545C465.701 464.545 466.085 464.304 466.362 463.824C466.642 463.343 466.781 462.648 466.781 461.739C466.781 461.136 466.717 460.625 466.59 460.209C466.464 459.79 466.283 459.472 466.046 459.257C465.812 459.039 465.533 458.93 465.208 458.93C464.718 458.93 464.333 459.172 464.054 459.655C463.775 460.138 463.634 460.833 463.632 461.739C463.632 462.345 463.694 462.858 463.82 463.277C463.948 463.694 464.129 464.01 464.363 464.225C464.597 464.438 464.879 464.545 465.208 464.545Z" fill="#768089"/>
<path d="M449.858 291.766C449.297 291.764 448.818 291.616 448.42 291.322C448.022 291.029 447.718 290.601 447.507 290.04C447.296 289.479 447.191 288.803 447.191 288.012C447.191 287.224 447.296 286.551 447.507 285.992C447.72 285.433 448.026 285.007 448.423 284.713C448.823 284.42 449.302 284.273 449.858 284.273C450.414 284.273 450.891 284.421 451.289 284.717C451.687 285.011 451.991 285.437 452.202 285.995C452.415 286.552 452.521 287.224 452.521 288.012C452.521 288.806 452.416 289.483 452.205 290.044C451.995 290.602 451.69 291.03 451.293 291.326C450.895 291.619 450.417 291.766 449.858 291.766ZM449.858 290.818C450.35 290.818 450.735 290.578 451.012 290.097C451.291 289.616 451.431 288.922 451.431 288.012C451.431 287.409 451.367 286.899 451.239 286.482C451.114 286.063 450.933 285.746 450.696 285.53C450.462 285.312 450.182 285.204 449.858 285.204C449.368 285.204 448.983 285.445 448.704 285.928C448.425 286.411 448.284 287.106 448.281 288.012C448.281 288.619 448.344 289.131 448.47 289.55C448.597 289.967 448.778 290.283 449.013 290.498C449.247 290.711 449.529 290.818 449.858 290.818ZM454.731 291.713C454.537 291.713 454.37 291.644 454.231 291.507C454.091 291.367 454.021 291.199 454.021 291.003C454.021 290.808 454.091 290.643 454.231 290.505C454.37 290.366 454.537 290.296 454.731 290.296C454.925 290.296 455.092 290.366 455.232 290.505C455.372 290.643 455.441 290.808 455.441 291.003C455.441 291.133 455.408 291.252 455.342 291.361C455.278 291.468 455.193 291.553 455.086 291.617C454.98 291.681 454.861 291.713 454.731 291.713ZM459.618 291.766C459.057 291.764 458.577 291.616 458.18 291.322C457.782 291.029 457.478 290.601 457.267 290.04C457.056 289.479 456.951 288.803 456.951 288.012C456.951 287.224 457.056 286.551 457.267 285.992C457.48 285.433 457.785 285.007 458.183 284.713C458.583 284.42 459.061 284.273 459.618 284.273C460.174 284.273 460.651 284.421 461.049 284.717C461.447 285.011 461.751 285.437 461.962 285.995C462.175 286.552 462.281 287.224 462.281 288.012C462.281 288.806 462.176 289.483 461.965 290.044C461.754 290.602 461.45 291.03 461.052 291.326C460.655 291.619 460.176 291.766 459.618 291.766ZM459.618 290.818C460.11 290.818 460.495 290.578 460.772 290.097C461.051 289.616 461.191 288.922 461.191 288.012C461.191 287.409 461.127 286.899 460.999 286.482C460.874 286.063 460.693 285.746 460.456 285.53C460.221 285.312 459.942 285.204 459.618 285.204C459.128 285.204 458.743 285.445 458.464 285.928C458.184 286.411 458.043 287.106 458.041 288.012C458.041 288.619 458.104 289.131 458.229 289.55C458.357 289.967 458.538 290.283 458.773 290.498C459.007 290.711 459.289 290.818 459.618 290.818ZM466.441 291.745C465.996 291.745 465.596 291.659 465.241 291.489C464.888 291.316 464.607 291.079 464.396 290.779C464.185 290.478 464.073 290.135 464.059 289.749H465.124C465.15 290.061 465.289 290.318 465.539 290.52C465.79 290.721 466.091 290.821 466.441 290.821C466.721 290.821 466.968 290.757 467.184 290.63C467.401 290.499 467.572 290.321 467.695 290.093C467.82 289.866 467.883 289.607 467.883 289.316C467.883 289.02 467.819 288.756 467.691 288.524C467.564 288.292 467.387 288.11 467.162 287.977C466.94 287.844 466.684 287.777 466.395 287.775C466.175 287.775 465.954 287.812 465.731 287.888C465.509 287.964 465.329 288.063 465.191 288.186L464.186 288.037L464.595 284.373H468.593V285.314H465.507L465.277 287.348H465.319C465.461 287.211 465.65 287.096 465.884 287.004C466.121 286.912 466.374 286.865 466.644 286.865C467.087 286.865 467.481 286.971 467.826 287.181C468.174 287.392 468.448 287.68 468.647 288.044C468.848 288.407 468.947 288.823 468.945 289.294C468.947 289.766 468.841 290.186 468.625 290.555C468.412 290.924 468.116 291.216 467.738 291.429C467.361 291.639 466.929 291.745 466.441 291.745ZM466.319 307.766C465.758 307.764 465.278 307.616 464.881 307.322C464.483 307.029 464.179 306.601 463.968 306.04C463.757 305.479 463.652 304.803 463.652 304.012C463.652 303.224 463.757 302.551 463.968 301.992C464.181 301.433 464.487 301.007 464.884 300.713C465.284 300.42 465.763 300.273 466.319 300.273C466.875 300.273 467.352 300.421 467.75 300.717C468.148 301.011 468.452 301.437 468.663 301.995C468.876 302.552 468.982 303.224 468.982 304.012C468.982 304.806 468.877 305.483 468.666 306.044C468.456 306.602 468.151 307.03 467.754 307.326C467.356 307.619 466.878 307.766 466.319 307.766ZM466.319 306.818C466.811 306.818 467.196 306.578 467.473 306.097C467.752 305.616 467.892 304.922 467.892 304.012C467.892 303.409 467.828 302.899 467.7 302.482C467.575 302.063 467.394 301.746 467.157 301.53C466.923 301.312 466.643 301.204 466.319 301.204C465.829 301.204 465.444 301.445 465.165 301.928C464.885 302.411 464.745 303.106 464.742 304.012C464.742 304.619 464.805 305.131 464.93 305.55C465.058 305.967 465.239 306.283 465.474 306.498C465.708 306.711 465.99 306.818 466.319 306.818Z" fill="#768089"/>
<path d="M449.104 133.4C448.543 133.398 448.064 133.25 447.666 132.956C447.269 132.663 446.964 132.236 446.754 131.674C446.543 131.113 446.438 130.437 446.438 129.647C446.438 128.858 446.543 128.185 446.754 127.626C446.967 127.067 447.272 126.641 447.67 126.348C448.07 126.054 448.548 125.907 449.104 125.907C449.661 125.907 450.138 126.055 450.536 126.351C450.933 126.645 451.238 127.071 451.448 127.63C451.661 128.186 451.768 128.858 451.768 129.647C451.768 130.44 451.662 131.117 451.452 131.678C451.241 132.237 450.937 132.664 450.539 132.96C450.141 133.253 449.663 133.4 449.104 133.4ZM449.104 132.452C449.597 132.452 449.982 132.212 450.259 131.731C450.538 131.251 450.678 130.556 450.678 129.647C450.678 129.043 450.614 128.533 450.486 128.116C450.36 127.697 450.179 127.38 449.943 127.164C449.708 126.947 449.429 126.838 449.104 126.838C448.614 126.838 448.23 127.079 447.95 127.562C447.671 128.045 447.53 128.74 447.528 129.647C447.528 130.253 447.591 130.765 447.716 131.184C447.844 131.601 448.025 131.917 448.259 132.133C448.494 132.346 448.775 132.452 449.104 132.452ZM453.978 133.347C453.784 133.347 453.617 133.278 453.477 133.141C453.337 133.001 453.267 132.833 453.267 132.637C453.267 132.443 453.337 132.277 453.477 132.14C453.617 132 453.784 131.93 453.978 131.93C454.172 131.93 454.339 132 454.478 132.14C454.618 132.277 454.688 132.443 454.688 132.637C454.688 132.767 454.655 132.887 454.589 132.995C454.525 133.102 454.439 133.187 454.333 133.251C454.226 133.315 454.108 133.347 453.978 133.347ZM458.864 133.4C458.303 133.398 457.824 133.25 457.426 132.956C457.028 132.663 456.724 132.236 456.513 131.674C456.303 131.113 456.197 130.437 456.197 129.647C456.197 128.858 456.303 128.185 456.513 127.626C456.726 127.067 457.032 126.641 457.43 126.348C457.83 126.054 458.308 125.907 458.864 125.907C459.421 125.907 459.898 126.055 460.295 126.351C460.693 126.645 460.997 127.071 461.208 127.63C461.421 128.186 461.528 128.858 461.528 129.647C461.528 130.44 461.422 131.117 461.212 131.678C461.001 132.237 460.697 132.664 460.299 132.96C459.901 133.253 459.423 133.4 458.864 133.4ZM458.864 132.452C459.357 132.452 459.741 132.212 460.018 131.731C460.298 131.251 460.437 130.556 460.437 129.647C460.437 129.043 460.373 128.533 460.246 128.116C460.12 127.697 459.939 127.38 459.702 127.164C459.468 126.947 459.189 126.838 458.864 126.838C458.374 126.838 457.989 127.079 457.71 127.562C457.431 128.045 457.29 128.74 457.288 129.647C457.288 130.253 457.35 130.765 457.476 131.184C457.604 131.601 457.785 131.917 458.019 132.133C458.253 132.346 458.535 132.452 458.864 132.452ZM463.337 133.28L466.512 127.001V126.948H462.84V126.007H467.648V126.98L464.484 133.28H463.337ZM464.804 149.4C464.243 149.398 463.763 149.25 463.365 148.956C462.968 148.663 462.664 148.236 462.453 147.674C462.242 147.113 462.137 146.437 462.137 145.647C462.137 144.858 462.242 144.185 462.453 143.626C462.666 143.067 462.971 142.641 463.369 142.348C463.769 142.054 464.247 141.907 464.804 141.907C465.36 141.907 465.837 142.055 466.235 142.351C466.633 142.645 466.937 143.071 467.147 143.63C467.361 144.186 467.467 144.858 467.467 145.647C467.467 146.44 467.362 147.117 467.151 147.678C466.94 148.237 466.636 148.664 466.238 148.96C465.841 149.253 465.362 149.4 464.804 149.4ZM464.804 148.452C465.296 148.452 465.681 148.212 465.958 147.731C466.237 147.251 466.377 146.556 466.377 145.647C466.377 145.043 466.313 144.533 466.185 144.116C466.06 143.697 465.879 143.38 465.642 143.164C465.407 142.947 465.128 142.838 464.804 142.838C464.314 142.838 463.929 143.079 463.65 143.562C463.37 144.045 463.229 144.74 463.227 145.647C463.227 146.253 463.29 146.765 463.415 147.184C463.543 147.601 463.724 147.917 463.959 148.133C464.193 148.346 464.475 148.452 464.804 148.452Z" fill="#768089"/>
<g clip-path="url(#clip0_448_1385)">
<rect x="436.7" y="205.571" width="26.6808" height="15.3257" fill="#86A824"/>
<path d="M438.499 217.355C437.938 217.353 437.458 217.205 437.061 216.911C436.663 216.617 436.359 216.19 436.148 215.629C435.937 215.068 435.832 214.392 435.832 213.601C435.832 212.813 435.937 212.139 436.148 211.581C436.361 211.022 436.667 210.596 437.064 210.302C437.464 210.009 437.943 209.862 438.499 209.862C439.055 209.862 439.532 210.01 439.93 210.306C440.328 210.599 440.632 211.026 440.843 211.584C441.056 212.141 441.162 212.813 441.162 213.601C441.162 214.394 441.057 215.071 440.846 215.633C440.636 216.191 440.331 216.619 439.934 216.915C439.536 217.208 439.058 217.355 438.499 217.355ZM438.499 216.407C438.991 216.407 439.376 216.166 439.653 215.686C439.932 215.205 440.072 214.51 440.072 213.601C440.072 212.998 440.008 212.487 439.88 212.071C439.755 211.652 439.574 211.335 439.337 211.119C439.103 210.901 438.823 210.792 438.499 210.792C438.009 210.792 437.624 211.034 437.345 211.517C437.065 212 436.925 212.695 436.922 213.601C436.922 214.207 436.985 214.72 437.11 215.139C437.238 215.556 437.419 215.872 437.654 216.087C437.888 216.3 438.17 216.407 438.499 216.407ZM443.372 217.302C443.178 217.302 443.011 217.233 442.871 217.096C442.732 216.956 442.662 216.788 442.662 216.591C442.662 216.397 442.732 216.232 442.871 216.094C443.011 215.955 443.178 215.885 443.372 215.885C443.566 215.885 443.733 215.955 443.873 216.094C444.013 216.232 444.082 216.397 444.082 216.591C444.082 216.722 444.049 216.841 443.983 216.95C443.919 217.057 443.834 217.142 443.727 217.206C443.621 217.27 443.502 217.302 443.372 217.302ZM448.259 217.355C447.698 217.353 447.218 217.205 446.821 216.911C446.423 216.617 446.119 216.19 445.908 215.629C445.697 215.068 445.592 214.392 445.592 213.601C445.592 212.813 445.697 212.139 445.908 211.581C446.121 211.022 446.426 210.596 446.824 210.302C447.224 210.009 447.702 209.862 448.259 209.862C448.815 209.862 449.292 210.01 449.69 210.306C450.088 210.599 450.392 211.026 450.602 211.584C450.816 212.141 450.922 212.813 450.922 213.601C450.922 214.394 450.817 215.071 450.606 215.633C450.395 216.191 450.091 216.619 449.693 216.915C449.296 217.208 448.817 217.355 448.259 217.355ZM448.259 216.407C448.751 216.407 449.136 216.166 449.413 215.686C449.692 215.205 449.832 214.51 449.832 213.601C449.832 212.998 449.768 212.487 449.64 212.071C449.515 211.652 449.334 211.335 449.097 211.119C448.862 210.901 448.583 210.792 448.259 210.792C447.769 210.792 447.384 211.034 447.105 211.517C446.825 212 446.684 212.695 446.682 213.601C446.682 214.207 446.745 214.72 446.87 215.139C446.998 215.556 447.179 215.872 447.414 216.087C447.648 216.3 447.93 216.407 448.259 216.407ZM455.082 217.334C454.637 217.334 454.237 217.248 453.882 217.078C453.529 216.905 453.248 216.668 453.037 216.368C452.826 216.067 452.714 215.724 452.7 215.338H453.765C453.791 215.65 453.929 215.907 454.18 216.108C454.431 216.31 454.732 216.41 455.082 216.41C455.362 216.41 455.609 216.346 455.825 216.219C456.042 216.088 456.213 215.91 456.336 215.682C456.461 215.455 456.524 215.196 456.524 214.905C456.524 214.609 456.46 214.345 456.332 214.113C456.205 213.881 456.028 213.698 455.803 213.566C455.581 213.433 455.325 213.366 455.036 213.363C454.816 213.363 454.595 213.401 454.372 213.477C454.15 213.553 453.97 213.652 453.832 213.775L452.827 213.626L453.236 209.961H457.234V210.902H454.148L453.918 212.937H453.96C454.102 212.8 454.291 212.685 454.525 212.593C454.762 212.5 455.015 212.454 455.285 212.454C455.728 212.454 456.122 212.56 456.467 212.77C456.815 212.981 457.089 213.269 457.288 213.633C457.489 213.995 457.588 214.412 457.586 214.883C457.588 215.354 457.482 215.775 457.266 216.144C457.053 216.513 456.757 216.804 456.379 217.018C456.002 217.228 455.57 217.334 455.082 217.334ZM461.801 209.862C462.126 209.864 462.445 209.924 462.76 210.04C463.075 210.156 463.359 210.345 463.612 210.608C463.868 210.87 464.072 211.226 464.223 211.673C464.377 212.118 464.455 212.672 464.458 213.335C464.458 213.972 464.394 214.539 464.266 215.036C464.138 215.531 463.955 215.949 463.715 216.29C463.479 216.63 463.191 216.89 462.852 217.067C462.514 217.245 462.133 217.334 461.709 217.334C461.276 217.334 460.891 217.248 460.555 217.078C460.219 216.907 459.945 216.672 459.735 216.371C459.524 216.068 459.392 215.72 459.34 215.327H460.423C460.495 215.64 460.639 215.893 460.857 216.087C461.077 216.279 461.361 216.375 461.709 216.375C462.242 216.375 462.657 216.143 462.955 215.679C463.254 215.212 463.404 214.561 463.406 213.726H463.35C463.227 213.929 463.073 214.104 462.888 214.251C462.706 214.398 462.501 214.512 462.274 214.592C462.046 214.673 461.804 214.713 461.546 214.713C461.127 214.713 460.745 214.61 460.402 214.404C460.059 214.198 459.785 213.915 459.582 213.555C459.378 213.195 459.276 212.785 459.276 212.323C459.276 211.864 459.381 211.447 459.589 211.073C459.8 210.699 460.093 210.403 460.47 210.185C460.848 209.965 461.292 209.857 461.801 209.862ZM461.805 210.785C461.528 210.785 461.278 210.854 461.056 210.991C460.835 211.126 460.661 211.31 460.534 211.542C460.406 211.771 460.342 212.027 460.342 212.309C460.342 212.59 460.403 212.846 460.526 213.076C460.652 213.303 460.822 213.484 461.038 213.619C461.256 213.752 461.504 213.818 461.784 213.818C461.992 213.818 462.186 213.778 462.366 213.697C462.546 213.617 462.703 213.505 462.838 213.363C462.973 213.219 463.079 213.056 463.154 212.873C463.23 212.691 463.268 212.499 463.268 212.298C463.268 212.031 463.204 211.782 463.076 211.552C462.951 211.323 462.778 211.138 462.558 210.998C462.338 210.856 462.087 210.785 461.805 210.785Z" fill="#141414"/>
</g>
<rect x="436.2" y="205.071" width="27.6808" height="16.3257" stroke="#86A824"/>
<line x1="435.28" y1="52.314" x2="435.28" y2="473.131" stroke="#272B2F"/>
<line x1="354.126" y1="52.314" x2="354.126" y2="473.131" stroke="#272B2F"/>
<line x1="272.973" y1="52.314" x2="272.973" y2="473.131" stroke="#272B2F"/>
<line x1="192.373" y1="52.314" x2="192.373" y2="473.131" stroke="#272B2F"/>
<line x1="111.22" y1="52.314" x2="111.22" y2="473.131" stroke="#272B2F"/>
<path d="M29.0111 51.676L30.1204 473.132" stroke="#272B2F"/>
<line x1="29.5656" y1="331.681" x2="433.669" y2="331.681" stroke="#272B2F"/>
<line x1="29.5656" y1="473.328" x2="433.669" y2="473.328" stroke="#272B2F"/>
<line x1="29.5656" y1="260.857" x2="433.669" y2="260.857" stroke="#272B2F"/>
<line x1="29.5656" y1="402.504" x2="433.669" y2="402.504" stroke="#272B2F"/>
<line x1="29.5656" y1="190.034" x2="433.669" y2="190.034" stroke="#272B2F"/>
<line x1="29.5656" y1="118.897" x2="433.669" y2="118.897" stroke="#272B2F"/>
<line x1="29.5656" y1="51.814" x2="435.337" y2="51.814" stroke="#272B2F"/>
<rect x="36.5009" y="281.676" width="4.801" height="51.5948" fill="#7A9920"/>
<rect x="29.5656" y="304.828" width="4.801" height="37.0424" fill="#7A9920"/>
<rect x="43.4344" y="227.436" width="4.801" height="75.4078" fill="#7A9920"/>
<rect x="50.3689" y="253.895" width="4.801" height="38.3654" fill="#7A9920"/>
<rect x="57.3045" y="234.05" width="4.801" height="47.626" fill="#7A9920"/>
<rect x="64.2392" y="219.498" width="4.801" height="33.0736" fill="#992020"/>
<rect x="71.1748" y="229.42" width="4.801" height="58.2095" fill="#992020"/>
<rect x="78.1093" y="185.763" width="4.801" height="90.6217" fill="#7A9920"/>
<rect x="126.652" y="185.763" width="4.801" height="17.1983" fill="#7A9920"/>
<rect x="85.0447" y="157.32" width="4.801" height="90.6217" fill="#7A9920"/>
<rect x="133.587" y="157.32" width="4.801" height="37.7039" fill="#7A9920"/>
<rect x="91.977" y="145.413" width="4.801" height="90.6217" fill="#7A9920"/>
<rect x="140.521" y="145.413" width="4.801" height="90.6217" fill="#7A9920"/>
<rect x="98.9127" y="129.538" width="4.801" height="56.2251" fill="#7A9920"/>
<rect x="147.456" y="129.538" width="4.801" height="56.2251" fill="#7A9920"/>
<rect x="105.848" y="112.34" width="4.801" height="90.6217" fill="#7A9920"/>
<rect x="154.392" y="157.32" width="4.801" height="23.813" fill="#992020"/>
<rect x="112.782" y="136.814" width="4.801" height="90.6217" fill="#992020"/>
<rect x="161.326" y="159.966" width="4.801" height="46.9645" fill="#992020"/>
<rect x="119.719" y="171.211" width="4.801" height="48.2874" fill="#992020"/>
<rect x="168.261" y="202.961" width="4.801" height="23.813" fill="#992020"/>
<rect x="175.196" y="214.868" width="4.801" height="23.813" fill="#992020"/>
<rect x="182.13" y="190.394" width="4.801" height="36.381" fill="#7A9920"/>
<rect x="189.066" y="195.685" width="4.801" height="23.813" fill="#992020"/>
<rect x="196" y="214.868" width="4.801" height="11.9065" fill="#992020"/>
<rect x="209.336" y="252.92" width="4.801" height="24.544" fill="#7A9920"/>
<rect x="202.401" y="227.282" width="4.801" height="54.2784" fill="#992020"/>
<rect x="216.27" y="227.117" width="4.801" height="35.8719" fill="#7A9920"/>
<rect x="223.205" y="239.704" width="4.801" height="18.2506" fill="#7A9920"/>
<rect x="230.14" y="230.264" width="4.801" height="22.656" fill="#7A9920"/>
<rect x="237.076" y="223.341" width="4.801" height="15.7333" fill="#992020"/>
<rect x="244.01" y="228.061" width="4.801" height="27.6906" fill="#992020"/>
<rect x="250.944" y="207.293" width="4.801" height="43.1093" fill="#7A9920"/>
<rect x="299.488" y="207.293" width="4.801" height="8.18132" fill="#7A9920"/>
<rect x="257.88" y="193.763" width="4.801" height="43.1093" fill="#7A9920"/>
<rect x="306.422" y="193.763" width="4.801" height="17.936" fill="#7A9920"/>
<rect x="264.813" y="188.098" width="4.801" height="43.1093" fill="#7A9920"/>
<rect x="313.356" y="188.098" width="4.801" height="43.1093" fill="#7A9920"/>
<rect x="271.748" y="180.546" width="4.801" height="26.7466" fill="#7A9920"/>
<rect x="320.292" y="180.546" width="4.801" height="26.7466" fill="#7A9920"/>
<rect x="278.684" y="172.365" width="4.801" height="43.1093" fill="#7A9920"/>
<rect x="327.229" y="193.763" width="4.801" height="11.328" fill="#992020"/>
<rect x="285.617" y="184.008" width="4.801" height="43.1093" fill="#992020"/>
<rect x="334.161" y="195.021" width="4.801" height="22.3413" fill="#992020"/>
<rect x="292.554" y="200.37" width="4.801" height="22.9706" fill="#992020"/>
<rect x="341.097" y="215.474" width="4.801" height="11.328" fill="#992020"/>
<rect x="348.031" y="221.139" width="4.801" height="11.328" fill="#992020"/>
<rect x="354.965" y="209.496" width="4.801" height="17.3066" fill="#7A9920"/>
<rect x="361.901" y="212.013" width="4.801" height="11.328" fill="#992020"/>
<rect x="368.836" y="221.139" width="4.801" height="5.66399" fill="#992020"/>
<line x1="29.5656" y1="212.734" x2="433.669" y2="212.734" stroke="#86A824" stroke-dasharray="2 4"/>
<path d="M54.6983 37.2564C54.2533 37.2564 53.8532 37.1712 53.4981 37.0007C53.1453 36.8279 52.8636 36.5912 52.6529 36.2905C52.4422 35.9898 52.3297 35.6466 52.3155 35.2607H53.3809C53.4069 35.5732 53.5454 35.83 53.7964 36.0313C54.0473 36.2325 54.348 36.3331 54.6983 36.3331C54.9777 36.3331 55.2251 36.2692 55.4405 36.1414C55.6583 36.0111 55.8288 35.8324 55.9519 35.6051C56.0774 35.3779 56.1401 35.1186 56.1401 34.8274C56.1401 34.5315 56.0762 34.2675 55.9483 34.0355C55.8205 33.8035 55.6441 33.6212 55.4192 33.4887C55.1967 33.3561 54.941 33.2886 54.6522 33.2862C54.432 33.2862 54.2107 33.3241 53.9881 33.3999C53.7656 33.4756 53.5857 33.5751 53.4483 33.6982L52.4434 33.549L52.8518 29.8843H56.8503V30.8253H53.7644L53.5336 32.8601H53.5762C53.7182 32.7228 53.9064 32.608 54.1408 32.5156C54.3776 32.4233 54.6309 32.3772 54.9008 32.3772C55.3435 32.3772 55.7376 32.4825 56.0833 32.6932C56.4313 32.9039 56.7047 33.1915 56.9036 33.5561C57.1048 33.9183 57.2043 34.335 57.2019 34.8061C57.2043 35.2772 57.0977 35.6975 56.8823 36.0668C56.6692 36.4361 56.3733 36.7273 55.9945 36.9404C55.6181 37.1511 55.186 37.2564 54.6983 37.2564ZM58.6132 37.157V31.7024H59.6323V32.5902H59.6998C59.8134 32.2896 59.9993 32.0552 60.2573 31.8871C60.5154 31.7166 60.8243 31.6314 61.1842 31.6314C61.5488 31.6314 61.8542 31.7166 62.1004 31.8871C62.3489 32.0576 62.5324 32.2919 62.6508 32.5902H62.7076C62.8378 32.299 63.045 32.067 63.3291 31.8942C63.6132 31.719 63.9517 31.6314 64.3447 31.6314C64.8395 31.6314 65.2431 31.7865 65.5556 32.0966C65.8705 32.4067 66.0279 32.8743 66.0279 33.4993V37.157H64.9661V33.5987C64.9661 33.2294 64.8655 32.9619 64.6643 32.7962C64.4631 32.6305 64.2228 32.5476 63.9434 32.5476C63.5978 32.5476 63.3291 32.6541 63.1373 32.8672C62.9455 33.0779 62.8497 33.349 62.8497 33.6804V37.157H61.7914V33.5313C61.7914 33.2353 61.6991 32.9974 61.5144 32.8175C61.3298 32.6376 61.0895 32.5476 60.7936 32.5476C60.5923 32.5476 60.4065 32.6009 60.236 32.7074C60.0679 32.8116 59.9318 32.9572 59.8276 33.1442C59.7258 33.3312 59.6749 33.5478 59.6749 33.7941V37.157H58.6132Z" fill="#768089"/>
<path d="M93.8681 29.8843V37.157H92.7673V30.9851H92.7246L90.9846 32.1215V31.0703L92.7992 29.8843H93.8681ZM98.336 37.2564C97.8909 37.2564 97.4908 37.1712 97.1357 37.0007C96.783 36.8279 96.5013 36.5912 96.2906 36.2905C96.0799 35.9898 95.9674 35.6466 95.9532 35.2607H97.0185C97.0446 35.5732 97.1831 35.83 97.434 36.0313C97.685 36.2325 97.9856 36.3331 98.336 36.3331C98.6154 36.3331 98.8628 36.2692 99.0782 36.1414C99.296 36.0111 99.4665 35.8324 99.5896 35.6051C99.715 35.3779 99.7778 35.1186 99.7778 34.8274C99.7778 34.5315 99.7139 34.2675 99.586 34.0355C99.4582 33.8035 99.2818 33.6212 99.0569 33.4887C98.8344 33.3561 98.5787 33.2886 98.2898 33.2862C98.0697 33.2862 97.8483 33.3241 97.6258 33.3999C97.4032 33.4756 97.2233 33.5751 97.086 33.6982L96.081 33.549L96.4894 29.8843H100.488V30.8253H97.4021L97.1712 32.8601H97.2139C97.3559 32.7228 97.5441 32.608 97.7785 32.5156C98.0152 32.4233 98.2685 32.3772 98.5384 32.3772C98.9811 32.3772 99.3753 32.4825 99.721 32.6932C100.069 32.9039 100.342 33.1915 100.541 33.5561C100.742 33.9183 100.842 34.335 100.84 34.8061C100.842 35.2772 100.735 35.6975 100.52 36.0668C100.307 36.4361 100.011 36.7273 99.6322 36.9404C99.2558 37.1511 98.8237 37.2564 98.336 37.2564ZM102.251 37.157V31.7024H103.27V32.5902H103.337C103.451 32.2896 103.637 32.0552 103.895 31.8871C104.153 31.7166 104.462 31.6314 104.822 31.6314C105.186 31.6314 105.492 31.7166 105.738 31.8871C105.987 32.0576 106.17 32.2919 106.288 32.5902H106.345C106.475 32.299 106.683 32.067 106.967 31.8942C107.251 31.719 107.589 31.6314 107.982 31.6314C108.477 31.6314 108.881 31.7865 109.193 32.0966C109.508 32.4067 109.666 32.8743 109.666 33.4993V37.157H108.604V33.5987C108.604 33.2294 108.503 32.9619 108.302 32.7962C108.101 32.6305 107.86 32.5476 107.581 32.5476C107.235 32.5476 106.967 32.6541 106.775 32.8672C106.583 33.0779 106.487 33.349 106.487 33.6804V37.157H105.429V33.5313C105.429 33.2353 105.337 32.9974 105.152 32.8175C104.967 32.6376 104.727 32.5476 104.431 32.5476C104.23 32.5476 104.044 32.6009 103.874 32.7074C103.706 32.8116 103.569 32.9572 103.465 33.1442C103.364 33.3312 103.313 33.5478 103.313 33.7941V37.157H102.251Z" fill="#768089"/>
<path d="M134.308 37.2564C133.821 37.2564 133.385 37.1724 133.001 37.0043C132.62 36.8362 132.318 36.603 132.096 36.3047C131.876 36.004 131.757 35.656 131.741 35.2607H132.856C132.87 35.4761 132.942 35.6631 133.072 35.8218C133.205 35.978 133.378 36.0987 133.591 36.184C133.804 36.2692 134.041 36.3118 134.301 36.3118C134.588 36.3118 134.841 36.2621 135.061 36.1627C135.284 36.0632 135.458 35.9247 135.583 35.7472C135.709 35.5673 135.771 35.3601 135.771 35.1257C135.771 34.8819 135.709 34.6676 135.583 34.483C135.46 34.296 135.279 34.1492 135.04 34.0426C134.803 33.9361 134.517 33.8828 134.18 33.8828H133.566V32.9879H134.18C134.45 32.9879 134.687 32.9394 134.891 32.8424C135.097 32.7453 135.258 32.6103 135.374 32.4375C135.49 32.2623 135.548 32.0576 135.548 31.8232C135.548 31.5983 135.497 31.403 135.395 31.2372C135.295 31.0692 135.153 30.9378 134.969 30.8431C134.786 30.7484 134.571 30.701 134.322 30.701C134.086 30.701 133.864 30.7448 133.658 30.8324C133.455 30.9176 133.289 31.0407 133.161 31.2017C133.033 31.3603 132.965 31.5509 132.955 31.7735H131.894C131.905 31.3805 132.021 31.0348 132.242 30.7365C132.464 30.4382 132.758 30.205 133.122 30.037C133.487 29.8689 133.892 29.7848 134.337 29.7848C134.803 29.7848 135.206 29.876 135.544 30.0583C135.885 30.2382 136.148 30.4785 136.332 30.7791C136.519 31.0798 136.612 31.4089 136.609 31.7664C136.612 32.1736 136.498 32.5192 136.269 32.8033C136.041 33.0874 135.738 33.278 135.359 33.375V33.4318C135.842 33.5052 136.216 33.697 136.482 34.0071C136.749 34.3173 136.882 34.702 136.879 35.1612C136.882 35.5613 136.77 35.92 136.545 36.2372C136.323 36.5545 136.019 36.8042 135.633 36.9865C135.247 37.1665 134.805 37.2564 134.308 37.2564ZM140.854 37.2777C140.293 37.2754 139.813 37.1274 139.415 36.8338C139.018 36.5403 138.713 36.1129 138.503 35.5519C138.292 34.9908 138.187 34.3149 138.187 33.5242C138.187 32.7358 138.292 32.0623 138.503 31.5036C138.716 30.9449 139.021 30.5187 139.419 30.2252C139.819 29.9316 140.297 29.7848 140.854 29.7848C141.41 29.7848 141.887 29.9328 142.285 30.2287C142.682 30.5223 142.987 30.9484 143.197 31.5071C143.41 32.0635 143.517 32.7358 143.517 33.5242C143.517 34.3173 143.412 34.9943 143.201 35.5554C142.99 36.1141 142.686 36.5415 142.288 36.8374C141.891 37.1309 141.412 37.2777 140.854 37.2777ZM140.854 36.3296C141.346 36.3296 141.731 36.0893 142.008 35.6087C142.287 35.1281 142.427 34.4333 142.427 33.5242C142.427 32.9205 142.363 32.4103 142.235 31.9936C142.11 31.5746 141.928 31.2574 141.692 31.0419C141.457 30.8241 141.178 30.7152 140.854 30.7152C140.364 30.7152 139.979 30.9567 139.699 31.4397C139.42 31.9226 139.279 32.6174 139.277 33.5242C139.277 34.1302 139.34 34.6428 139.465 35.0618C139.593 35.4785 139.774 35.7945 140.008 36.01C140.243 36.223 140.525 36.3296 140.854 36.3296ZM144.891 37.157V31.7024H145.91V32.5902H145.978C146.091 32.2896 146.277 32.0552 146.535 31.8871C146.793 31.7166 147.102 31.6314 147.462 31.6314C147.827 31.6314 148.132 31.7166 148.378 31.8871C148.627 32.0576 148.81 32.2919 148.929 32.5902H148.985C149.116 32.299 149.323 32.067 149.607 31.8942C149.891 31.719 150.229 31.6314 150.622 31.6314C151.117 31.6314 151.521 31.7865 151.833 32.0966C152.148 32.4067 152.306 32.8743 152.306 33.4993V37.157H151.244V33.5987C151.244 33.2294 151.143 32.9619 150.942 32.7962C150.741 32.6305 150.501 32.5476 150.221 32.5476C149.876 32.5476 149.607 32.6541 149.415 32.8672C149.223 33.0779 149.127 33.349 149.127 33.6804V37.157H148.069V33.5313C148.069 33.2353 147.977 32.9974 147.792 32.8175C147.608 32.6376 147.367 32.5476 147.071 32.5476C146.87 32.5476 146.684 32.6009 146.514 32.7074C146.346 32.8116 146.21 32.9572 146.105 33.1442C146.004 33.3312 145.953 33.5478 145.953 33.7941V37.157H144.891Z" fill="#768089"/>
<path d="M180.879 29.8843V37.157H179.778V30.9851H179.735L177.995 32.1215V31.0703L179.81 29.8843H180.879ZM184.022 33.9183V37.157H182.96V29.8843H184.008V32.5902H184.075C184.203 32.2967 184.398 32.0635 184.661 31.8906C184.924 31.7178 185.267 31.6314 185.691 31.6314C186.065 31.6314 186.392 31.7084 186.671 31.8622C186.953 32.0161 187.171 32.2458 187.325 32.5512C187.481 32.8542 187.559 33.233 187.559 33.6875V37.157H186.497V33.8154C186.497 33.4153 186.394 33.1051 186.188 32.885C185.982 32.6624 185.696 32.5512 185.329 32.5512C185.078 32.5512 184.853 32.6044 184.654 32.711C184.458 32.8175 184.303 32.9737 184.189 33.1797C184.078 33.3833 184.022 33.6295 184.022 33.9183Z" fill="#768089"/>
<path d="M218.283 35.7365V34.8487L221.426 29.8843H222.125V31.1911H221.681L219.434 34.7493V34.8061H223.741V35.7365H218.283ZM221.731 37.157V35.4666L221.738 35.0618V29.8843H222.779V37.157H221.731ZM226.155 33.9183V37.157H225.093V29.8843H226.14V32.5902H226.208C226.336 32.2967 226.531 32.0635 226.794 31.8906C227.057 31.7178 227.4 31.6314 227.824 31.6314C228.198 31.6314 228.524 31.7084 228.804 31.8622C229.086 32.0161 229.303 32.2458 229.457 32.5512C229.614 32.8542 229.692 33.233 229.692 33.6875V37.157H228.63V33.8154C228.63 33.4153 228.527 33.1051 228.321 32.885C228.115 32.6624 227.828 32.5512 227.462 32.5512C227.211 32.5512 226.986 32.6044 226.787 32.711C226.59 32.8175 226.435 32.9737 226.322 33.1797C226.21 33.3833 226.155 33.6295 226.155 33.9183Z" fill="#768089"/>
<path d="M262.292 37.2564C261.968 37.2517 261.648 37.1925 261.333 37.0789C261.021 36.9652 260.737 36.7758 260.481 36.5107C260.225 36.2455 260.02 35.8892 259.866 35.4418C259.715 34.9943 259.639 34.4356 259.639 33.7656C259.639 33.1312 259.702 32.5677 259.827 32.0753C259.955 31.5829 260.139 31.1674 260.378 30.8289C260.617 30.4879 260.906 30.2287 261.244 30.0512C261.583 29.8736 261.963 29.7848 262.384 29.7848C262.817 29.7848 263.202 29.8701 263.538 30.0405C263.875 30.211 264.147 30.4465 264.355 30.7472C264.566 31.0478 264.7 31.3899 264.756 31.7735H263.673C263.6 31.4704 263.454 31.223 263.237 31.0313C263.019 30.8395 262.735 30.7436 262.384 30.7436C261.852 30.7436 261.436 30.9756 261.138 31.4397C260.842 31.9037 260.693 32.5488 260.69 33.375H260.744C260.869 33.1691 261.023 32.9939 261.205 32.8495C261.39 32.7027 261.596 32.5902 261.823 32.5121C262.053 32.4316 262.294 32.3914 262.548 32.3914C262.969 32.3914 263.35 32.4943 263.691 32.7003C264.034 32.9039 264.308 33.1856 264.511 33.5455C264.715 33.9053 264.817 34.3173 264.817 34.7813C264.817 35.2453 264.711 35.6655 264.501 36.0419C264.292 36.4183 263.999 36.7166 263.62 36.9368C263.241 37.1546 262.799 37.2611 262.292 37.2564ZM262.288 36.3331C262.568 36.3331 262.817 36.2645 263.038 36.1272C263.258 35.9898 263.432 35.8052 263.56 35.5732C263.687 35.3412 263.751 35.0819 263.751 34.7955C263.751 34.5161 263.689 34.2616 263.563 34.032C263.44 33.8023 263.27 33.6201 263.052 33.4851C262.836 33.3502 262.59 33.2827 262.313 33.2827C262.103 33.2827 261.907 33.3229 261.727 33.4034C261.55 33.4839 261.393 33.5952 261.259 33.7372C261.124 33.8793 261.017 34.0426 260.939 34.2273C260.863 34.4096 260.825 34.6025 260.825 34.8061C260.825 35.0784 260.888 35.3305 261.013 35.5625C261.141 35.7945 261.315 35.9816 261.536 36.1236C261.758 36.2633 262.009 36.3331 262.288 36.3331ZM267.286 33.9183V37.157H266.224V29.8843H267.272V32.5902H267.34C267.467 32.2967 267.663 32.0635 267.925 31.8906C268.188 31.7178 268.532 31.6314 268.955 31.6314C269.329 31.6314 269.656 31.7084 269.935 31.8622C270.217 32.0161 270.435 32.2458 270.589 32.5512C270.745 32.8542 270.823 33.233 270.823 33.6875V37.157H269.761V33.8154C269.761 33.4153 269.658 33.1051 269.452 32.885C269.246 32.6624 268.96 32.5512 268.593 32.5512C268.342 32.5512 268.117 32.6044 267.918 32.711C267.722 32.8175 267.567 32.9737 267.453 33.1797C267.342 33.3833 267.286 33.6295 267.286 33.9183Z" fill="#768089"/>
<path d="M301.435 29.8843V37.157H300.335V30.9851H300.292L298.552 32.1215V31.0703L300.367 29.8843H301.435ZM303.503 37.157V36.3615L305.964 33.8118C306.227 33.5348 306.443 33.2922 306.614 33.0838C306.786 32.8731 306.915 32.6731 307.001 32.4837C307.086 32.2943 307.128 32.0931 307.128 31.88C307.128 31.6385 307.072 31.4302 306.958 31.255C306.844 31.0774 306.689 30.9413 306.493 30.8466C306.296 30.7495 306.075 30.701 305.829 30.701C305.568 30.701 305.341 30.7543 305.147 30.8608C304.953 30.9674 304.804 31.1177 304.7 31.3118C304.595 31.5059 304.543 31.7332 304.543 31.9936H303.496C303.496 31.5509 303.597 31.1638 303.801 30.8324C304.005 30.501 304.284 30.2441 304.639 30.0618C304.994 29.8772 305.398 29.7848 305.85 29.7848C306.307 29.7848 306.709 29.876 307.057 30.0583C307.408 30.2382 307.681 30.4844 307.878 30.7969C308.074 31.107 308.173 31.4574 308.173 31.848C308.173 32.1179 308.122 32.3819 308.02 32.6399C307.92 32.898 307.746 33.1856 307.498 33.5029C307.249 33.8177 306.904 34.2001 306.461 34.6499L305.016 36.1627V36.2159H308.29V37.157H303.503ZM310.812 33.9183V37.157H309.75V29.8843H310.797V32.5902H310.865C310.993 32.2967 311.188 32.0635 311.451 31.8906C311.714 31.7178 312.057 31.6314 312.481 31.6314C312.855 31.6314 313.181 31.7084 313.461 31.8622C313.742 32.0161 313.96 32.2458 314.114 32.5512C314.27 32.8542 314.349 33.233 314.349 33.6875V37.157H313.287V33.8154C313.287 33.4153 313.184 33.1051 312.978 32.885C312.772 32.6624 312.485 32.5512 312.118 32.5512C311.867 32.5512 311.643 32.6044 311.444 32.711C311.247 32.8175 311.092 32.9737 310.978 33.1797C310.867 33.3833 310.812 33.6295 310.812 33.9183Z" fill="#768089"/>
<path d="M345.605 29.8843V37.157H344.504V30.9851H344.462L342.722 32.1215V31.0703L344.536 29.8843H345.605ZM350.126 37.157H347.772V29.8843H350.201C350.913 29.8843 351.525 30.0299 352.037 30.321C352.548 30.6099 352.94 31.0254 353.212 31.5675C353.487 32.1073 353.624 32.7548 353.624 33.51C353.624 34.2675 353.486 34.9186 353.209 35.4631C352.934 36.0076 352.536 36.4266 352.015 36.7202C351.495 37.0114 350.865 37.157 350.126 37.157ZM348.869 36.1982H350.066C350.62 36.1982 351.08 36.094 351.447 35.8857C351.814 35.675 352.089 35.3708 352.271 34.973C352.453 34.5729 352.545 34.0852 352.545 33.51C352.545 32.9394 352.453 32.4553 352.271 32.0576C352.091 31.6598 351.823 31.358 351.465 31.152C351.108 30.946 350.664 30.8431 350.133 30.8431H348.869V36.1982Z" fill="#768089"/>
<path d="M385.55 29.8843V37.157H384.449V30.9851H384.407L382.667 32.1215V31.0703L384.481 29.8843H385.55ZM389.141 37.157L387.124 29.8843H388.278L389.695 35.5164H389.762L391.236 29.8843H392.38L393.853 35.5199H393.921L395.334 29.8843H396.492L394.471 37.157H393.367L391.836 31.7095H391.78L390.249 37.157H389.141Z" fill="#768089"/>
<g opacity="0.5">
<mask id="path-91-inside-1_448_1385" fill="white">
<path d="M409.575 21.157H450.8V45.157H409.575V21.157Z"/>
</mask>
<path d="M409.575 21.157H450.8V45.157H409.575V21.157Z" fill="#191B1D"/>
<path d="M450.8 44.157H409.575V46.157H450.8V44.157Z" fill="#86A824" mask="url(#path-91-inside-1_448_1385)"/>
</g>
<path d="M426.746 29.8843V37.157H425.645V30.9851H425.602L423.862 32.1215V31.0703L425.677 29.8843H426.746ZM428.912 29.8843H430.244L432.559 35.5377H432.645L434.96 29.8843H436.292V37.157H435.248V31.8942H435.18L433.035 37.1463H432.169L430.024 31.8906H429.956V37.157H428.912V29.8843Z" fill="#86A824"/>
</g>
<path d="M137.968 272.864C137.995 273.184 138.008 273.651 138.008 274.264C138.008 274.824 137.955 275.224 137.848 275.464C137.768 275.677 137.635 275.811 137.448 275.864C137.262 275.917 136.942 275.944 136.488 275.944H136.208L135.568 275.904L134.528 275.944C132.875 275.997 130.435 276.024 127.208 276.024C124.142 276.024 121.702 276.011 119.888 275.984V275.064C120.075 270.664 120.168 266.237 120.168 261.784C120.168 260.477 120.142 258.224 120.088 255.024V254.064V252.584C120.062 252.131 120.048 251.317 120.048 250.144L120.008 247.544C120.382 247.411 120.902 247.304 121.568 247.224C122.235 247.117 122.902 247.064 123.568 247.064C124.315 247.064 125.062 247.117 125.808 247.224C126.555 247.331 127.155 247.477 127.608 247.664C127.555 249.584 127.528 251.117 127.528 252.264C127.528 253.864 127.555 256.264 127.608 259.464C127.635 261.064 127.648 263.424 127.648 266.544V269.144C128.528 269.144 129.608 269.184 130.888 269.264L133.008 269.344C134.128 269.424 135.182 269.464 136.168 269.464C136.862 269.464 137.475 269.437 138.008 269.384C138.008 269.997 137.995 270.397 137.968 270.584V270.544C137.915 271.264 137.902 271.784 137.928 272.104L137.968 272.864ZM155.606 275.864C154.753 276.051 153.833 276.144 152.846 276.144C151.673 276.144 150.393 275.997 149.006 275.704C148.819 275.197 148.526 274.131 148.126 272.504C147.726 270.851 147.406 269.757 147.166 269.224L146.366 269.184L145.686 269.224C145.579 269.544 145.406 270.331 145.166 271.584C144.979 272.624 144.793 273.477 144.606 274.144C144.419 274.784 144.153 275.371 143.806 275.904C143.539 275.957 143.139 275.984 142.606 275.984C142.366 275.984 141.846 275.957 141.046 275.904C138.726 275.797 137.433 275.744 137.166 275.744C137.166 275.611 137.193 275.304 137.246 274.824C137.299 274.317 137.379 273.757 137.486 273.144L138.366 268.104C139.059 263.971 139.713 260.371 140.326 257.304C140.966 254.237 141.793 250.997 142.806 247.584C143.179 247.531 143.686 247.504 144.326 247.504H144.566C146.299 247.504 147.993 247.437 149.646 247.304C149.966 248.557 150.259 249.797 150.526 251.024C150.793 252.224 151.033 253.304 151.246 254.264C152.099 257.971 152.673 260.437 152.966 261.664L155.606 275.864ZM147.246 264.104C146.659 258.771 146.379 256.104 146.406 256.104L146.366 255.704C146.366 255.704 146.339 256.024 146.286 256.664C146.206 258.664 146.086 260.251 145.926 261.424L145.566 264.104H147.246ZM173.916 248.784C174.05 251.637 174.116 254.277 174.116 256.704C174.116 261.317 173.89 265.664 173.436 269.744C173.223 271.584 172.476 273.131 171.196 274.384C169.943 275.611 168.316 276.317 166.316 276.504H166.356C165.876 276.557 165.436 276.584 165.036 276.584C163.463 276.584 161.956 276.331 160.516 275.824C159.076 275.344 157.876 274.597 156.916 273.584C155.983 272.571 155.49 271.331 155.436 269.864C155.436 267.917 155.463 264.997 155.516 261.104L155.556 258.504C155.61 255.677 155.636 253.584 155.636 252.224C155.636 250.464 155.623 249.171 155.596 248.344H156.596L158.996 248.264C160.303 248.264 161.45 248.411 162.436 248.704C162.33 251.691 162.276 253.984 162.276 255.584C162.276 259.451 162.45 263.731 162.796 268.424V268.384C162.956 268.917 163.196 269.331 163.516 269.624C163.836 269.891 164.183 270.024 164.556 270.024C164.983 270.024 165.383 269.851 165.756 269.504C166.13 269.157 166.383 268.717 166.516 268.184V268.224C166.623 265.771 166.703 261.891 166.756 256.584L166.796 254.024C166.796 252.744 166.823 250.984 166.876 248.744L167.716 248.624C168.09 248.624 168.596 248.584 169.236 248.504C170.33 248.397 170.983 248.357 171.196 248.384C172.343 248.384 173.143 248.517 173.596 248.784H173.916ZM185.912 272.384C184.232 268.704 183.125 266.157 182.592 264.744V272.424C182.592 274.077 182.605 275.211 182.632 275.824C181.912 276.037 181.125 276.144 180.272 276.144C180.005 276.144 179.605 276.117 179.072 276.064C178.485 276.011 178.058 275.984 177.792 275.984L175.832 275.904V272.904C175.832 271.197 175.805 268.771 175.752 265.624C175.725 264.051 175.712 261.664 175.712 258.464C175.712 254.171 175.832 250.571 176.072 247.664C176.792 247.477 177.592 247.384 178.472 247.384C179.058 247.384 179.765 247.437 180.592 247.544C181.445 247.651 182.032 247.811 182.352 248.024C182.725 248.717 183.178 249.691 183.712 250.944C184.272 252.171 184.805 253.397 185.312 254.624L186.912 258.304C186.858 256.437 186.832 254.237 186.832 251.704C186.832 249.651 186.845 248.237 186.872 247.464C187.965 247.251 189.125 247.144 190.352 247.144C191.392 247.144 192.472 247.264 193.592 247.504V275.864C193.512 275.864 193.352 275.904 193.112 275.984C192.845 276.091 192.378 276.144 191.712 276.144C191.578 276.171 190.872 276.131 189.592 276.024C189.272 275.997 188.858 275.971 188.352 275.944C187.872 275.917 187.592 275.917 187.512 275.944L185.912 272.384ZM202.793 254.504C202.74 254.611 202.673 255.451 202.593 257.024C202.513 258.597 202.473 260.197 202.473 261.824C202.473 263.477 202.513 264.864 202.593 265.984C202.673 266.704 202.887 267.411 203.233 268.104C203.58 268.771 203.993 269.224 204.473 269.464C205.407 269.517 206.113 269.091 206.593 268.184H206.553C206.793 267.677 206.913 266.917 206.913 265.904C206.913 265.104 206.967 264.477 207.073 264.024C207.74 264.131 208.38 264.184 208.993 264.184L210.833 264.144C211.793 264.144 212.7 264.251 213.553 264.464C213.873 265.397 214.033 266.371 214.033 267.384C214.033 268.904 213.647 270.344 212.873 271.704C212.127 273.064 211.087 274.171 209.753 275.024C208.42 275.877 206.94 276.331 205.313 276.384C204.833 276.464 204.273 276.504 203.633 276.504C201.553 276.504 199.727 276.037 198.153 275.104C196.58 274.171 195.7 272.771 195.513 270.904C195.38 268.237 195.313 265.371 195.313 262.304C195.313 259.771 195.327 257.691 195.353 256.064L195.393 254.264C195.367 253.864 195.393 253.411 195.473 252.904C195.58 252.371 195.713 251.904 195.873 251.504C196.113 250.891 196.42 250.277 196.793 249.664C197.193 249.051 197.607 248.544 198.033 248.144C198.593 247.691 199.42 247.304 200.513 246.984C201.553 246.664 202.633 246.504 203.753 246.504C205.567 246.504 207.273 246.931 208.873 247.784C210.473 248.611 211.753 249.757 212.713 251.224C213.673 252.664 214.153 254.237 214.153 255.944C214.153 256.957 213.967 257.971 213.593 258.984C212.473 259.224 211.54 259.344 210.793 259.344C209.78 259.344 208.38 259.171 206.593 258.824L206.473 257.304C206.42 256.077 206.26 255.157 205.993 254.544C205.753 253.904 205.22 253.597 204.393 253.624C204.367 253.624 204.327 253.637 204.273 253.664C204.247 253.664 204.193 253.664 204.113 253.664H204.153C203.327 253.797 202.873 254.077 202.793 254.504ZM233.565 275.624C232.471 275.811 231.031 275.904 229.245 275.904C228.338 275.904 227.511 275.931 226.765 275.984C226.605 274.837 226.485 272.811 226.405 269.904C226.351 267.664 226.231 265.944 226.045 264.744L224.525 264.664C223.725 264.664 223.111 264.717 222.685 264.824C222.605 265.597 222.565 266.331 222.565 267.024C222.565 268.224 222.578 269.117 222.605 269.704V270.744L222.645 271.784C222.645 273.384 222.578 274.597 222.445 275.424C221.831 275.771 221.085 275.944 220.205 275.944C219.778 275.944 219.245 275.917 218.605 275.864L218.245 275.824C217.765 275.771 217.445 275.744 217.285 275.744L216.005 275.824C215.818 273.424 215.631 269.811 215.445 264.984C215.258 260.157 215.165 255.864 215.165 252.104C215.165 249.971 215.178 248.477 215.205 247.624L219.725 247.544C220.418 247.544 221.045 247.637 221.605 247.824C221.738 248.971 221.831 250.291 221.885 251.784L221.925 252.744C221.978 253.917 222.045 254.904 222.125 255.704C222.205 256.477 222.338 257.331 222.525 258.264L224.045 258.424C224.311 258.424 224.565 258.397 224.805 258.344C225.071 258.291 225.325 258.251 225.565 258.224H225.645C225.831 256.197 225.925 254.237 225.925 252.344C225.925 250.957 225.885 249.464 225.805 247.864C226.418 247.677 227.165 247.531 228.045 247.424C228.925 247.317 229.778 247.264 230.605 247.264C231.325 247.264 231.951 247.291 232.485 247.344L233.565 275.624ZM243.646 247.784C243.646 250.904 243.606 254.051 243.526 257.224C243.419 261.437 243.366 264.757 243.366 267.184C243.366 269.984 243.446 272.771 243.606 275.544C243.206 275.944 242.166 276.144 240.486 276.144C239.526 276.144 238.819 276.131 238.366 276.104L237.886 276.064L237.166 276.024C236.632 276.024 235.952 276.131 235.126 276.344C235.286 274.024 235.366 271.557 235.366 268.944C235.366 267.904 235.339 266.371 235.286 264.344L235.246 262.024C235.139 259.197 235.086 256.904 235.086 255.144C235.086 252.504 235.206 249.904 235.446 247.344C235.792 247.291 236.166 247.264 236.566 247.264C236.779 247.264 237.072 247.291 237.446 247.344C237.819 247.371 238.259 247.371 238.766 247.344C240.152 247.424 241.259 247.451 242.086 247.424H243.646V247.784ZM255.716 272.384C254.036 268.704 252.93 266.157 252.396 264.744V272.424C252.396 274.077 252.41 275.211 252.436 275.824C251.716 276.037 250.93 276.144 250.076 276.144C249.81 276.144 249.41 276.117 248.876 276.064C248.29 276.011 247.863 275.984 247.596 275.984L245.636 275.904V272.904C245.636 271.197 245.61 268.771 245.556 265.624C245.53 264.051 245.516 261.664 245.516 258.464C245.516 254.171 245.636 250.571 245.876 247.664C246.596 247.477 247.396 247.384 248.276 247.384C248.863 247.384 249.57 247.437 250.396 247.544C251.25 247.651 251.836 247.811 252.156 248.024C252.53 248.717 252.983 249.691 253.516 250.944C254.076 252.171 254.61 253.397 255.116 254.624L256.716 258.304C256.663 256.437 256.636 254.237 256.636 251.704C256.636 249.651 256.65 248.237 256.676 247.464C257.77 247.251 258.93 247.144 260.156 247.144C261.196 247.144 262.276 247.264 263.396 247.504V275.864C263.316 275.864 263.156 275.904 262.916 275.984C262.65 276.091 262.183 276.144 261.516 276.144C261.383 276.171 260.676 276.131 259.396 276.024C259.076 275.997 258.663 275.971 258.156 275.944C257.676 275.917 257.396 275.917 257.316 275.944L255.716 272.384ZM277.238 261.224C278.385 261.224 279.678 261.277 281.118 261.384L282.398 261.464L283.078 261.504L283.158 262.344C283.185 262.637 283.238 263.277 283.318 264.264C283.398 265.224 283.438 266.051 283.438 266.744C283.438 268.104 283.331 269.451 283.118 270.784C282.931 271.984 282.465 272.997 281.718 273.824C280.971 274.651 280.025 275.277 278.878 275.704C276.931 276.291 275.131 276.584 273.478 276.584C272.198 276.584 271.038 276.384 269.998 275.984C267.891 275.051 266.518 273.424 265.878 271.104C265.691 270.384 265.531 269.451 265.398 268.304C265.398 268.597 265.251 266.211 264.958 261.144C264.958 260.291 264.971 259.611 264.998 259.104C265.051 256.704 265.185 254.944 265.398 253.824C265.771 251.691 266.638 250.117 267.998 249.104C269.011 248.357 270.398 247.851 272.158 247.584C272.771 247.504 273.398 247.464 274.038 247.464C276.705 247.464 278.891 248.144 280.598 249.504C282.305 250.837 283.158 252.744 283.158 255.224L283.078 256.504V257.064C282.891 257.091 282.665 257.104 282.398 257.104C282.131 257.104 281.891 257.104 281.678 257.104H279.758C278.745 257.104 277.771 257.051 276.838 256.944C276.198 254.757 275.478 253.664 274.678 253.664C274.545 253.664 274.398 253.651 274.238 253.624C274.078 253.597 273.931 253.584 273.798 253.584C273.371 253.584 272.998 253.744 272.678 254.064C272.651 254.091 272.558 254.411 272.398 255.024C271.891 256.704 271.638 259.184 271.638 262.464C271.638 264.091 271.691 265.437 271.798 266.504C271.985 268.291 272.345 269.424 272.878 269.904C273.145 270.064 273.358 270.171 273.518 270.224C273.811 270.251 274.158 270.237 274.558 270.184C274.985 270.104 275.358 269.997 275.678 269.864C276.131 269.677 276.425 269.251 276.558 268.584C276.638 268.264 276.718 267.851 276.798 267.344C276.878 266.837 276.905 266.531 276.878 266.424H275.918C274.931 266.477 274.171 266.397 273.638 266.184C273.585 265.624 273.558 264.931 273.558 264.104V263.664C273.558 263.557 273.558 263.384 273.558 263.144C273.585 262.877 273.558 262.384 273.478 261.664C273.691 261.664 274.145 261.611 274.838 261.504C275.905 261.317 276.705 261.224 277.238 261.224ZM310.344 256.984C309.224 257.171 308.117 257.264 307.024 257.264C305.717 257.264 304.57 257.117 303.584 256.824C303.637 256.557 303.664 256.371 303.664 256.264C303.664 255.651 303.437 255.144 302.984 254.744C302.53 254.344 302.024 254.144 301.464 254.144C301.064 254.144 300.704 254.277 300.384 254.544C300.09 254.784 299.917 255.157 299.864 255.664C299.784 255.904 299.744 256.117 299.744 256.304L299.784 256.664C299.784 256.717 299.784 256.744 299.784 256.744C299.97 257.304 300.237 257.691 300.584 257.904C300.957 258.117 301.397 258.264 301.904 258.344C303.237 258.531 304.584 259.024 305.944 259.824C307.304 260.624 308.397 261.557 309.224 262.624C309.73 263.317 310.13 264.091 310.424 264.944C310.717 265.771 310.864 266.584 310.864 267.384C310.864 268.771 310.557 270.117 309.944 271.424C309.25 272.917 308.184 274.077 306.744 274.904C305.304 275.731 303.73 276.144 302.024 276.144C300.29 276.144 298.597 275.811 296.944 275.144C295.317 274.451 293.997 273.464 292.984 272.184C291.97 270.904 291.517 269.424 291.624 267.744V267.384C292.397 267.251 293.25 267.184 294.184 267.184C294.984 267.184 295.664 267.197 296.224 267.224C296.73 267.251 297.637 267.264 298.944 267.264C298.97 268.064 299.21 268.691 299.664 269.144C300.144 269.597 300.69 269.824 301.304 269.824C301.837 269.824 302.277 269.651 302.624 269.304C302.997 268.957 303.184 268.464 303.184 267.824C303.184 267.584 303.17 267.397 303.144 267.264C303.01 266.277 302.544 265.584 301.744 265.184C300.944 264.784 299.864 264.451 298.504 264.184L297.904 264.064C296.757 263.851 295.757 263.384 294.904 262.664C293.944 261.731 293.224 260.731 292.744 259.664C292.264 258.597 292.024 257.531 292.024 256.464C292.024 254.731 292.544 253.104 293.584 251.584C294.65 250.037 296.024 248.917 297.704 248.224C298.744 247.797 300.037 247.584 301.584 247.584C303.584 247.584 305.41 247.957 307.064 248.704C308.29 249.344 309.264 250.184 309.984 251.224C310.704 252.264 311.064 253.491 311.064 254.904C311.064 255.437 310.984 256.131 310.824 256.984H310.344ZM329.878 254.544C329.958 255.371 329.998 256.211 329.998 257.064L329.958 257.784V258.504C329.904 259.384 329.878 260.677 329.878 262.384C329.878 264.277 329.838 265.717 329.758 266.704L329.638 268.024C329.504 270.184 328.958 272.024 327.998 273.544C327.598 274.104 326.998 274.597 326.198 275.024C325.398 275.451 324.518 275.797 323.558 276.064C322.571 276.357 321.411 276.504 320.078 276.504C319.464 276.504 319.038 276.491 318.798 276.464C317.491 276.357 316.318 276.077 315.278 275.624C314.264 275.144 313.518 274.451 313.038 273.544C312.398 272.344 312.051 270.837 311.998 269.024L311.918 267.744C311.891 267.531 311.878 267.091 311.878 266.424C311.744 264.237 311.678 262.144 311.678 260.144C311.678 258.917 311.718 257.691 311.798 256.464C311.878 255.131 312.104 253.837 312.478 252.584C312.878 251.304 313.478 250.184 314.278 249.224L315.158 248.744C316.864 247.917 318.731 247.504 320.758 247.504C322.038 247.504 323.238 247.677 324.358 248.024C325.504 248.344 326.504 248.824 327.358 249.464C328.291 250.317 328.904 251.157 329.198 251.984C329.518 252.837 329.744 253.691 329.878 254.544ZM323.678 258.904L323.518 256.824C323.464 256.077 323.278 255.424 322.958 254.864C322.664 254.277 322.278 253.864 321.798 253.624C321.584 253.544 321.371 253.504 321.158 253.504C320.518 253.504 319.891 253.717 319.278 254.144C318.958 254.411 318.638 254.797 318.318 255.304C318.024 255.784 317.798 256.277 317.638 256.784C317.371 257.957 317.238 259.451 317.238 261.264C317.238 262.171 317.251 262.851 317.278 263.304V263.264C317.384 263.797 317.464 264.504 317.518 265.384L317.558 265.944C317.664 267.277 317.811 268.264 317.998 268.904V268.864C318.238 269.397 318.584 269.811 319.038 270.104C319.518 270.371 320.024 270.504 320.558 270.504C320.984 270.504 321.411 270.411 321.838 270.224C322.291 270.011 322.678 269.717 322.998 269.344C323.264 268.997 323.424 268.704 323.478 268.464C323.558 268.224 323.598 267.851 323.598 267.344C323.598 266.891 323.611 266.557 323.638 266.344L323.678 265.824L323.718 265.064V264.504L323.758 263.744V261.824L323.678 259.104V258.904ZM349.214 254.544C349.294 255.371 349.334 256.211 349.334 257.064L349.294 257.784V258.504C349.24 259.384 349.214 260.677 349.214 262.384C349.214 264.277 349.174 265.717 349.094 266.704L348.974 268.024C348.84 270.184 348.294 272.024 347.334 273.544C346.934 274.104 346.334 274.597 345.534 275.024C344.734 275.451 343.854 275.797 342.894 276.064C341.907 276.357 340.747 276.504 339.414 276.504C338.8 276.504 338.374 276.491 338.134 276.464C336.827 276.357 335.654 276.077 334.614 275.624C333.6 275.144 332.854 274.451 332.374 273.544C331.734 272.344 331.387 270.837 331.334 269.024L331.254 267.744C331.227 267.531 331.214 267.091 331.214 266.424C331.08 264.237 331.014 262.144 331.014 260.144C331.014 258.917 331.054 257.691 331.134 256.464C331.214 255.131 331.44 253.837 331.814 252.584C332.214 251.304 332.814 250.184 333.614 249.224L334.494 248.744C336.2 247.917 338.067 247.504 340.094 247.504C341.374 247.504 342.574 247.677 343.694 248.024C344.84 248.344 345.84 248.824 346.694 249.464C347.627 250.317 348.24 251.157 348.534 251.984C348.854 252.837 349.08 253.691 349.214 254.544ZM343.014 258.904L342.854 256.824C342.8 256.077 342.614 255.424 342.294 254.864C342 254.277 341.614 253.864 341.134 253.624C340.92 253.544 340.707 253.504 340.494 253.504C339.854 253.504 339.227 253.717 338.614 254.144C338.294 254.411 337.974 254.797 337.654 255.304C337.36 255.784 337.134 256.277 336.974 256.784C336.707 257.957 336.574 259.451 336.574 261.264C336.574 262.171 336.587 262.851 336.614 263.304V263.264C336.72 263.797 336.8 264.504 336.854 265.384L336.894 265.944C337 267.277 337.147 268.264 337.334 268.904V268.864C337.574 269.397 337.92 269.811 338.374 270.104C338.854 270.371 339.36 270.504 339.894 270.504C340.32 270.504 340.747 270.411 341.174 270.224C341.627 270.011 342.014 269.717 342.334 269.344C342.6 268.997 342.76 268.704 342.814 268.464C342.894 268.224 342.934 267.851 342.934 267.344C342.934 266.891 342.947 266.557 342.974 266.344L343.014 265.824L343.054 265.064V264.504L343.094 263.744V261.824L343.014 259.104V258.904ZM360.99 272.384C359.31 268.704 358.203 266.157 357.67 264.744V272.424C357.67 274.077 357.683 275.211 357.71 275.824C356.99 276.037 356.203 276.144 355.35 276.144C355.083 276.144 354.683 276.117 354.15 276.064C353.563 276.011 353.136 275.984 352.87 275.984L350.91 275.904V272.904C350.91 271.197 350.883 268.771 350.83 265.624C350.803 264.051 350.79 261.664 350.79 258.464C350.79 254.171 350.91 250.571 351.15 247.664C351.87 247.477 352.67 247.384 353.55 247.384C354.136 247.384 354.843 247.437 355.67 247.544C356.523 247.651 357.11 247.811 357.43 248.024C357.803 248.717 358.256 249.691 358.79 250.944C359.35 252.171 359.883 253.397 360.39 254.624L361.99 258.304C361.936 256.437 361.91 254.237 361.91 251.704C361.91 249.651 361.923 248.237 361.95 247.464C363.043 247.251 364.203 247.144 365.43 247.144C366.47 247.144 367.55 247.264 368.67 247.504V275.864C368.59 275.864 368.43 275.904 368.19 275.984C367.923 276.091 367.456 276.144 366.79 276.144C366.656 276.171 365.95 276.131 364.67 276.024C364.35 275.997 363.936 275.971 363.43 275.944C362.95 275.917 362.67 275.917 362.59 275.944L360.99 272.384Z" fill="white"/>
<defs>
<filter id="filter0_f_448_1385" x="0.7" y="0.7" width="487.4" height="526.6" filterUnits="userSpaceOnUse" color-interpolation-filters="sRGB">
<feFlood flood-opacity="0" result="BackgroundImageFix"/>
<feBlend mode="normal" in="SourceGraphic" in2="BackgroundImageFix" result="shape"/>
<feGaussianBlur stdDeviation="6.15" result="effect1_foregroundBlur_448_1385"/>
</filter>
<clipPath id="clip0_448_1385">
<rect x="436.7" y="205.571" width="26.6808" height="15.3257" fill="white"/>
</clipPath>
</defs>
</svg>
